G04 #@! TF.FileFunction,Copper,L2,Bot,Signal*
%FSLAX46Y46*%
G04 Gerber Fmt 4.6, Leading zero omitted, Abs format (unit mm)*
G04 Created by KiCad (PCBNEW 4.0.7-e2-6376~58~ubuntu16.04.1) date Wed Apr 11 03:41:41 2018*
%MOMM*%
%LPD*%
G01*
G04 APERTURE LIST*
%ADD10C,0.100000*%
%ADD11C,0.150000*%
%ADD12R,2.600000X2.000000*%
%ADD13O,2.600000X2.000000*%
%ADD14R,2.000000X2.600000*%
%ADD15O,2.000000X2.600000*%
%ADD16C,4.064000*%
%ADD17C,0.600000*%
%ADD18C,0.250000*%
%ADD19C,0.254000*%
G04 APERTURE END LIST*
D10*
D11*
X77000000Y-55000000D02*
X77000000Y-34000000D01*
X81000000Y-59000000D02*
X77000000Y-55000000D01*
X88000000Y-59000000D02*
X81000000Y-59000000D01*
X91000000Y-62000000D02*
X88000000Y-59000000D01*
X91000000Y-66000000D02*
X91000000Y-62000000D01*
X93000000Y-68000000D02*
X91000000Y-66000000D01*
X98000000Y-68000000D02*
X93000000Y-68000000D01*
X100000000Y-66000000D02*
X98000000Y-68000000D01*
X105000000Y-66000000D02*
X100000000Y-66000000D01*
X107000000Y-64000000D02*
X105000000Y-66000000D01*
X107000000Y-58000000D02*
X107000000Y-64000000D01*
X108000000Y-57000000D02*
X107000000Y-58000000D01*
X108000000Y-52000000D02*
X108000000Y-57000000D01*
X108000000Y-34000000D02*
X108000000Y-52000000D01*
X77000000Y-34000000D02*
X108000000Y-34000000D01*
D12*
X105000000Y-36150000D03*
D13*
X105000000Y-38690000D03*
X105000000Y-41230000D03*
X105000000Y-43770000D03*
D14*
X84190000Y-56450000D03*
D15*
X86730000Y-56450000D03*
X89270000Y-56450000D03*
X91810000Y-56450000D03*
D16*
X105237280Y-47975520D03*
D17*
X101773550Y-56950000D03*
X101290000Y-64220000D03*
X105260000Y-59360000D03*
X94180000Y-62160000D03*
X100920000Y-42430000D03*
X82030000Y-54090000D03*
X92070000Y-54030000D03*
X98570000Y-46860000D03*
X78510000Y-36210000D03*
X78430000Y-40200000D03*
X78600000Y-50750000D03*
X78150000Y-53110000D03*
X77970000Y-55110000D03*
X102000000Y-63000000D03*
X96000000Y-66000000D03*
X95210000Y-51140000D03*
X93540000Y-53130000D03*
X101773550Y-58320000D03*
X104240000Y-62510000D03*
X99010000Y-59360000D03*
X95500000Y-59600000D03*
X96300000Y-62570000D03*
X97820000Y-42630000D03*
X97080000Y-46740000D03*
X97950000Y-38790000D03*
X100810000Y-38540000D03*
X77780000Y-46050000D03*
X77890000Y-51770000D03*
X103350000Y-53030000D03*
X100860000Y-44910000D03*
X96760000Y-42060000D03*
X97070000Y-39790000D03*
X82280000Y-55790000D03*
X99780000Y-46330000D03*
X99770000Y-50190000D03*
D18*
X97964000Y-49500000D02*
X97964000Y-48484000D01*
X97456000Y-50008000D02*
X97964000Y-49500000D01*
X96948000Y-50008000D02*
X97456000Y-50008000D01*
X96948000Y-49500000D02*
X96948000Y-50008000D01*
X97456000Y-48992000D02*
X96948000Y-49500000D01*
X98472000Y-48992000D02*
X97456000Y-48992000D01*
X97964000Y-48484000D02*
X98472000Y-48992000D01*
X78150000Y-54010000D02*
X78150000Y-53110000D01*
X94180000Y-56530000D02*
X94600000Y-56950000D01*
X101349286Y-56950000D02*
X101773550Y-56950000D01*
X94600000Y-56950000D02*
X101349286Y-56950000D01*
X101290000Y-64220000D02*
X101720000Y-63790000D01*
X101720000Y-63790000D02*
X103880000Y-63790000D01*
X103880000Y-63790000D02*
X105260000Y-62410000D01*
X105260000Y-62410000D02*
X105260000Y-59360000D01*
X94180000Y-56140000D02*
X92070000Y-54030000D01*
X94180000Y-62160000D02*
X94180000Y-56530000D01*
X94180000Y-56530000D02*
X94180000Y-56140000D01*
X78600000Y-50750000D02*
X90870000Y-50750000D01*
X100680000Y-42430000D02*
X100920000Y-42430000D01*
X97280000Y-39030000D02*
X100680000Y-42430000D01*
X96100000Y-39030000D02*
X97280000Y-39030000D01*
X93280000Y-41850000D02*
X96100000Y-39030000D01*
X93280000Y-48340000D02*
X93280000Y-41850000D01*
X90870000Y-50750000D02*
X93280000Y-48340000D01*
X81950000Y-54010000D02*
X78150000Y-54010000D01*
X82030000Y-54090000D02*
X81950000Y-54010000D01*
X92070000Y-53360000D02*
X92070000Y-54030000D01*
X98570000Y-46860000D02*
X92070000Y-53360000D01*
X78430000Y-40200000D02*
X78430000Y-36290000D01*
X78430000Y-36290000D02*
X78510000Y-36210000D01*
X78430000Y-50580000D02*
X78430000Y-40200000D01*
X78600000Y-50750000D02*
X78430000Y-50580000D01*
X78150000Y-54930000D02*
X78150000Y-54010000D01*
X77970000Y-55110000D02*
X78150000Y-54930000D01*
X102726775Y-59273225D02*
X102726775Y-62273225D01*
X102000000Y-63000000D02*
X102726775Y-62273225D01*
X96300000Y-65700000D02*
X96000000Y-66000000D01*
X96300000Y-65700000D02*
X96300000Y-62570000D01*
X93540000Y-52810000D02*
X93540000Y-53130000D01*
X95210000Y-51140000D02*
X93540000Y-52810000D01*
X100050000Y-58320000D02*
X101349286Y-58320000D01*
X102073549Y-58619999D02*
X101773550Y-58320000D01*
X104240000Y-60786450D02*
X102726775Y-59273225D01*
X102726775Y-59273225D02*
X102073549Y-58619999D01*
X104240000Y-62510000D02*
X104240000Y-60786450D01*
X101349286Y-58320000D02*
X101773550Y-58320000D01*
X99010000Y-59360000D02*
X100050000Y-58320000D01*
X95500000Y-59600000D02*
X98770000Y-59600000D01*
X98770000Y-59600000D02*
X99010000Y-59360000D01*
X95500000Y-59600000D02*
X96300000Y-60400000D01*
X96300000Y-60400000D02*
X96300000Y-62570000D01*
X97820000Y-46000000D02*
X97820000Y-42630000D01*
X97080000Y-46740000D02*
X97820000Y-46000000D01*
X100810000Y-38540000D02*
X100810000Y-39350000D01*
X102010000Y-40550000D02*
X104990000Y-40550000D01*
X100810000Y-39350000D02*
X102010000Y-40550000D01*
X97950000Y-38790000D02*
X98200000Y-38540000D01*
X98200000Y-38540000D02*
X100810000Y-38540000D01*
X77780000Y-51660000D02*
X77780000Y-46050000D01*
X77890000Y-51770000D02*
X77780000Y-51660000D01*
X103350000Y-53030000D02*
X100860000Y-50540000D01*
X100860000Y-50540000D02*
X100860000Y-44910000D01*
X96760000Y-42060000D02*
X94720000Y-44100000D01*
X94720000Y-44100000D02*
X94720000Y-49920000D01*
X94720000Y-49920000D02*
X89270000Y-55370000D01*
X89270000Y-55370000D02*
X89270000Y-56450000D01*
X86730000Y-56450000D02*
X86730000Y-56350000D01*
X86730000Y-56350000D02*
X94020000Y-49060000D01*
X94020000Y-42840000D02*
X97070000Y-39790000D01*
X94020000Y-49060000D02*
X94020000Y-42840000D01*
X85920000Y-54670000D02*
X86730000Y-55480000D01*
X83140000Y-54670000D02*
X85920000Y-54670000D01*
X82600000Y-55210000D02*
X83140000Y-54670000D01*
X82600000Y-55470000D02*
X82600000Y-55210000D01*
X82280000Y-55790000D02*
X82600000Y-55470000D01*
X86730000Y-55480000D02*
X86730000Y-56450000D01*
X99780000Y-50180000D02*
X99780000Y-46330000D01*
X99770000Y-50190000D02*
X99780000Y-50180000D01*
D19*
G36*
X93244838Y-62345167D02*
X93386883Y-62688943D01*
X93649673Y-62952192D01*
X93993201Y-63094838D01*
X94365167Y-63095162D01*
X94708943Y-62953117D01*
X94972192Y-62690327D01*
X95114838Y-62346799D01*
X95115029Y-62127000D01*
X98873000Y-62127000D01*
X98873000Y-66122908D01*
X97705908Y-67290000D01*
X93294092Y-67290000D01*
X91710000Y-65705908D01*
X91710000Y-62127000D01*
X93245028Y-62127000D01*
X93244838Y-62345167D01*
X93244838Y-62345167D01*
G37*
X93244838Y-62345167D02*
X93386883Y-62688943D01*
X93649673Y-62952192D01*
X93993201Y-63094838D01*
X94365167Y-63095162D01*
X94708943Y-62953117D01*
X94972192Y-62690327D01*
X95114838Y-62346799D01*
X95115029Y-62127000D01*
X98873000Y-62127000D01*
X98873000Y-66122908D01*
X97705908Y-67290000D01*
X93294092Y-67290000D01*
X91710000Y-65705908D01*
X91710000Y-62127000D01*
X93245028Y-62127000D01*
X93244838Y-62345167D01*
G36*
X106677559Y-57677559D02*
X106578711Y-57825496D01*
X106544000Y-58000000D01*
X106544000Y-63811118D01*
X104811118Y-65544000D01*
X100127000Y-65544000D01*
X100127000Y-64354865D01*
X100608882Y-64354865D01*
X100712339Y-64605252D01*
X100903741Y-64796987D01*
X101153946Y-64900882D01*
X101424865Y-64901118D01*
X101675252Y-64797661D01*
X101866987Y-64606259D01*
X101970882Y-64356054D01*
X101970934Y-64296000D01*
X103880000Y-64296000D01*
X104073638Y-64257483D01*
X104237796Y-64147796D01*
X105617796Y-62767796D01*
X105727483Y-62603638D01*
X105766000Y-62410000D01*
X105766000Y-59817123D01*
X105836987Y-59746259D01*
X105940882Y-59496054D01*
X105941118Y-59225135D01*
X105837661Y-58974748D01*
X105646259Y-58783013D01*
X105396054Y-58679118D01*
X105125135Y-58678882D01*
X104874748Y-58782339D01*
X104683013Y-58973741D01*
X104579118Y-59223946D01*
X104578882Y-59494865D01*
X104682339Y-59745252D01*
X104754000Y-59817038D01*
X104754000Y-62200408D01*
X103670408Y-63284000D01*
X101720000Y-63284000D01*
X101526362Y-63322517D01*
X101362204Y-63432204D01*
X101255439Y-63538969D01*
X101155135Y-63538882D01*
X100904748Y-63642339D01*
X100713013Y-63833741D01*
X100609118Y-64083946D01*
X100608882Y-64354865D01*
X100127000Y-64354865D01*
X100127000Y-61052606D01*
X101089803Y-60089803D01*
X101117666Y-60047789D01*
X101127000Y-60000000D01*
X101127000Y-58052606D01*
X101574770Y-57604836D01*
X101637496Y-57630882D01*
X101908415Y-57631118D01*
X102158802Y-57527661D01*
X102350537Y-57336259D01*
X102437430Y-57127000D01*
X107228119Y-57127000D01*
X106677559Y-57677559D01*
X106677559Y-57677559D01*
G37*
X106677559Y-57677559D02*
X106578711Y-57825496D01*
X106544000Y-58000000D01*
X106544000Y-63811118D01*
X104811118Y-65544000D01*
X100127000Y-65544000D01*
X100127000Y-64354865D01*
X100608882Y-64354865D01*
X100712339Y-64605252D01*
X100903741Y-64796987D01*
X101153946Y-64900882D01*
X101424865Y-64901118D01*
X101675252Y-64797661D01*
X101866987Y-64606259D01*
X101970882Y-64356054D01*
X101970934Y-64296000D01*
X103880000Y-64296000D01*
X104073638Y-64257483D01*
X104237796Y-64147796D01*
X105617796Y-62767796D01*
X105727483Y-62603638D01*
X105766000Y-62410000D01*
X105766000Y-59817123D01*
X105836987Y-59746259D01*
X105940882Y-59496054D01*
X105941118Y-59225135D01*
X105837661Y-58974748D01*
X105646259Y-58783013D01*
X105396054Y-58679118D01*
X105125135Y-58678882D01*
X104874748Y-58782339D01*
X104683013Y-58973741D01*
X104579118Y-59223946D01*
X104578882Y-59494865D01*
X104682339Y-59745252D01*
X104754000Y-59817038D01*
X104754000Y-62200408D01*
X103670408Y-63284000D01*
X101720000Y-63284000D01*
X101526362Y-63322517D01*
X101362204Y-63432204D01*
X101255439Y-63538969D01*
X101155135Y-63538882D01*
X100904748Y-63642339D01*
X100713013Y-63833741D01*
X100609118Y-64083946D01*
X100608882Y-64354865D01*
X100127000Y-64354865D01*
X100127000Y-61052606D01*
X101089803Y-60089803D01*
X101117666Y-60047789D01*
X101127000Y-60000000D01*
X101127000Y-58052606D01*
X101574770Y-57604836D01*
X101637496Y-57630882D01*
X101908415Y-57631118D01*
X102158802Y-57527661D01*
X102350537Y-57336259D01*
X102437430Y-57127000D01*
X107228119Y-57127000D01*
X106677559Y-57677559D01*
G36*
X99873000Y-59947394D02*
X98947394Y-60873000D01*
X94686000Y-60873000D01*
X94686000Y-57456000D01*
X99873000Y-57456000D01*
X99873000Y-59947394D01*
X99873000Y-59947394D01*
G37*
X99873000Y-59947394D02*
X98947394Y-60873000D01*
X94686000Y-60873000D01*
X94686000Y-57456000D01*
X99873000Y-57456000D01*
X99873000Y-59947394D01*
G36*
X93514000Y-48850408D02*
X87417182Y-54947226D01*
X87258486Y-54841189D01*
X86730000Y-54736067D01*
X86706361Y-54740769D01*
X86277796Y-54312204D01*
X86113638Y-54202517D01*
X85920000Y-54164000D01*
X83140000Y-54164000D01*
X82946362Y-54202517D01*
X82782204Y-54312204D01*
X82242204Y-54852204D01*
X82132517Y-55016362D01*
X82111336Y-55122847D01*
X81894748Y-55212339D01*
X81703013Y-55403741D01*
X81599118Y-55653946D01*
X81598882Y-55924865D01*
X81702339Y-56175252D01*
X81893741Y-56366987D01*
X82143946Y-56470882D01*
X82414865Y-56471118D01*
X82665252Y-56367661D01*
X82801536Y-56231614D01*
X82801536Y-57750000D01*
X82828103Y-57891190D01*
X82911546Y-58020865D01*
X83038866Y-58107859D01*
X83190000Y-58138464D01*
X85190000Y-58138464D01*
X85331190Y-58111897D01*
X85460865Y-58028454D01*
X85547859Y-57901134D01*
X85578464Y-57750000D01*
X85578464Y-57497509D01*
X85753486Y-57759447D01*
X86201514Y-58058811D01*
X86730000Y-58163933D01*
X87258486Y-58058811D01*
X87706514Y-57759447D01*
X88000000Y-57320216D01*
X88293486Y-57759447D01*
X88741514Y-58058811D01*
X89270000Y-58163933D01*
X89798486Y-58058811D01*
X90246514Y-57759447D01*
X90545878Y-57311419D01*
X90550633Y-57287514D01*
X90582723Y-57395819D01*
X90923288Y-57816318D01*
X91398847Y-58074479D01*
X91469443Y-58088350D01*
X91683000Y-58029462D01*
X91683000Y-56577000D01*
X91937000Y-56577000D01*
X91937000Y-58029462D01*
X92150557Y-58088350D01*
X92221153Y-58074479D01*
X92696712Y-57816318D01*
X93037277Y-57395819D01*
X93191000Y-56877000D01*
X93191000Y-56577000D01*
X91937000Y-56577000D01*
X91683000Y-56577000D01*
X91663000Y-56577000D01*
X91663000Y-56323000D01*
X91683000Y-56323000D01*
X91683000Y-54870538D01*
X91469443Y-54811650D01*
X91398847Y-54825521D01*
X90923288Y-55083682D01*
X90582723Y-55504181D01*
X90550633Y-55612486D01*
X90545878Y-55588581D01*
X90246514Y-55140553D01*
X90227646Y-55127946D01*
X91389055Y-53966537D01*
X91388882Y-54164865D01*
X91492339Y-54415252D01*
X91683741Y-54606987D01*
X91933946Y-54710882D01*
X92035378Y-54710970D01*
X92139192Y-54814784D01*
X91937000Y-54870538D01*
X91937000Y-56323000D01*
X93191000Y-56323000D01*
X93191000Y-56023000D01*
X93125145Y-55800737D01*
X93674000Y-56349592D01*
X93674000Y-60873000D01*
X90517881Y-60873000D01*
X88322441Y-58677559D01*
X88174504Y-58578711D01*
X88000000Y-58544000D01*
X81188882Y-58544000D01*
X78339183Y-55694301D01*
X78355252Y-55687661D01*
X78546987Y-55496259D01*
X78650882Y-55246054D01*
X78651118Y-54975135D01*
X78648353Y-54968443D01*
X78656000Y-54930000D01*
X78656000Y-54516000D01*
X81493016Y-54516000D01*
X81643741Y-54666987D01*
X81893946Y-54770882D01*
X82164865Y-54771118D01*
X82415252Y-54667661D01*
X82606987Y-54476259D01*
X82710882Y-54226054D01*
X82711118Y-53955135D01*
X82607661Y-53704748D01*
X82416259Y-53513013D01*
X82166054Y-53409118D01*
X81895135Y-53408882D01*
X81664930Y-53504000D01*
X78719233Y-53504000D01*
X78726987Y-53496259D01*
X78830882Y-53246054D01*
X78831118Y-52975135D01*
X78727661Y-52724748D01*
X78536259Y-52533013D01*
X78286054Y-52429118D01*
X78078547Y-52428937D01*
X78275252Y-52347661D01*
X78466987Y-52156259D01*
X78570882Y-51906054D01*
X78571118Y-51635135D01*
X78486731Y-51430902D01*
X78734865Y-51431118D01*
X78985252Y-51327661D01*
X79057038Y-51256000D01*
X90870000Y-51256000D01*
X91063638Y-51217483D01*
X91227796Y-51107796D01*
X93514000Y-48821592D01*
X93514000Y-48850408D01*
X93514000Y-48850408D01*
G37*
X93514000Y-48850408D02*
X87417182Y-54947226D01*
X87258486Y-54841189D01*
X86730000Y-54736067D01*
X86706361Y-54740769D01*
X86277796Y-54312204D01*
X86113638Y-54202517D01*
X85920000Y-54164000D01*
X83140000Y-54164000D01*
X82946362Y-54202517D01*
X82782204Y-54312204D01*
X82242204Y-54852204D01*
X82132517Y-55016362D01*
X82111336Y-55122847D01*
X81894748Y-55212339D01*
X81703013Y-55403741D01*
X81599118Y-55653946D01*
X81598882Y-55924865D01*
X81702339Y-56175252D01*
X81893741Y-56366987D01*
X82143946Y-56470882D01*
X82414865Y-56471118D01*
X82665252Y-56367661D01*
X82801536Y-56231614D01*
X82801536Y-57750000D01*
X82828103Y-57891190D01*
X82911546Y-58020865D01*
X83038866Y-58107859D01*
X83190000Y-58138464D01*
X85190000Y-58138464D01*
X85331190Y-58111897D01*
X85460865Y-58028454D01*
X85547859Y-57901134D01*
X85578464Y-57750000D01*
X85578464Y-57497509D01*
X85753486Y-57759447D01*
X86201514Y-58058811D01*
X86730000Y-58163933D01*
X87258486Y-58058811D01*
X87706514Y-57759447D01*
X88000000Y-57320216D01*
X88293486Y-57759447D01*
X88741514Y-58058811D01*
X89270000Y-58163933D01*
X89798486Y-58058811D01*
X90246514Y-57759447D01*
X90545878Y-57311419D01*
X90550633Y-57287514D01*
X90582723Y-57395819D01*
X90923288Y-57816318D01*
X91398847Y-58074479D01*
X91469443Y-58088350D01*
X91683000Y-58029462D01*
X91683000Y-56577000D01*
X91937000Y-56577000D01*
X91937000Y-58029462D01*
X92150557Y-58088350D01*
X92221153Y-58074479D01*
X92696712Y-57816318D01*
X93037277Y-57395819D01*
X93191000Y-56877000D01*
X93191000Y-56577000D01*
X91937000Y-56577000D01*
X91683000Y-56577000D01*
X91663000Y-56577000D01*
X91663000Y-56323000D01*
X91683000Y-56323000D01*
X91683000Y-54870538D01*
X91469443Y-54811650D01*
X91398847Y-54825521D01*
X90923288Y-55083682D01*
X90582723Y-55504181D01*
X90550633Y-55612486D01*
X90545878Y-55588581D01*
X90246514Y-55140553D01*
X90227646Y-55127946D01*
X91389055Y-53966537D01*
X91388882Y-54164865D01*
X91492339Y-54415252D01*
X91683741Y-54606987D01*
X91933946Y-54710882D01*
X92035378Y-54710970D01*
X92139192Y-54814784D01*
X91937000Y-54870538D01*
X91937000Y-56323000D01*
X93191000Y-56323000D01*
X93191000Y-56023000D01*
X93125145Y-55800737D01*
X93674000Y-56349592D01*
X93674000Y-60873000D01*
X90517881Y-60873000D01*
X88322441Y-58677559D01*
X88174504Y-58578711D01*
X88000000Y-58544000D01*
X81188882Y-58544000D01*
X78339183Y-55694301D01*
X78355252Y-55687661D01*
X78546987Y-55496259D01*
X78650882Y-55246054D01*
X78651118Y-54975135D01*
X78648353Y-54968443D01*
X78656000Y-54930000D01*
X78656000Y-54516000D01*
X81493016Y-54516000D01*
X81643741Y-54666987D01*
X81893946Y-54770882D01*
X82164865Y-54771118D01*
X82415252Y-54667661D01*
X82606987Y-54476259D01*
X82710882Y-54226054D01*
X82711118Y-53955135D01*
X82607661Y-53704748D01*
X82416259Y-53513013D01*
X82166054Y-53409118D01*
X81895135Y-53408882D01*
X81664930Y-53504000D01*
X78719233Y-53504000D01*
X78726987Y-53496259D01*
X78830882Y-53246054D01*
X78831118Y-52975135D01*
X78727661Y-52724748D01*
X78536259Y-52533013D01*
X78286054Y-52429118D01*
X78078547Y-52428937D01*
X78275252Y-52347661D01*
X78466987Y-52156259D01*
X78570882Y-51906054D01*
X78571118Y-51635135D01*
X78486731Y-51430902D01*
X78734865Y-51431118D01*
X78985252Y-51327661D01*
X79057038Y-51256000D01*
X90870000Y-51256000D01*
X91063638Y-51217483D01*
X91227796Y-51107796D01*
X93514000Y-48821592D01*
X93514000Y-48850408D01*
G36*
X107544000Y-47223926D02*
X107299678Y-46634081D01*
X106996994Y-46395411D01*
X105416885Y-47975520D01*
X106996994Y-49555629D01*
X107299678Y-49316959D01*
X107544000Y-48705832D01*
X107544000Y-55873000D01*
X101000000Y-55873000D01*
X100950590Y-55883006D01*
X100910197Y-55910197D01*
X100376394Y-56444000D01*
X94809592Y-56444000D01*
X94686000Y-56320408D01*
X94686000Y-56140000D01*
X94647483Y-55946362D01*
X94537796Y-55782204D01*
X92751031Y-53995439D01*
X92751118Y-53895135D01*
X92647661Y-53644748D01*
X92576000Y-53572962D01*
X92576000Y-53569592D01*
X96442000Y-49703592D01*
X96442000Y-50008000D01*
X96480517Y-50201638D01*
X96590204Y-50365796D01*
X96754362Y-50475483D01*
X96948000Y-50514000D01*
X97456000Y-50514000D01*
X97649638Y-50475483D01*
X97813796Y-50365796D01*
X98321796Y-49857796D01*
X98431483Y-49693638D01*
X98470000Y-49500000D01*
X98470000Y-49498000D01*
X98472000Y-49498000D01*
X98665638Y-49459483D01*
X98829796Y-49349796D01*
X98939483Y-49185638D01*
X98978000Y-48992000D01*
X98939483Y-48798362D01*
X98829796Y-48634204D01*
X98321796Y-48126204D01*
X98157638Y-48016517D01*
X98133814Y-48011778D01*
X98604561Y-47541031D01*
X98704865Y-47541118D01*
X98955252Y-47437661D01*
X99146987Y-47246259D01*
X99250882Y-46996054D01*
X99251084Y-46764082D01*
X99274000Y-46787038D01*
X99274000Y-49722895D01*
X99193013Y-49803741D01*
X99089118Y-50053946D01*
X99088882Y-50324865D01*
X99192339Y-50575252D01*
X99383741Y-50766987D01*
X99633946Y-50870882D01*
X99904865Y-50871118D01*
X100155252Y-50767661D01*
X100346987Y-50576259D01*
X100356605Y-50553096D01*
X100392517Y-50733638D01*
X100502204Y-50897796D01*
X102668969Y-53064561D01*
X102668882Y-53164865D01*
X102772339Y-53415252D01*
X102963741Y-53606987D01*
X103213946Y-53710882D01*
X103484865Y-53711118D01*
X103735252Y-53607661D01*
X103926987Y-53416259D01*
X104030882Y-53166054D01*
X104031118Y-52895135D01*
X103927661Y-52644748D01*
X103736259Y-52453013D01*
X103486054Y-52349118D01*
X103384622Y-52349030D01*
X101366000Y-50330408D01*
X101366000Y-49735234D01*
X103657171Y-49735234D01*
X103895841Y-50037918D01*
X104787198Y-50394273D01*
X105747076Y-50382396D01*
X106578719Y-50037918D01*
X106817389Y-49735234D01*
X105237280Y-48155125D01*
X103657171Y-49735234D01*
X101366000Y-49735234D01*
X101366000Y-47525438D01*
X102818527Y-47525438D01*
X102830404Y-48485316D01*
X103174882Y-49316959D01*
X103477566Y-49555629D01*
X105057675Y-47975520D01*
X103477566Y-46395411D01*
X103174882Y-46634081D01*
X102818527Y-47525438D01*
X101366000Y-47525438D01*
X101366000Y-46215806D01*
X103657171Y-46215806D01*
X105237280Y-47795915D01*
X106817389Y-46215806D01*
X106578719Y-45913122D01*
X105687362Y-45556767D01*
X104727484Y-45568644D01*
X103895841Y-45913122D01*
X103657171Y-46215806D01*
X101366000Y-46215806D01*
X101366000Y-45367123D01*
X101436987Y-45296259D01*
X101540882Y-45046054D01*
X101541118Y-44775135D01*
X101437661Y-44524748D01*
X101246259Y-44333013D01*
X100996054Y-44229118D01*
X100725135Y-44228882D01*
X100474748Y-44332339D01*
X100283013Y-44523741D01*
X100179118Y-44773946D01*
X100178882Y-45044865D01*
X100282339Y-45295252D01*
X100354000Y-45367038D01*
X100354000Y-45941081D01*
X100166259Y-45753013D01*
X99916054Y-45649118D01*
X99645135Y-45648882D01*
X99394748Y-45752339D01*
X99203013Y-45943741D01*
X99099118Y-46193946D01*
X99098916Y-46425918D01*
X98956259Y-46283013D01*
X98706054Y-46179118D01*
X98435135Y-46178882D01*
X98184748Y-46282339D01*
X97993013Y-46473741D01*
X97889118Y-46723946D01*
X97889030Y-46825378D01*
X95226000Y-49488408D01*
X95226000Y-44309592D01*
X95425035Y-44110557D01*
X103361650Y-44110557D01*
X103375521Y-44181153D01*
X103633682Y-44656712D01*
X104054181Y-44997277D01*
X104573000Y-45151000D01*
X104873000Y-45151000D01*
X104873000Y-43897000D01*
X105127000Y-43897000D01*
X105127000Y-45151000D01*
X105427000Y-45151000D01*
X105945819Y-44997277D01*
X106366318Y-44656712D01*
X106624479Y-44181153D01*
X106638350Y-44110557D01*
X106579462Y-43897000D01*
X105127000Y-43897000D01*
X104873000Y-43897000D01*
X103420538Y-43897000D01*
X103361650Y-44110557D01*
X95425035Y-44110557D01*
X96794561Y-42741031D01*
X96894865Y-42741118D01*
X97145252Y-42637661D01*
X97336987Y-42446259D01*
X97440882Y-42196054D01*
X97441118Y-41925135D01*
X97337661Y-41674748D01*
X97146259Y-41483013D01*
X96896054Y-41379118D01*
X96625135Y-41378882D01*
X96374748Y-41482339D01*
X96183013Y-41673741D01*
X96079118Y-41923946D01*
X96079030Y-42025378D01*
X94526000Y-43578408D01*
X94526000Y-43049592D01*
X97104561Y-40471031D01*
X97204865Y-40471118D01*
X97455252Y-40367661D01*
X97646987Y-40176259D01*
X97665671Y-40131263D01*
X100322204Y-42787796D01*
X100334347Y-42795910D01*
X100342339Y-42815252D01*
X100533741Y-43006987D01*
X100783946Y-43110882D01*
X101054865Y-43111118D01*
X101305252Y-43007661D01*
X101496987Y-42816259D01*
X101600882Y-42566054D01*
X101601118Y-42295135D01*
X101497661Y-42044748D01*
X101306259Y-41853013D01*
X101056054Y-41749118D01*
X100785135Y-41748882D01*
X100735134Y-41769542D01*
X98333837Y-39368245D01*
X98335252Y-39367661D01*
X98526987Y-39176259D01*
X98581076Y-39046000D01*
X100304000Y-39046000D01*
X100304000Y-39350000D01*
X100342517Y-39543638D01*
X100452204Y-39707796D01*
X101652204Y-40907796D01*
X101816362Y-41017483D01*
X102010000Y-41056000D01*
X103320678Y-41056000D01*
X103286067Y-41230000D01*
X103391189Y-41758486D01*
X103690553Y-42206514D01*
X104138581Y-42505878D01*
X104162486Y-42510633D01*
X104054181Y-42542723D01*
X103633682Y-42883288D01*
X103375521Y-43358847D01*
X103361650Y-43429443D01*
X103420538Y-43643000D01*
X104873000Y-43643000D01*
X104873000Y-43623000D01*
X105127000Y-43623000D01*
X105127000Y-43643000D01*
X106579462Y-43643000D01*
X106638350Y-43429443D01*
X106624479Y-43358847D01*
X106366318Y-42883288D01*
X105945819Y-42542723D01*
X105837514Y-42510633D01*
X105861419Y-42505878D01*
X106309447Y-42206514D01*
X106608811Y-41758486D01*
X106713933Y-41230000D01*
X106608811Y-40701514D01*
X106309447Y-40253486D01*
X105870216Y-39960000D01*
X106309447Y-39666514D01*
X106608811Y-39218486D01*
X106713933Y-38690000D01*
X106608811Y-38161514D01*
X106309447Y-37713486D01*
X106047509Y-37538464D01*
X106300000Y-37538464D01*
X106441190Y-37511897D01*
X106570865Y-37428454D01*
X106657859Y-37301134D01*
X106688464Y-37150000D01*
X106688464Y-35150000D01*
X106661897Y-35008810D01*
X106578454Y-34879135D01*
X106451134Y-34792141D01*
X106300000Y-34761536D01*
X103700000Y-34761536D01*
X103558810Y-34788103D01*
X103429135Y-34871546D01*
X103342141Y-34998866D01*
X103311536Y-35150000D01*
X103311536Y-37150000D01*
X103338103Y-37291190D01*
X103421546Y-37420865D01*
X103548866Y-37507859D01*
X103700000Y-37538464D01*
X103952491Y-37538464D01*
X103690553Y-37713486D01*
X103391189Y-38161514D01*
X103286067Y-38690000D01*
X103391189Y-39218486D01*
X103690553Y-39666514D01*
X104129784Y-39960000D01*
X104004070Y-40044000D01*
X102219592Y-40044000D01*
X101316000Y-39140408D01*
X101316000Y-38997123D01*
X101386987Y-38926259D01*
X101490882Y-38676054D01*
X101491118Y-38405135D01*
X101387661Y-38154748D01*
X101196259Y-37963013D01*
X100946054Y-37859118D01*
X100675135Y-37858882D01*
X100424748Y-37962339D01*
X100352962Y-38034000D01*
X98200000Y-38034000D01*
X98006362Y-38072517D01*
X97951760Y-38109001D01*
X97815135Y-38108882D01*
X97564748Y-38212339D01*
X97373013Y-38403741D01*
X97319790Y-38531915D01*
X97280000Y-38524000D01*
X96100000Y-38524000D01*
X95906362Y-38562517D01*
X95742204Y-38672204D01*
X92922204Y-41492204D01*
X92812517Y-41656362D01*
X92774000Y-41850000D01*
X92774000Y-48130408D01*
X90660408Y-50244000D01*
X79057123Y-50244000D01*
X78986259Y-50173013D01*
X78936000Y-50152143D01*
X78936000Y-40657123D01*
X79006987Y-40586259D01*
X79110882Y-40336054D01*
X79111118Y-40065135D01*
X79007661Y-39814748D01*
X78936000Y-39742962D01*
X78936000Y-36746984D01*
X79086987Y-36596259D01*
X79190882Y-36346054D01*
X79191118Y-36075135D01*
X79087661Y-35824748D01*
X78896259Y-35633013D01*
X78646054Y-35529118D01*
X78375135Y-35528882D01*
X78124748Y-35632339D01*
X77933013Y-35823741D01*
X77829118Y-36073946D01*
X77828882Y-36344865D01*
X77924000Y-36575070D01*
X77924000Y-39742877D01*
X77853013Y-39813741D01*
X77749118Y-40063946D01*
X77748882Y-40334865D01*
X77852339Y-40585252D01*
X77924000Y-40657038D01*
X77924000Y-45372417D01*
X77916054Y-45369118D01*
X77645135Y-45368882D01*
X77456000Y-45447030D01*
X77456000Y-34456000D01*
X107544000Y-34456000D01*
X107544000Y-47223926D01*
X107544000Y-47223926D01*
G37*
X107544000Y-47223926D02*
X107299678Y-46634081D01*
X106996994Y-46395411D01*
X105416885Y-47975520D01*
X106996994Y-49555629D01*
X107299678Y-49316959D01*
X107544000Y-48705832D01*
X107544000Y-55873000D01*
X101000000Y-55873000D01*
X100950590Y-55883006D01*
X100910197Y-55910197D01*
X100376394Y-56444000D01*
X94809592Y-56444000D01*
X94686000Y-56320408D01*
X94686000Y-56140000D01*
X94647483Y-55946362D01*
X94537796Y-55782204D01*
X92751031Y-53995439D01*
X92751118Y-53895135D01*
X92647661Y-53644748D01*
X92576000Y-53572962D01*
X92576000Y-53569592D01*
X96442000Y-49703592D01*
X96442000Y-50008000D01*
X96480517Y-50201638D01*
X96590204Y-50365796D01*
X96754362Y-50475483D01*
X96948000Y-50514000D01*
X97456000Y-50514000D01*
X97649638Y-50475483D01*
X97813796Y-50365796D01*
X98321796Y-49857796D01*
X98431483Y-49693638D01*
X98470000Y-49500000D01*
X98470000Y-49498000D01*
X98472000Y-49498000D01*
X98665638Y-49459483D01*
X98829796Y-49349796D01*
X98939483Y-49185638D01*
X98978000Y-48992000D01*
X98939483Y-48798362D01*
X98829796Y-48634204D01*
X98321796Y-48126204D01*
X98157638Y-48016517D01*
X98133814Y-48011778D01*
X98604561Y-47541031D01*
X98704865Y-47541118D01*
X98955252Y-47437661D01*
X99146987Y-47246259D01*
X99250882Y-46996054D01*
X99251084Y-46764082D01*
X99274000Y-46787038D01*
X99274000Y-49722895D01*
X99193013Y-49803741D01*
X99089118Y-50053946D01*
X99088882Y-50324865D01*
X99192339Y-50575252D01*
X99383741Y-50766987D01*
X99633946Y-50870882D01*
X99904865Y-50871118D01*
X100155252Y-50767661D01*
X100346987Y-50576259D01*
X100356605Y-50553096D01*
X100392517Y-50733638D01*
X100502204Y-50897796D01*
X102668969Y-53064561D01*
X102668882Y-53164865D01*
X102772339Y-53415252D01*
X102963741Y-53606987D01*
X103213946Y-53710882D01*
X103484865Y-53711118D01*
X103735252Y-53607661D01*
X103926987Y-53416259D01*
X104030882Y-53166054D01*
X104031118Y-52895135D01*
X103927661Y-52644748D01*
X103736259Y-52453013D01*
X103486054Y-52349118D01*
X103384622Y-52349030D01*
X101366000Y-50330408D01*
X101366000Y-49735234D01*
X103657171Y-49735234D01*
X103895841Y-50037918D01*
X104787198Y-50394273D01*
X105747076Y-50382396D01*
X106578719Y-50037918D01*
X106817389Y-49735234D01*
X105237280Y-48155125D01*
X103657171Y-49735234D01*
X101366000Y-49735234D01*
X101366000Y-47525438D01*
X102818527Y-47525438D01*
X102830404Y-48485316D01*
X103174882Y-49316959D01*
X103477566Y-49555629D01*
X105057675Y-47975520D01*
X103477566Y-46395411D01*
X103174882Y-46634081D01*
X102818527Y-47525438D01*
X101366000Y-47525438D01*
X101366000Y-46215806D01*
X103657171Y-46215806D01*
X105237280Y-47795915D01*
X106817389Y-46215806D01*
X106578719Y-45913122D01*
X105687362Y-45556767D01*
X104727484Y-45568644D01*
X103895841Y-45913122D01*
X103657171Y-46215806D01*
X101366000Y-46215806D01*
X101366000Y-45367123D01*
X101436987Y-45296259D01*
X101540882Y-45046054D01*
X101541118Y-44775135D01*
X101437661Y-44524748D01*
X101246259Y-44333013D01*
X100996054Y-44229118D01*
X100725135Y-44228882D01*
X100474748Y-44332339D01*
X100283013Y-44523741D01*
X100179118Y-44773946D01*
X100178882Y-45044865D01*
X100282339Y-45295252D01*
X100354000Y-45367038D01*
X100354000Y-45941081D01*
X100166259Y-45753013D01*
X99916054Y-45649118D01*
X99645135Y-45648882D01*
X99394748Y-45752339D01*
X99203013Y-45943741D01*
X99099118Y-46193946D01*
X99098916Y-46425918D01*
X98956259Y-46283013D01*
X98706054Y-46179118D01*
X98435135Y-46178882D01*
X98184748Y-46282339D01*
X97993013Y-46473741D01*
X97889118Y-46723946D01*
X97889030Y-46825378D01*
X95226000Y-49488408D01*
X95226000Y-44309592D01*
X95425035Y-44110557D01*
X103361650Y-44110557D01*
X103375521Y-44181153D01*
X103633682Y-44656712D01*
X104054181Y-44997277D01*
X104573000Y-45151000D01*
X104873000Y-45151000D01*
X104873000Y-43897000D01*
X105127000Y-43897000D01*
X105127000Y-45151000D01*
X105427000Y-45151000D01*
X105945819Y-44997277D01*
X106366318Y-44656712D01*
X106624479Y-44181153D01*
X106638350Y-44110557D01*
X106579462Y-43897000D01*
X105127000Y-43897000D01*
X104873000Y-43897000D01*
X103420538Y-43897000D01*
X103361650Y-44110557D01*
X95425035Y-44110557D01*
X96794561Y-42741031D01*
X96894865Y-42741118D01*
X97145252Y-42637661D01*
X97336987Y-42446259D01*
X97440882Y-42196054D01*
X97441118Y-41925135D01*
X97337661Y-41674748D01*
X97146259Y-41483013D01*
X96896054Y-41379118D01*
X96625135Y-41378882D01*
X96374748Y-41482339D01*
X96183013Y-41673741D01*
X96079118Y-41923946D01*
X96079030Y-42025378D01*
X94526000Y-43578408D01*
X94526000Y-43049592D01*
X97104561Y-40471031D01*
X97204865Y-40471118D01*
X97455252Y-40367661D01*
X97646987Y-40176259D01*
X97665671Y-40131263D01*
X100322204Y-42787796D01*
X100334347Y-42795910D01*
X100342339Y-42815252D01*
X100533741Y-43006987D01*
X100783946Y-43110882D01*
X101054865Y-43111118D01*
X101305252Y-43007661D01*
X101496987Y-42816259D01*
X101600882Y-42566054D01*
X101601118Y-42295135D01*
X101497661Y-42044748D01*
X101306259Y-41853013D01*
X101056054Y-41749118D01*
X100785135Y-41748882D01*
X100735134Y-41769542D01*
X98333837Y-39368245D01*
X98335252Y-39367661D01*
X98526987Y-39176259D01*
X98581076Y-39046000D01*
X100304000Y-39046000D01*
X100304000Y-39350000D01*
X100342517Y-39543638D01*
X100452204Y-39707796D01*
X101652204Y-40907796D01*
X101816362Y-41017483D01*
X102010000Y-41056000D01*
X103320678Y-41056000D01*
X103286067Y-41230000D01*
X103391189Y-41758486D01*
X103690553Y-42206514D01*
X104138581Y-42505878D01*
X104162486Y-42510633D01*
X104054181Y-42542723D01*
X103633682Y-42883288D01*
X103375521Y-43358847D01*
X103361650Y-43429443D01*
X103420538Y-43643000D01*
X104873000Y-43643000D01*
X104873000Y-43623000D01*
X105127000Y-43623000D01*
X105127000Y-43643000D01*
X106579462Y-43643000D01*
X106638350Y-43429443D01*
X106624479Y-43358847D01*
X106366318Y-42883288D01*
X105945819Y-42542723D01*
X105837514Y-42510633D01*
X105861419Y-42505878D01*
X106309447Y-42206514D01*
X106608811Y-41758486D01*
X106713933Y-41230000D01*
X106608811Y-40701514D01*
X106309447Y-40253486D01*
X105870216Y-39960000D01*
X106309447Y-39666514D01*
X106608811Y-39218486D01*
X106713933Y-38690000D01*
X106608811Y-38161514D01*
X106309447Y-37713486D01*
X106047509Y-37538464D01*
X106300000Y-37538464D01*
X106441190Y-37511897D01*
X106570865Y-37428454D01*
X106657859Y-37301134D01*
X106688464Y-37150000D01*
X106688464Y-35150000D01*
X106661897Y-35008810D01*
X106578454Y-34879135D01*
X106451134Y-34792141D01*
X106300000Y-34761536D01*
X103700000Y-34761536D01*
X103558810Y-34788103D01*
X103429135Y-34871546D01*
X103342141Y-34998866D01*
X103311536Y-35150000D01*
X103311536Y-37150000D01*
X103338103Y-37291190D01*
X103421546Y-37420865D01*
X103548866Y-37507859D01*
X103700000Y-37538464D01*
X103952491Y-37538464D01*
X103690553Y-37713486D01*
X103391189Y-38161514D01*
X103286067Y-38690000D01*
X103391189Y-39218486D01*
X103690553Y-39666514D01*
X104129784Y-39960000D01*
X104004070Y-40044000D01*
X102219592Y-40044000D01*
X101316000Y-39140408D01*
X101316000Y-38997123D01*
X101386987Y-38926259D01*
X101490882Y-38676054D01*
X101491118Y-38405135D01*
X101387661Y-38154748D01*
X101196259Y-37963013D01*
X100946054Y-37859118D01*
X100675135Y-37858882D01*
X100424748Y-37962339D01*
X100352962Y-38034000D01*
X98200000Y-38034000D01*
X98006362Y-38072517D01*
X97951760Y-38109001D01*
X97815135Y-38108882D01*
X97564748Y-38212339D01*
X97373013Y-38403741D01*
X97319790Y-38531915D01*
X97280000Y-38524000D01*
X96100000Y-38524000D01*
X95906362Y-38562517D01*
X95742204Y-38672204D01*
X92922204Y-41492204D01*
X92812517Y-41656362D01*
X92774000Y-41850000D01*
X92774000Y-48130408D01*
X90660408Y-50244000D01*
X79057123Y-50244000D01*
X78986259Y-50173013D01*
X78936000Y-50152143D01*
X78936000Y-40657123D01*
X79006987Y-40586259D01*
X79110882Y-40336054D01*
X79111118Y-40065135D01*
X79007661Y-39814748D01*
X78936000Y-39742962D01*
X78936000Y-36746984D01*
X79086987Y-36596259D01*
X79190882Y-36346054D01*
X79191118Y-36075135D01*
X79087661Y-35824748D01*
X78896259Y-35633013D01*
X78646054Y-35529118D01*
X78375135Y-35528882D01*
X78124748Y-35632339D01*
X77933013Y-35823741D01*
X77829118Y-36073946D01*
X77828882Y-36344865D01*
X77924000Y-36575070D01*
X77924000Y-39742877D01*
X77853013Y-39813741D01*
X77749118Y-40063946D01*
X77748882Y-40334865D01*
X77852339Y-40585252D01*
X77924000Y-40657038D01*
X77924000Y-45372417D01*
X77916054Y-45369118D01*
X77645135Y-45368882D01*
X77456000Y-45447030D01*
X77456000Y-34456000D01*
X107544000Y-34456000D01*
X107544000Y-47223926D01*
M02*
