G04 #@! TF.FileFunction,Legend,Top*
%FSLAX46Y46*%
G04 Gerber Fmt 4.6, Leading zero omitted, Abs format (unit mm)*
G04 Created by KiCad (PCBNEW 4.0.7-e2-6376~58~ubuntu16.04.1) date Wed Apr 11 03:41:41 2018*
%MOMM*%
%LPD*%
G01*
G04 APERTURE LIST*
%ADD10C,0.100000*%
%ADD11C,0.150000*%
%ADD12C,0.200000*%
%ADD13C,0.120000*%
%ADD14C,0.250000*%
%ADD15C,0.152400*%
G04 APERTURE END LIST*
D10*
D11*
X77000000Y-55000000D02*
X77000000Y-34000000D01*
X81000000Y-59000000D02*
X77000000Y-55000000D01*
X88000000Y-59000000D02*
X81000000Y-59000000D01*
X91000000Y-62000000D02*
X88000000Y-59000000D01*
X91000000Y-66000000D02*
X91000000Y-62000000D01*
X93000000Y-68000000D02*
X91000000Y-66000000D01*
X98000000Y-68000000D02*
X93000000Y-68000000D01*
X100000000Y-66000000D02*
X98000000Y-68000000D01*
X105000000Y-66000000D02*
X100000000Y-66000000D01*
X107000000Y-64000000D02*
X105000000Y-66000000D01*
X107000000Y-58000000D02*
X107000000Y-64000000D01*
X108000000Y-57000000D02*
X107000000Y-58000000D01*
X108000000Y-52000000D02*
X108000000Y-57000000D01*
X108000000Y-34000000D02*
X108000000Y-52000000D01*
X77000000Y-34000000D02*
X108000000Y-34000000D01*
D12*
X97456000Y-48992000D02*
X98472000Y-48992000D01*
X96948000Y-49500000D02*
X97456000Y-48992000D01*
X96948000Y-50008000D02*
X96948000Y-49500000D01*
X97456000Y-50008000D02*
X96948000Y-50008000D01*
X97964000Y-49500000D02*
X97456000Y-50008000D01*
X97964000Y-48484000D02*
X97964000Y-49500000D01*
X98472000Y-48992000D02*
X97964000Y-48484000D01*
D13*
X108020000Y-34780000D02*
X102020000Y-34780000D01*
X102020000Y-34780000D02*
X102020000Y-45140000D01*
X102020000Y-45140000D02*
X108020000Y-45140000D01*
X108020000Y-45140000D02*
X108020000Y-34780000D01*
X102020000Y-36150000D02*
X103020000Y-36150000D01*
X103020000Y-36150000D02*
X103020000Y-43770000D01*
X103020000Y-43770000D02*
X102020000Y-43770000D01*
X103020000Y-36150000D02*
X103450000Y-36400000D01*
X103450000Y-36400000D02*
X103450000Y-43520000D01*
X103450000Y-43520000D02*
X103020000Y-43770000D01*
X102020000Y-36400000D02*
X103020000Y-36400000D01*
X102020000Y-43520000D02*
X103020000Y-43520000D01*
X108020000Y-35350000D02*
X107400000Y-35350000D01*
X107400000Y-35350000D02*
X107400000Y-36950000D01*
X107400000Y-36950000D02*
X108020000Y-36950000D01*
X108020000Y-37890000D02*
X107400000Y-37890000D01*
X107400000Y-37890000D02*
X107400000Y-39490000D01*
X107400000Y-39490000D02*
X108020000Y-39490000D01*
X108020000Y-40430000D02*
X107400000Y-40430000D01*
X107400000Y-40430000D02*
X107400000Y-42030000D01*
X107400000Y-42030000D02*
X108020000Y-42030000D01*
X108020000Y-42970000D02*
X107400000Y-42970000D01*
X107400000Y-42970000D02*
X107400000Y-44570000D01*
X107400000Y-44570000D02*
X108020000Y-44570000D01*
X80620000Y-52110000D02*
X79620000Y-52110000D01*
X79620000Y-53810000D02*
X80620000Y-53810000D01*
X99150000Y-44190000D02*
X100150000Y-44190000D01*
X100150000Y-42490000D02*
X99150000Y-42490000D01*
X99190000Y-38320000D02*
X100190000Y-38320000D01*
X100190000Y-36620000D02*
X99190000Y-36620000D01*
X98130000Y-59170000D02*
X99130000Y-59170000D01*
X99130000Y-57470000D02*
X98130000Y-57470000D01*
X93070000Y-66510000D02*
X93070000Y-67660000D01*
X93020000Y-67660000D02*
X93020000Y-66510000D01*
X92970000Y-66510000D02*
X92970000Y-67660000D01*
X92970000Y-64410000D02*
X92970000Y-63260000D01*
X93070000Y-63260000D02*
X93070000Y-64410000D01*
X93020000Y-63260000D02*
X93020000Y-64410000D01*
X93120000Y-64410000D02*
X93120000Y-63260000D01*
X97870000Y-66460000D02*
X97870000Y-67660000D01*
X97870000Y-67660000D02*
X93120000Y-67660000D01*
X93120000Y-67660000D02*
X93120000Y-66510000D01*
X93120000Y-63260000D02*
X97870000Y-63260000D01*
X97870000Y-63260000D02*
X97870000Y-64460000D01*
D11*
X87210000Y-37320000D02*
X86210000Y-38320000D01*
X87210000Y-37320000D02*
X88210000Y-38320000D01*
X87210000Y-37320000D02*
X87210000Y-41320000D01*
X79210000Y-50320000D02*
X79210000Y-34320000D01*
X79210000Y-34320000D02*
X95210000Y-34320000D01*
X95210000Y-34320000D02*
X95210000Y-50320000D01*
X79210000Y-50320000D02*
X95210000Y-50320000D01*
D13*
X82820000Y-53430000D02*
X82820000Y-59430000D01*
X82820000Y-59430000D02*
X93180000Y-59430000D01*
X93180000Y-59430000D02*
X93180000Y-53430000D01*
X93180000Y-53430000D02*
X82820000Y-53430000D01*
X84190000Y-59430000D02*
X84190000Y-58430000D01*
X84190000Y-58430000D02*
X91810000Y-58430000D01*
X91810000Y-58430000D02*
X91810000Y-59430000D01*
X84190000Y-58430000D02*
X84440000Y-58000000D01*
X84440000Y-58000000D02*
X91560000Y-58000000D01*
X91560000Y-58000000D02*
X91810000Y-58430000D01*
X84440000Y-59430000D02*
X84440000Y-58430000D01*
X91560000Y-59430000D02*
X91560000Y-58430000D01*
X83390000Y-53430000D02*
X83390000Y-54050000D01*
X83390000Y-54050000D02*
X84990000Y-54050000D01*
X84990000Y-54050000D02*
X84990000Y-53430000D01*
X85930000Y-53430000D02*
X85930000Y-54050000D01*
X85930000Y-54050000D02*
X87530000Y-54050000D01*
X87530000Y-54050000D02*
X87530000Y-53430000D01*
X88470000Y-53430000D02*
X88470000Y-54050000D01*
X88470000Y-54050000D02*
X90070000Y-54050000D01*
X90070000Y-54050000D02*
X90070000Y-53430000D01*
X91010000Y-53430000D02*
X91010000Y-54050000D01*
X91010000Y-54050000D02*
X92610000Y-54050000D01*
X92610000Y-54050000D02*
X92610000Y-53430000D01*
X99710000Y-45920000D02*
X99710000Y-47120000D01*
X97950000Y-47120000D02*
X97950000Y-45920000D01*
X101720000Y-45890000D02*
X101720000Y-47090000D01*
X99960000Y-47090000D02*
X99960000Y-45890000D01*
X94820000Y-57400000D02*
X96020000Y-57400000D01*
X96020000Y-59160000D02*
X94820000Y-59160000D01*
D11*
X97950000Y-57060000D02*
X97950000Y-56660000D01*
X104550000Y-54860000D02*
X104550000Y-52660000D01*
X97950000Y-52660000D02*
X97950000Y-54860000D01*
X104550000Y-50860000D02*
X104550000Y-50460000D01*
X104550000Y-50460000D02*
X97950000Y-50460000D01*
X97950000Y-50460000D02*
X97950000Y-50860000D01*
X104550000Y-57060000D02*
X104550000Y-56660000D01*
X104550000Y-57060000D02*
X97950000Y-57060000D01*
D14*
X97050000Y-59740000D02*
X97800000Y-59740000D01*
X97800000Y-59740000D02*
X97800000Y-60490000D01*
X97050000Y-59990000D02*
X97550000Y-59990000D01*
X97550000Y-59990000D02*
X97550000Y-60490000D01*
X97300000Y-60240000D02*
X97300000Y-61990000D01*
X97300000Y-61990000D02*
X97300000Y-62240000D01*
X97300000Y-62240000D02*
X95300000Y-62240000D01*
X95300000Y-62240000D02*
X95300000Y-60240000D01*
X95300000Y-60240000D02*
X97300000Y-60240000D01*
D11*
X79385000Y-54234000D02*
X79385000Y-56266000D01*
X79385000Y-56266000D02*
X80655000Y-56266000D01*
X80655000Y-56266000D02*
X80655000Y-54234000D01*
X80655000Y-54234000D02*
X79385000Y-54234000D01*
D13*
X98000000Y-39670000D02*
X98000000Y-41470000D01*
X101220000Y-41470000D02*
X101220000Y-39020000D01*
X103950000Y-63650000D02*
X102950000Y-63650000D01*
X102950000Y-65350000D02*
X103950000Y-65350000D01*
X99660000Y-64470000D02*
X99660000Y-63270000D01*
X101420000Y-63270000D02*
X101420000Y-64470000D01*
D11*
X101240000Y-59440000D02*
X101240000Y-59190000D01*
X101240000Y-59190000D02*
X101490000Y-59190000D01*
X101490000Y-59690000D02*
X101490000Y-59440000D01*
X101490000Y-59440000D02*
X101740000Y-59440000D01*
X101990000Y-62190000D02*
X101740000Y-62190000D01*
X101740000Y-62190000D02*
X101740000Y-61940000D01*
X104240000Y-61940000D02*
X104240000Y-62190000D01*
X104240000Y-62190000D02*
X103990000Y-62190000D01*
X103990000Y-59690000D02*
X104240000Y-59690000D01*
X104240000Y-59690000D02*
X104240000Y-59940000D01*
X101740000Y-59940000D02*
X101740000Y-59690000D01*
X101740000Y-59690000D02*
X101990000Y-59690000D01*
D13*
X103070000Y-58830000D02*
X104070000Y-58830000D01*
X104070000Y-57130000D02*
X103070000Y-57130000D01*
D11*
X108952381Y-37483333D02*
X109666667Y-37483333D01*
X109809524Y-37530953D01*
X109904762Y-37626191D01*
X109952381Y-37769048D01*
X109952381Y-37864286D01*
X109952381Y-36483333D02*
X109952381Y-37054762D01*
X109952381Y-36769048D02*
X108952381Y-36769048D01*
X109095238Y-36864286D01*
X109190476Y-36959524D01*
X109238095Y-37054762D01*
X79793334Y-51827143D02*
X79745715Y-51874762D01*
X79602858Y-51922381D01*
X79507620Y-51922381D01*
X79364762Y-51874762D01*
X79269524Y-51779524D01*
X79221905Y-51684286D01*
X79174286Y-51493810D01*
X79174286Y-51350952D01*
X79221905Y-51160476D01*
X79269524Y-51065238D01*
X79364762Y-50970000D01*
X79507620Y-50922381D01*
X79602858Y-50922381D01*
X79745715Y-50970000D01*
X79793334Y-51017619D01*
X80745715Y-51922381D02*
X80174286Y-51922381D01*
X80460000Y-51922381D02*
X80460000Y-50922381D01*
X80364762Y-51065238D01*
X80269524Y-51160476D01*
X80174286Y-51208095D01*
X97697143Y-44116666D02*
X97744762Y-44164285D01*
X97792381Y-44307142D01*
X97792381Y-44402380D01*
X97744762Y-44545238D01*
X97649524Y-44640476D01*
X97554286Y-44688095D01*
X97363810Y-44735714D01*
X97220952Y-44735714D01*
X97030476Y-44688095D01*
X96935238Y-44640476D01*
X96840000Y-44545238D01*
X96792381Y-44402380D01*
X96792381Y-44307142D01*
X96840000Y-44164285D01*
X96887619Y-44116666D01*
X96887619Y-43735714D02*
X96840000Y-43688095D01*
X96792381Y-43592857D01*
X96792381Y-43354761D01*
X96840000Y-43259523D01*
X96887619Y-43211904D01*
X96982857Y-43164285D01*
X97078095Y-43164285D01*
X97220952Y-43211904D01*
X97792381Y-43783333D01*
X97792381Y-43164285D01*
X99833334Y-35357143D02*
X99785715Y-35404762D01*
X99642858Y-35452381D01*
X99547620Y-35452381D01*
X99404762Y-35404762D01*
X99309524Y-35309524D01*
X99261905Y-35214286D01*
X99214286Y-35023810D01*
X99214286Y-34880952D01*
X99261905Y-34690476D01*
X99309524Y-34595238D01*
X99404762Y-34500000D01*
X99547620Y-34452381D01*
X99642858Y-34452381D01*
X99785715Y-34500000D01*
X99833334Y-34547619D01*
X100690477Y-34785714D02*
X100690477Y-35452381D01*
X100452381Y-34404762D02*
X100214286Y-35119048D01*
X100833334Y-35119048D01*
X98463334Y-60177143D02*
X98415715Y-60224762D01*
X98272858Y-60272381D01*
X98177620Y-60272381D01*
X98034762Y-60224762D01*
X97939524Y-60129524D01*
X97891905Y-60034286D01*
X97844286Y-59843810D01*
X97844286Y-59700952D01*
X97891905Y-59510476D01*
X97939524Y-59415238D01*
X98034762Y-59320000D01*
X98177620Y-59272381D01*
X98272858Y-59272381D01*
X98415715Y-59320000D01*
X98463334Y-59367619D01*
X99368096Y-59272381D02*
X98891905Y-59272381D01*
X98844286Y-59748571D01*
X98891905Y-59700952D01*
X98987143Y-59653333D01*
X99225239Y-59653333D01*
X99320477Y-59700952D01*
X99368096Y-59748571D01*
X99415715Y-59843810D01*
X99415715Y-60081905D01*
X99368096Y-60177143D01*
X99320477Y-60224762D01*
X99225239Y-60272381D01*
X98987143Y-60272381D01*
X98891905Y-60224762D01*
X98844286Y-60177143D01*
X91261905Y-62452381D02*
X91261905Y-61452381D01*
X91500000Y-61452381D01*
X91642858Y-61500000D01*
X91738096Y-61595238D01*
X91785715Y-61690476D01*
X91833334Y-61880952D01*
X91833334Y-62023810D01*
X91785715Y-62214286D01*
X91738096Y-62309524D01*
X91642858Y-62404762D01*
X91500000Y-62452381D01*
X91261905Y-62452381D01*
X92785715Y-62452381D02*
X92214286Y-62452381D01*
X92500000Y-62452381D02*
X92500000Y-61452381D01*
X92404762Y-61595238D01*
X92309524Y-61690476D01*
X92214286Y-61738095D01*
X82543333Y-35248571D02*
X82876667Y-35248571D01*
X83019524Y-35772381D02*
X82543333Y-35772381D01*
X82543333Y-34772381D01*
X83019524Y-34772381D01*
X83400476Y-35724762D02*
X83543333Y-35772381D01*
X83781429Y-35772381D01*
X83876667Y-35724762D01*
X83924286Y-35677143D01*
X83971905Y-35581905D01*
X83971905Y-35486667D01*
X83924286Y-35391429D01*
X83876667Y-35343810D01*
X83781429Y-35296190D01*
X83590952Y-35248571D01*
X83495714Y-35200952D01*
X83448095Y-35153333D01*
X83400476Y-35058095D01*
X83400476Y-34962857D01*
X83448095Y-34867619D01*
X83495714Y-34820000D01*
X83590952Y-34772381D01*
X83829048Y-34772381D01*
X83971905Y-34820000D01*
X84400476Y-35772381D02*
X84400476Y-34772381D01*
X84781429Y-34772381D01*
X84876667Y-34820000D01*
X84924286Y-34867619D01*
X84971905Y-34962857D01*
X84971905Y-35105714D01*
X84924286Y-35200952D01*
X84876667Y-35248571D01*
X84781429Y-35296190D01*
X84400476Y-35296190D01*
X85924286Y-35772381D02*
X85352857Y-35772381D01*
X85638571Y-35772381D02*
X85638571Y-34772381D01*
X85543333Y-34915238D01*
X85448095Y-35010476D01*
X85352857Y-35058095D01*
X88614762Y-35248571D02*
X88948096Y-35248571D01*
X89090953Y-35772381D02*
X88614762Y-35772381D01*
X88614762Y-34772381D01*
X89090953Y-34772381D01*
X89471905Y-35724762D02*
X89614762Y-35772381D01*
X89852858Y-35772381D01*
X89948096Y-35724762D01*
X89995715Y-35677143D01*
X90043334Y-35581905D01*
X90043334Y-35486667D01*
X89995715Y-35391429D01*
X89948096Y-35343810D01*
X89852858Y-35296190D01*
X89662381Y-35248571D01*
X89567143Y-35200952D01*
X89519524Y-35153333D01*
X89471905Y-35058095D01*
X89471905Y-34962857D01*
X89519524Y-34867619D01*
X89567143Y-34820000D01*
X89662381Y-34772381D01*
X89900477Y-34772381D01*
X90043334Y-34820000D01*
X90471905Y-35772381D02*
X90471905Y-34772381D01*
X90852858Y-34772381D01*
X90948096Y-34820000D01*
X90995715Y-34867619D01*
X91043334Y-34962857D01*
X91043334Y-35105714D01*
X90995715Y-35200952D01*
X90948096Y-35248571D01*
X90852858Y-35296190D01*
X90471905Y-35296190D01*
X91995715Y-35772381D02*
X91424286Y-35772381D01*
X91710000Y-35772381D02*
X91710000Y-34772381D01*
X91614762Y-34915238D01*
X91519524Y-35010476D01*
X91424286Y-35058095D01*
X92376667Y-34867619D02*
X92424286Y-34820000D01*
X92519524Y-34772381D01*
X92757620Y-34772381D01*
X92852858Y-34820000D01*
X92900477Y-34867619D01*
X92948096Y-34962857D01*
X92948096Y-35058095D01*
X92900477Y-35200952D01*
X92329048Y-35772381D01*
X92948096Y-35772381D01*
X93376667Y-35248571D02*
X93710001Y-35248571D01*
X93852858Y-35772381D02*
X93376667Y-35772381D01*
X93376667Y-34772381D01*
X93852858Y-34772381D01*
X84856667Y-51402381D02*
X84856667Y-52116667D01*
X84809047Y-52259524D01*
X84713809Y-52354762D01*
X84570952Y-52402381D01*
X84475714Y-52402381D01*
X85285238Y-51497619D02*
X85332857Y-51450000D01*
X85428095Y-51402381D01*
X85666191Y-51402381D01*
X85761429Y-51450000D01*
X85809048Y-51497619D01*
X85856667Y-51592857D01*
X85856667Y-51688095D01*
X85809048Y-51830952D01*
X85237619Y-52402381D01*
X85856667Y-52402381D01*
X97632381Y-46686666D02*
X97156190Y-47020000D01*
X97632381Y-47258095D02*
X96632381Y-47258095D01*
X96632381Y-46877142D01*
X96680000Y-46781904D01*
X96727619Y-46734285D01*
X96822857Y-46686666D01*
X96965714Y-46686666D01*
X97060952Y-46734285D01*
X97108571Y-46781904D01*
X97156190Y-46877142D01*
X97156190Y-47258095D01*
X97632381Y-45734285D02*
X97632381Y-46305714D01*
X97632381Y-46020000D02*
X96632381Y-46020000D01*
X96775238Y-46115238D01*
X96870476Y-46210476D01*
X96918095Y-46305714D01*
X100663334Y-49042381D02*
X100330000Y-48566190D01*
X100091905Y-49042381D02*
X100091905Y-48042381D01*
X100472858Y-48042381D01*
X100568096Y-48090000D01*
X100615715Y-48137619D01*
X100663334Y-48232857D01*
X100663334Y-48375714D01*
X100615715Y-48470952D01*
X100568096Y-48518571D01*
X100472858Y-48566190D01*
X100091905Y-48566190D01*
X101044286Y-48137619D02*
X101091905Y-48090000D01*
X101187143Y-48042381D01*
X101425239Y-48042381D01*
X101520477Y-48090000D01*
X101568096Y-48137619D01*
X101615715Y-48232857D01*
X101615715Y-48328095D01*
X101568096Y-48470952D01*
X100996667Y-49042381D01*
X101615715Y-49042381D01*
X95562381Y-56496666D02*
X95086190Y-56830000D01*
X95562381Y-57068095D02*
X94562381Y-57068095D01*
X94562381Y-56687142D01*
X94610000Y-56591904D01*
X94657619Y-56544285D01*
X94752857Y-56496666D01*
X94895714Y-56496666D01*
X94990952Y-56544285D01*
X95038571Y-56591904D01*
X95086190Y-56687142D01*
X95086190Y-57068095D01*
X94562381Y-56163333D02*
X94562381Y-55544285D01*
X94943333Y-55877619D01*
X94943333Y-55734761D01*
X94990952Y-55639523D01*
X95038571Y-55591904D01*
X95133810Y-55544285D01*
X95371905Y-55544285D01*
X95467143Y-55591904D01*
X95514762Y-55639523D01*
X95562381Y-55734761D01*
X95562381Y-56020476D01*
X95514762Y-56115714D01*
X95467143Y-56163333D01*
X95684001Y-53928429D02*
X95792858Y-53964714D01*
X95974287Y-53964714D01*
X96046858Y-53928429D01*
X96083144Y-53892143D01*
X96119429Y-53819571D01*
X96119429Y-53747000D01*
X96083144Y-53674429D01*
X96046858Y-53638143D01*
X95974287Y-53601857D01*
X95829144Y-53565571D01*
X95756572Y-53529286D01*
X95720287Y-53493000D01*
X95684001Y-53420429D01*
X95684001Y-53347857D01*
X95720287Y-53275286D01*
X95756572Y-53239000D01*
X95829144Y-53202714D01*
X96010572Y-53202714D01*
X96119429Y-53239000D01*
X96373429Y-53202714D02*
X96554858Y-53964714D01*
X96700001Y-53420429D01*
X96845143Y-53964714D01*
X97026572Y-53202714D01*
X97716000Y-53964714D02*
X97280572Y-53964714D01*
X97498286Y-53964714D02*
X97498286Y-53202714D01*
X97425715Y-53311571D01*
X97353143Y-53384143D01*
X97280572Y-53420429D01*
X105015937Y-53395154D02*
X105451366Y-53395154D01*
X105233652Y-54157154D02*
X105233652Y-53395154D01*
X105669080Y-53939440D02*
X106031937Y-53939440D01*
X105596508Y-54157154D02*
X105850508Y-53395154D01*
X106104508Y-54157154D01*
X106793937Y-54084583D02*
X106757651Y-54120869D01*
X106648794Y-54157154D01*
X106576223Y-54157154D01*
X106467366Y-54120869D01*
X106394794Y-54048297D01*
X106358509Y-53975726D01*
X106322223Y-53830583D01*
X106322223Y-53721726D01*
X106358509Y-53576583D01*
X106394794Y-53504011D01*
X106467366Y-53431440D01*
X106576223Y-53395154D01*
X106648794Y-53395154D01*
X106757651Y-53431440D01*
X106793937Y-53467726D01*
X107011651Y-53395154D02*
X107447080Y-53395154D01*
X107229366Y-54157154D02*
X107229366Y-53395154D01*
X107701080Y-54157154D02*
X107701080Y-53395154D01*
X108426794Y-54157154D02*
X108063937Y-54157154D01*
X108063937Y-53395154D01*
X108680794Y-53758011D02*
X108934794Y-53758011D01*
X109043651Y-54157154D02*
X108680794Y-54157154D01*
X108680794Y-53395154D01*
X109043651Y-53395154D01*
X93752381Y-62001905D02*
X94561905Y-62001905D01*
X94657143Y-61954286D01*
X94704762Y-61906667D01*
X94752381Y-61811429D01*
X94752381Y-61620952D01*
X94704762Y-61525714D01*
X94657143Y-61478095D01*
X94561905Y-61430476D01*
X93752381Y-61430476D01*
X93752381Y-61049524D02*
X93752381Y-60430476D01*
X94133333Y-60763810D01*
X94133333Y-60620952D01*
X94180952Y-60525714D01*
X94228571Y-60478095D01*
X94323810Y-60430476D01*
X94561905Y-60430476D01*
X94657143Y-60478095D01*
X94704762Y-60525714D01*
X94752381Y-60620952D01*
X94752381Y-60906667D01*
X94704762Y-61001905D01*
X94657143Y-61049524D01*
X79678095Y-56752381D02*
X79678095Y-57561905D01*
X79725714Y-57657143D01*
X79773333Y-57704762D01*
X79868571Y-57752381D01*
X80059048Y-57752381D01*
X80154286Y-57704762D01*
X80201905Y-57657143D01*
X80249524Y-57561905D01*
X80249524Y-56752381D01*
X80678095Y-56847619D02*
X80725714Y-56800000D01*
X80820952Y-56752381D01*
X81059048Y-56752381D01*
X81154286Y-56800000D01*
X81201905Y-56847619D01*
X81249524Y-56942857D01*
X81249524Y-57038095D01*
X81201905Y-57180952D01*
X80630476Y-57752381D01*
X81249524Y-57752381D01*
X101962381Y-41331905D02*
X102771905Y-41331905D01*
X102867143Y-41284286D01*
X102914762Y-41236667D01*
X102962381Y-41141429D01*
X102962381Y-40950952D01*
X102914762Y-40855714D01*
X102867143Y-40808095D01*
X102771905Y-40760476D01*
X101962381Y-40760476D01*
X102962381Y-39760476D02*
X102962381Y-40331905D01*
X102962381Y-40046191D02*
X101962381Y-40046191D01*
X102105238Y-40141429D01*
X102200476Y-40236667D01*
X102248095Y-40331905D01*
X104833334Y-63357143D02*
X104785715Y-63404762D01*
X104642858Y-63452381D01*
X104547620Y-63452381D01*
X104404762Y-63404762D01*
X104309524Y-63309524D01*
X104261905Y-63214286D01*
X104214286Y-63023810D01*
X104214286Y-62880952D01*
X104261905Y-62690476D01*
X104309524Y-62595238D01*
X104404762Y-62500000D01*
X104547620Y-62452381D01*
X104642858Y-62452381D01*
X104785715Y-62500000D01*
X104833334Y-62547619D01*
X105690477Y-62452381D02*
X105500000Y-62452381D01*
X105404762Y-62500000D01*
X105357143Y-62547619D01*
X105261905Y-62690476D01*
X105214286Y-62880952D01*
X105214286Y-63261905D01*
X105261905Y-63357143D01*
X105309524Y-63404762D01*
X105404762Y-63452381D01*
X105595239Y-63452381D01*
X105690477Y-63404762D01*
X105738096Y-63357143D01*
X105785715Y-63261905D01*
X105785715Y-63023810D01*
X105738096Y-62928571D01*
X105690477Y-62880952D01*
X105595239Y-62833333D01*
X105404762Y-62833333D01*
X105309524Y-62880952D01*
X105261905Y-62928571D01*
X105214286Y-63023810D01*
X99452381Y-62166666D02*
X98976190Y-62500000D01*
X99452381Y-62738095D02*
X98452381Y-62738095D01*
X98452381Y-62357142D01*
X98500000Y-62261904D01*
X98547619Y-62214285D01*
X98642857Y-62166666D01*
X98785714Y-62166666D01*
X98880952Y-62214285D01*
X98928571Y-62261904D01*
X98976190Y-62357142D01*
X98976190Y-62738095D01*
X98785714Y-61309523D02*
X99452381Y-61309523D01*
X98404762Y-61547619D02*
X99119048Y-61785714D01*
X99119048Y-61166666D01*
D15*
X99480076Y-60384895D02*
X99480076Y-61042876D01*
X99517571Y-61120286D01*
X99555067Y-61158990D01*
X99630057Y-61197695D01*
X99780038Y-61197695D01*
X99855029Y-61158990D01*
X99892524Y-61120286D01*
X99930019Y-61042876D01*
X99930019Y-60384895D01*
X100642428Y-60655829D02*
X100642428Y-61197695D01*
X100454952Y-60346190D02*
X100267476Y-60926762D01*
X100754914Y-60926762D01*
X106367695Y-63099733D02*
X106367695Y-63474686D01*
X105554895Y-63474686D01*
X106328990Y-62874762D02*
X106367695Y-62762276D01*
X106367695Y-62574800D01*
X106328990Y-62499810D01*
X106290286Y-62462314D01*
X106212876Y-62424819D01*
X106135467Y-62424819D01*
X106058057Y-62462314D01*
X106019352Y-62499810D01*
X105980648Y-62574800D01*
X105941943Y-62724781D01*
X105903238Y-62799772D01*
X105864533Y-62837267D01*
X105787124Y-62874762D01*
X105709714Y-62874762D01*
X105632305Y-62837267D01*
X105593600Y-62799772D01*
X105554895Y-62724781D01*
X105554895Y-62537305D01*
X105593600Y-62424819D01*
X106367695Y-62087362D02*
X105554895Y-62087362D01*
X106135467Y-61824895D01*
X105554895Y-61562428D01*
X106367695Y-61562428D01*
X105554895Y-61262466D02*
X105554895Y-60775028D01*
X105864533Y-61037495D01*
X105864533Y-60925009D01*
X105903238Y-60850019D01*
X105941943Y-60812523D01*
X106019352Y-60775028D01*
X106212876Y-60775028D01*
X106290286Y-60812523D01*
X106328990Y-60850019D01*
X106367695Y-60925009D01*
X106367695Y-61149981D01*
X106328990Y-61224971D01*
X106290286Y-61262466D01*
X105554895Y-60287590D02*
X105554895Y-60212599D01*
X105593600Y-60137609D01*
X105632305Y-60100114D01*
X105709714Y-60062618D01*
X105864533Y-60025123D01*
X106058057Y-60025123D01*
X106212876Y-60062618D01*
X106290286Y-60100114D01*
X106328990Y-60137609D01*
X106367695Y-60212599D01*
X106367695Y-60287590D01*
X106328990Y-60362580D01*
X106290286Y-60400076D01*
X106212876Y-60437571D01*
X106058057Y-60475066D01*
X105864533Y-60475066D01*
X105709714Y-60437571D01*
X105632305Y-60400076D01*
X105593600Y-60362580D01*
X105554895Y-60287590D01*
X105554895Y-59762656D02*
X105554895Y-59275218D01*
X105864533Y-59537685D01*
X105864533Y-59425199D01*
X105903238Y-59350209D01*
X105941943Y-59312713D01*
X106019352Y-59275218D01*
X106212876Y-59275218D01*
X106290286Y-59312713D01*
X106328990Y-59350209D01*
X106367695Y-59425199D01*
X106367695Y-59650171D01*
X106328990Y-59725161D01*
X106290286Y-59762656D01*
X106290286Y-58487818D02*
X106328990Y-58525313D01*
X106367695Y-58637799D01*
X106367695Y-58712789D01*
X106328990Y-58825275D01*
X106251581Y-58900266D01*
X106174171Y-58937761D01*
X106019352Y-58975256D01*
X105903238Y-58975256D01*
X105748419Y-58937761D01*
X105671010Y-58900266D01*
X105593600Y-58825275D01*
X105554895Y-58712789D01*
X105554895Y-58637799D01*
X105593600Y-58525313D01*
X105632305Y-58487818D01*
D11*
X106117094Y-57662083D02*
X106069475Y-57709702D01*
X105926618Y-57757321D01*
X105831380Y-57757321D01*
X105688522Y-57709702D01*
X105593284Y-57614464D01*
X105545665Y-57519226D01*
X105498046Y-57328750D01*
X105498046Y-57185892D01*
X105545665Y-56995416D01*
X105593284Y-56900178D01*
X105688522Y-56804940D01*
X105831380Y-56757321D01*
X105926618Y-56757321D01*
X106069475Y-56804940D01*
X106117094Y-56852559D01*
X106450427Y-56757321D02*
X107117094Y-56757321D01*
X106688522Y-57757321D01*
X104499185Y-49697901D02*
X104499185Y-48697901D01*
X104880138Y-48697901D01*
X104975376Y-48745520D01*
X105022995Y-48793139D01*
X105070614Y-48888377D01*
X105070614Y-49031234D01*
X105022995Y-49126472D01*
X104975376Y-49174091D01*
X104880138Y-49221710D01*
X104499185Y-49221710D01*
X106022995Y-49697901D02*
X105451566Y-49697901D01*
X105737280Y-49697901D02*
X105737280Y-48697901D01*
X105642042Y-48840758D01*
X105546804Y-48935996D01*
X105451566Y-48983615D01*
X86941905Y-42962381D02*
X86941905Y-41962381D01*
X87322858Y-41962381D01*
X87418096Y-42010000D01*
X87465715Y-42057619D01*
X87513334Y-42152857D01*
X87513334Y-42295714D01*
X87465715Y-42390952D01*
X87418096Y-42438571D01*
X87322858Y-42486190D01*
X86941905Y-42486190D01*
X87894286Y-42057619D02*
X87941905Y-42010000D01*
X88037143Y-41962381D01*
X88275239Y-41962381D01*
X88370477Y-42010000D01*
X88418096Y-42057619D01*
X88465715Y-42152857D01*
X88465715Y-42248095D01*
X88418096Y-42390952D01*
X87846667Y-42962381D01*
X88465715Y-42962381D01*
M02*
