G04 #@! TF.FileFunction,Copper,L1,Top,Signal*
%FSLAX46Y46*%
G04 Gerber Fmt 4.6, Leading zero omitted, Abs format (unit mm)*
G04 Created by KiCad (PCBNEW 4.0.7-e2-6376~58~ubuntu16.04.1) date Wed Apr 11 03:41:41 2018*
%MOMM*%
%LPD*%
G01*
G04 APERTURE LIST*
%ADD10C,0.100000*%
%ADD11C,0.150000*%
%ADD12R,2.600000X2.000000*%
%ADD13O,2.600000X2.000000*%
%ADD14R,1.000000X1.250000*%
%ADD15R,1.300000X1.300000*%
%ADD16R,1.700000X1.700000*%
%ADD17O,3.000000X1.000000*%
%ADD18O,1.000000X3.000000*%
%ADD19R,2.000000X2.600000*%
%ADD20O,2.000000X2.600000*%
%ADD21R,1.300000X0.700000*%
%ADD22R,0.700000X1.300000*%
%ADD23R,3.100000X1.000000*%
%ADD24C,0.304800*%
%ADD25R,0.508000X0.304800*%
%ADD26R,0.650000X1.060000*%
%ADD27R,1.250000X0.250000*%
%ADD28R,0.250000X1.250000*%
%ADD29C,4.064000*%
%ADD30R,5.080000X5.080000*%
%ADD31C,0.600000*%
%ADD32C,0.250000*%
%ADD33C,0.254000*%
G04 APERTURE END LIST*
D10*
D11*
X77000000Y-55000000D02*
X77000000Y-34000000D01*
X81000000Y-59000000D02*
X77000000Y-55000000D01*
X88000000Y-59000000D02*
X81000000Y-59000000D01*
X91000000Y-62000000D02*
X88000000Y-59000000D01*
X91000000Y-66000000D02*
X91000000Y-62000000D01*
X93000000Y-68000000D02*
X91000000Y-66000000D01*
X98000000Y-68000000D02*
X93000000Y-68000000D01*
X100000000Y-66000000D02*
X98000000Y-68000000D01*
X105000000Y-66000000D02*
X100000000Y-66000000D01*
X107000000Y-64000000D02*
X105000000Y-66000000D01*
X107000000Y-58000000D02*
X107000000Y-64000000D01*
X108000000Y-57000000D02*
X107000000Y-58000000D01*
X108000000Y-52000000D02*
X108000000Y-57000000D01*
X108000000Y-34000000D02*
X108000000Y-52000000D01*
X77000000Y-34000000D02*
X108000000Y-34000000D01*
D12*
X105000000Y-36150000D03*
D13*
X105000000Y-38690000D03*
X105000000Y-41230000D03*
X105000000Y-43770000D03*
D14*
X79120000Y-52960000D03*
X81120000Y-52960000D03*
X100650000Y-43340000D03*
X98650000Y-43340000D03*
X100690000Y-37470000D03*
X98690000Y-37470000D03*
X99630000Y-58320000D03*
X97630000Y-58320000D03*
D15*
X98060000Y-65460000D03*
D16*
X92980000Y-65460000D03*
D17*
X79210000Y-35320000D03*
X79210000Y-37320000D03*
X79210000Y-39320000D03*
X79210000Y-41320000D03*
X79210000Y-43320000D03*
X79210000Y-45320000D03*
X79210000Y-47320000D03*
X79210000Y-49320000D03*
D18*
X82210000Y-50320000D03*
X84210000Y-50320000D03*
X86210000Y-50320000D03*
X88210000Y-50320000D03*
X90210000Y-50320000D03*
X92210000Y-50320000D03*
D17*
X95210000Y-49320000D03*
X95210000Y-47320000D03*
X95210000Y-45320000D03*
X95210000Y-43320000D03*
X95210000Y-41320000D03*
X95210000Y-39320000D03*
X95210000Y-37320000D03*
X95210000Y-35320000D03*
D19*
X84190000Y-56450000D03*
D20*
X86730000Y-56450000D03*
X89270000Y-56450000D03*
X91810000Y-56450000D03*
D21*
X98830000Y-47470000D03*
X98830000Y-45570000D03*
X100840000Y-47440000D03*
X100840000Y-45540000D03*
D22*
X96370000Y-58280000D03*
X94470000Y-58280000D03*
D23*
X105705000Y-55760000D03*
X105705000Y-51760000D03*
X96795000Y-51760000D03*
X96795000Y-55760000D03*
D24*
X96800000Y-60740000D03*
X96800000Y-61240000D03*
X96800000Y-61740000D03*
X96300000Y-60740000D03*
X96300000Y-61240000D03*
X96300000Y-61740000D03*
X95800000Y-60740000D03*
X95800000Y-61240000D03*
X95800000Y-61740000D03*
D25*
X81036000Y-55885000D03*
X81036000Y-54615000D03*
X79004000Y-55885000D03*
X81036000Y-55250000D03*
X79004000Y-54615000D03*
D26*
X100560000Y-39470000D03*
X99610000Y-39470000D03*
X98660000Y-39470000D03*
X98660000Y-41670000D03*
X100560000Y-41670000D03*
D14*
X102450000Y-64500000D03*
X104450000Y-64500000D03*
D21*
X100540000Y-62920000D03*
X100540000Y-64820000D03*
D27*
X101740000Y-60190000D03*
X101740000Y-60690000D03*
X101740000Y-61190000D03*
X101740000Y-61690000D03*
D28*
X102740000Y-62190000D03*
X103240000Y-62190000D03*
D27*
X104240000Y-61690000D03*
X104240000Y-61190000D03*
X104240000Y-60690000D03*
X104240000Y-60190000D03*
D28*
X103240000Y-59690000D03*
X102740000Y-59690000D03*
D14*
X104570000Y-57980000D03*
X102570000Y-57980000D03*
D29*
X105237280Y-47975520D03*
D30*
X87680000Y-41240000D03*
D31*
X101773550Y-56950000D03*
X101290000Y-64220000D03*
X105260000Y-59360000D03*
X94180000Y-62160000D03*
X100920000Y-42430000D03*
X82030000Y-54090000D03*
X92070000Y-54030000D03*
X98570000Y-46860000D03*
X78510000Y-36210000D03*
X78430000Y-40200000D03*
X78600000Y-50750000D03*
X78150000Y-53110000D03*
X77970000Y-55110000D03*
X102000000Y-63000000D03*
X96000000Y-66000000D03*
X95210000Y-51140000D03*
X93540000Y-53130000D03*
X101773550Y-58320000D03*
X104240000Y-62510000D03*
X99010000Y-59360000D03*
X95500000Y-59600000D03*
X96300000Y-62570000D03*
X97820000Y-42630000D03*
X97080000Y-46740000D03*
X97950000Y-38790000D03*
X100810000Y-38540000D03*
X77780000Y-46050000D03*
X77890000Y-51770000D03*
X103350000Y-53030000D03*
X100860000Y-44910000D03*
X96760000Y-42060000D03*
X97070000Y-39790000D03*
X82280000Y-55790000D03*
X99780000Y-46330000D03*
X99770000Y-50190000D03*
D32*
X96948000Y-50008000D02*
X96948000Y-49500000D01*
X97456000Y-50008000D02*
X96948000Y-50008000D01*
X97964000Y-49500000D02*
X97456000Y-50008000D01*
X97964000Y-48992000D02*
X97964000Y-49500000D01*
X97456000Y-48992000D02*
X97964000Y-48992000D01*
X96948000Y-49500000D02*
X97456000Y-48992000D01*
X97964000Y-48992000D02*
X97964000Y-48484000D01*
X97964000Y-48484000D02*
X98472000Y-48992000D01*
X98472000Y-48992000D02*
X97964000Y-48992000D01*
X102197814Y-56950000D02*
X101773550Y-56950000D01*
X105465000Y-58825000D02*
X103590000Y-56950000D01*
X103590000Y-56950000D02*
X102197814Y-56950000D01*
X100540000Y-64820000D02*
X100690000Y-64820000D01*
X100690000Y-64820000D02*
X101290000Y-64220000D01*
X105260000Y-59360000D02*
X105350000Y-59450000D01*
X105350000Y-59450000D02*
X105660000Y-59450000D01*
X104240000Y-60690000D02*
X105370000Y-60690000D01*
X105660000Y-60400000D02*
X105660000Y-59680000D01*
X105370000Y-60690000D02*
X105660000Y-60400000D01*
X105465000Y-58825000D02*
X105415000Y-58825000D01*
X105415000Y-58825000D02*
X104570000Y-57980000D01*
X104240000Y-60190000D02*
X105150000Y-60190000D01*
X105660000Y-59020000D02*
X105465000Y-58825000D01*
X105660000Y-59680000D02*
X105660000Y-59450000D01*
X105660000Y-59450000D02*
X105660000Y-59020000D01*
X105150000Y-60190000D02*
X105660000Y-59680000D01*
X95800000Y-61740000D02*
X95380000Y-62160000D01*
X95380000Y-62160000D02*
X94180000Y-62160000D01*
X100890000Y-42400000D02*
X100560000Y-42400000D01*
X100920000Y-42430000D02*
X100890000Y-42400000D01*
X98830000Y-47470000D02*
X98830000Y-47120000D01*
X98830000Y-47120000D02*
X98570000Y-46860000D01*
X82310000Y-53810000D02*
X82030000Y-54090000D01*
X91850000Y-53810000D02*
X82310000Y-53810000D01*
X92070000Y-54030000D02*
X91850000Y-53810000D01*
X78510000Y-36210000D02*
X79210000Y-35510000D01*
X79210000Y-35510000D02*
X79210000Y-35320000D01*
X79210000Y-49320000D02*
X79210000Y-50140000D01*
X78430000Y-40200000D02*
X79210000Y-39420000D01*
X79210000Y-50140000D02*
X78600000Y-50750000D01*
X79210000Y-39420000D02*
X79210000Y-39320000D01*
X100560000Y-41670000D02*
X100560000Y-42400000D01*
X100560000Y-42400000D02*
X100560000Y-43280000D01*
X100840000Y-47440000D02*
X102180000Y-47440000D01*
X98830000Y-47470000D02*
X100810000Y-47470000D01*
X100810000Y-47470000D02*
X100840000Y-47440000D01*
X79120000Y-52960000D02*
X79120000Y-49410000D01*
X79120000Y-49410000D02*
X79210000Y-49320000D01*
X79004000Y-55885000D02*
X78745000Y-55885000D01*
X78300000Y-52960000D02*
X79120000Y-52960000D01*
X78150000Y-53110000D02*
X78300000Y-52960000D01*
X78745000Y-55885000D02*
X77970000Y-55110000D01*
X79004000Y-55885000D02*
X79225000Y-55885000D01*
X102180000Y-44900000D02*
X102180000Y-47440000D01*
X100560000Y-43280000D02*
X102180000Y-44900000D01*
X102000000Y-63000000D02*
X102000000Y-62800000D01*
X102000000Y-62800000D02*
X101700000Y-62500000D01*
X97000000Y-67000000D02*
X96000000Y-66000000D01*
X100783900Y-49331880D02*
X100538280Y-49331880D01*
X100538280Y-49331880D02*
X99380040Y-48173640D01*
X100783900Y-49331880D02*
X103880920Y-49331880D01*
X103880920Y-49331880D02*
X105237280Y-47975520D01*
X95210000Y-47320000D02*
X96781420Y-47320000D01*
X97635060Y-48173640D02*
X99380040Y-48173640D01*
X99380040Y-48173640D02*
X105039160Y-48173640D01*
X96781420Y-47320000D02*
X97635060Y-48173640D01*
X105039160Y-48173640D02*
X105237280Y-47975520D01*
X105000000Y-43770000D02*
X105000000Y-47738240D01*
X105000000Y-47738240D02*
X105237280Y-47975520D01*
X95335280Y-49194720D02*
X95210000Y-49320000D01*
X95210000Y-49320000D02*
X95210000Y-51140000D01*
X93460000Y-53050000D02*
X93360000Y-53050000D01*
X93540000Y-53130000D02*
X93460000Y-53050000D01*
X101820000Y-57980000D02*
X101773550Y-58026450D01*
X101773550Y-58026450D02*
X101773550Y-58320000D01*
X102570000Y-57980000D02*
X101820000Y-57980000D01*
X105090000Y-62910000D02*
X104640000Y-62910000D01*
X104640000Y-62910000D02*
X104240000Y-62510000D01*
X104450000Y-64500000D02*
X104450000Y-63230000D01*
X104450000Y-63230000D02*
X104450000Y-63190000D01*
X104450000Y-63190000D02*
X104450000Y-63230000D01*
X104240000Y-61190000D02*
X105390000Y-61190000D01*
X103240000Y-63080000D02*
X103240000Y-62190000D01*
X103390000Y-63230000D02*
X103240000Y-63080000D01*
X104770000Y-63230000D02*
X104450000Y-63230000D01*
X104450000Y-63230000D02*
X103390000Y-63230000D01*
X105660000Y-62340000D02*
X105090000Y-62910000D01*
X105090000Y-62910000D02*
X104770000Y-63230000D01*
X105660000Y-61460000D02*
X105660000Y-62340000D01*
X105390000Y-61190000D02*
X105660000Y-61460000D01*
X94470000Y-58280000D02*
X95510000Y-57240000D01*
X98550000Y-57240000D02*
X99630000Y-58320000D01*
X95510000Y-57240000D02*
X98550000Y-57240000D01*
X94470000Y-58280000D02*
X92640000Y-56450000D01*
X92640000Y-56450000D02*
X91810000Y-56450000D01*
X99010000Y-59360000D02*
X99630000Y-58740000D01*
X99630000Y-58740000D02*
X99630000Y-58320000D01*
X96300000Y-61740000D02*
X96300000Y-61240000D01*
X94470000Y-58280000D02*
X94470000Y-58570000D01*
X94470000Y-58570000D02*
X95500000Y-59600000D01*
X96300000Y-62570000D02*
X96300000Y-61740000D01*
X95210000Y-47320000D02*
X91800000Y-47320000D01*
X86670000Y-40100000D02*
X86700000Y-40070000D01*
X86670000Y-42190000D02*
X86670000Y-40100000D01*
X91800000Y-47320000D02*
X86670000Y-42190000D01*
X91810000Y-56450000D02*
X92060000Y-56450000D01*
X92060000Y-56450000D02*
X93360000Y-55150000D01*
X93360000Y-55150000D02*
X93360000Y-53050000D01*
X93360000Y-53050000D02*
X93360000Y-52960000D01*
X95210000Y-47320000D02*
X96500000Y-47320000D01*
X96500000Y-47320000D02*
X97080000Y-46740000D01*
X97820000Y-42630000D02*
X98530000Y-43340000D01*
X98530000Y-43340000D02*
X98650000Y-43340000D01*
X95210000Y-47320000D02*
X96420000Y-47320000D01*
X99610000Y-39470000D02*
X99610000Y-38390000D01*
X99610000Y-38390000D02*
X98690000Y-37470000D01*
X104990000Y-43090000D02*
X103340000Y-43090000D01*
X100760000Y-40510000D02*
X99590000Y-40510000D01*
X103340000Y-43090000D02*
X100760000Y-40510000D01*
X98650000Y-43340000D02*
X98940000Y-43340000D01*
X98940000Y-43340000D02*
X99590000Y-42690000D01*
X99590000Y-42690000D02*
X99590000Y-40510000D01*
X99590000Y-40510000D02*
X99590000Y-39490000D01*
X99590000Y-39490000D02*
X99610000Y-39470000D01*
X95210000Y-49320000D02*
X95210000Y-47320000D01*
X95210000Y-49320000D02*
X95305000Y-49320000D01*
X95305000Y-49320000D02*
X97745000Y-51760000D01*
X81120000Y-52960000D02*
X93360000Y-52960000D01*
X93360000Y-52960000D02*
X93390000Y-52960000D01*
X81036000Y-54615000D02*
X81036000Y-53044000D01*
X81036000Y-53044000D02*
X81120000Y-52960000D01*
X98660000Y-39470000D02*
X98630000Y-39470000D01*
X98630000Y-39470000D02*
X97950000Y-38790000D01*
X100810000Y-38540000D02*
X100690000Y-38420000D01*
X100690000Y-38420000D02*
X100690000Y-37470000D01*
X100560000Y-39470000D02*
X100560000Y-37600000D01*
X100560000Y-37600000D02*
X100690000Y-37470000D01*
X100560000Y-39470000D02*
X100560000Y-39600000D01*
X100560000Y-39600000D02*
X101510000Y-40550000D01*
X101510000Y-40550000D02*
X104990000Y-40550000D01*
X97630000Y-58320000D02*
X97630000Y-59910000D01*
X97630000Y-59910000D02*
X96800000Y-60740000D01*
X96800000Y-61240000D02*
X97180000Y-61240000D01*
X98060000Y-62120000D02*
X98060000Y-65460000D01*
X97180000Y-61240000D02*
X98060000Y-62120000D01*
X96520000Y-63900000D02*
X96520000Y-64480000D01*
X96520000Y-63900000D02*
X97340000Y-63080000D01*
X97340000Y-63080000D02*
X97340000Y-62280000D01*
X96800000Y-61740000D02*
X97340000Y-62280000D01*
X95540000Y-65460000D02*
X92980000Y-65460000D01*
X96520000Y-64480000D02*
X95540000Y-65460000D01*
X79004000Y-54615000D02*
X78565000Y-54615000D01*
X77780000Y-46050000D02*
X78510000Y-45320000D01*
X77500000Y-52160000D02*
X77890000Y-51770000D01*
X77500000Y-53550000D02*
X77500000Y-52160000D01*
X78565000Y-54615000D02*
X77500000Y-53550000D01*
X78510000Y-45320000D02*
X79210000Y-45320000D01*
X84190000Y-56450000D02*
X80390000Y-56450000D01*
X80020000Y-55631000D02*
X79004000Y-54615000D01*
X80020000Y-56080000D02*
X80020000Y-55631000D01*
X80390000Y-56450000D02*
X80020000Y-56080000D01*
X106655000Y-55760000D02*
X106080000Y-55760000D01*
X106080000Y-55760000D02*
X103350000Y-53030000D01*
X100860000Y-44910000D02*
X100840000Y-44930000D01*
X100840000Y-44930000D02*
X100840000Y-45540000D01*
X95210000Y-43320000D02*
X96970000Y-43320000D01*
X99840000Y-44540000D02*
X100840000Y-45540000D01*
X98190000Y-44540000D02*
X99840000Y-44540000D01*
X96970000Y-43320000D02*
X98190000Y-44540000D01*
X95800000Y-60740000D02*
X93560000Y-60740000D01*
X93560000Y-60740000D02*
X89270000Y-56450000D01*
X95210000Y-41320000D02*
X96020000Y-41320000D01*
X96020000Y-41320000D02*
X96760000Y-42060000D01*
X81036000Y-55250000D02*
X81910000Y-55250000D01*
X87470000Y-54650000D02*
X89270000Y-56450000D01*
X82510000Y-54650000D02*
X87470000Y-54650000D01*
X81910000Y-55250000D02*
X82510000Y-54650000D01*
X86730000Y-56450000D02*
X91520000Y-61240000D01*
X91520000Y-61240000D02*
X95800000Y-61240000D01*
X97070000Y-39790000D02*
X96600000Y-39320000D01*
X96600000Y-39320000D02*
X95210000Y-39320000D01*
X81036000Y-55885000D02*
X82185000Y-55885000D01*
X82185000Y-55885000D02*
X82280000Y-55790000D01*
X86730000Y-56450000D02*
X86730000Y-55440000D01*
X104990000Y-38010000D02*
X103560000Y-38010000D01*
X97120000Y-37320000D02*
X95210000Y-37320000D01*
X98180000Y-36260000D02*
X97120000Y-37320000D01*
X101810000Y-36260000D02*
X98180000Y-36260000D01*
X103560000Y-38010000D02*
X101810000Y-36260000D01*
X95210000Y-35320000D02*
X104840000Y-35320000D01*
X104840000Y-35320000D02*
X104990000Y-35470000D01*
X96300000Y-60740000D02*
X96300000Y-58350000D01*
X96300000Y-58350000D02*
X96370000Y-58280000D01*
X102740000Y-62190000D02*
X102740000Y-64210000D01*
X102740000Y-64210000D02*
X102450000Y-64500000D01*
X95260000Y-52910000D02*
X94850000Y-52910000D01*
X100520000Y-61470000D02*
X100520000Y-59200000D01*
X100520000Y-59200000D02*
X100630000Y-59090000D01*
X100630000Y-59090000D02*
X100630000Y-54380000D01*
X100630000Y-54380000D02*
X99160000Y-52910000D01*
X99160000Y-52910000D02*
X95260000Y-52910000D01*
X100740000Y-61690000D02*
X100520000Y-61470000D01*
X82420000Y-47320000D02*
X79210000Y-47320000D01*
X83220000Y-48120000D02*
X82420000Y-47320000D01*
X83220000Y-51880000D02*
X83220000Y-48120000D01*
X83700000Y-52360000D02*
X83220000Y-51880000D01*
X94300000Y-52360000D02*
X83700000Y-52360000D01*
X94850000Y-52910000D02*
X94300000Y-52360000D01*
X100540000Y-62920000D02*
X100540000Y-61950000D01*
X100800000Y-61690000D02*
X100740000Y-61690000D01*
X100740000Y-61690000D02*
X101740000Y-61690000D01*
X100540000Y-61950000D02*
X100800000Y-61690000D01*
X101155500Y-51575500D02*
X99770000Y-50190000D01*
X101030000Y-60190000D02*
X101155500Y-60064500D01*
X101155500Y-60064500D02*
X101155500Y-51575500D01*
X101740000Y-60190000D02*
X101030000Y-60190000D01*
X99780000Y-46330000D02*
X99020000Y-45570000D01*
X99020000Y-45570000D02*
X98830000Y-45570000D01*
X98830000Y-45570000D02*
X95460000Y-45570000D01*
X95460000Y-45570000D02*
X95210000Y-45320000D01*
D33*
G36*
X97554000Y-64421536D02*
X97410000Y-64421536D01*
X97268810Y-64448103D01*
X97139135Y-64531546D01*
X97052141Y-64658866D01*
X97021536Y-64810000D01*
X97021536Y-66110000D01*
X97048103Y-66251190D01*
X97131546Y-66380865D01*
X97258866Y-66467859D01*
X97410000Y-66498464D01*
X98710000Y-66498464D01*
X98851190Y-66471897D01*
X98873000Y-66457863D01*
X98873000Y-66482118D01*
X97811118Y-67544000D01*
X93188882Y-67544000D01*
X92343346Y-66698464D01*
X93830000Y-66698464D01*
X93971190Y-66671897D01*
X94100865Y-66588454D01*
X94187859Y-66461134D01*
X94218464Y-66310000D01*
X94218464Y-65966000D01*
X95540000Y-65966000D01*
X95733638Y-65927483D01*
X95897796Y-65817796D01*
X96877796Y-64837796D01*
X96987483Y-64673638D01*
X97026000Y-64480000D01*
X97026000Y-64109592D01*
X97554000Y-63581592D01*
X97554000Y-64421536D01*
X97554000Y-64421536D01*
G37*
X97554000Y-64421536D02*
X97410000Y-64421536D01*
X97268810Y-64448103D01*
X97139135Y-64531546D01*
X97052141Y-64658866D01*
X97021536Y-64810000D01*
X97021536Y-66110000D01*
X97048103Y-66251190D01*
X97131546Y-66380865D01*
X97258866Y-66467859D01*
X97410000Y-66498464D01*
X98710000Y-66498464D01*
X98851190Y-66471897D01*
X98873000Y-66457863D01*
X98873000Y-66482118D01*
X97811118Y-67544000D01*
X93188882Y-67544000D01*
X92343346Y-66698464D01*
X93830000Y-66698464D01*
X93971190Y-66671897D01*
X94100865Y-66588454D01*
X94187859Y-66461134D01*
X94218464Y-66310000D01*
X94218464Y-65966000D01*
X95540000Y-65966000D01*
X95733638Y-65927483D01*
X95897796Y-65817796D01*
X96877796Y-64837796D01*
X96987483Y-64673638D01*
X97026000Y-64480000D01*
X97026000Y-64109592D01*
X97554000Y-63581592D01*
X97554000Y-64421536D01*
G36*
X93498882Y-62294865D02*
X93602339Y-62545252D01*
X93793741Y-62736987D01*
X94043946Y-62840882D01*
X94314865Y-62841118D01*
X94565252Y-62737661D01*
X94637038Y-62666000D01*
X95380000Y-62666000D01*
X95573638Y-62627483D01*
X95737796Y-62517796D01*
X96035942Y-62219650D01*
X96044980Y-62215915D01*
X96045133Y-62220432D01*
X96248387Y-62281395D01*
X96459499Y-62259935D01*
X96554867Y-62220432D01*
X96555022Y-62215833D01*
X96563947Y-62219539D01*
X96834000Y-62489592D01*
X96834000Y-62870408D01*
X96162204Y-63542204D01*
X96052517Y-63706362D01*
X96014000Y-63900000D01*
X96014000Y-64270408D01*
X95330408Y-64954000D01*
X94218464Y-64954000D01*
X94218464Y-64610000D01*
X94191897Y-64468810D01*
X94108454Y-64339135D01*
X93981134Y-64252141D01*
X93830000Y-64221536D01*
X92130000Y-64221536D01*
X91988810Y-64248103D01*
X91859135Y-64331546D01*
X91772141Y-64458866D01*
X91741536Y-64610000D01*
X91741536Y-66096654D01*
X91456000Y-65811118D01*
X91456000Y-62127000D01*
X93499028Y-62127000D01*
X93498882Y-62294865D01*
X93498882Y-62294865D01*
G37*
X93498882Y-62294865D02*
X93602339Y-62545252D01*
X93793741Y-62736987D01*
X94043946Y-62840882D01*
X94314865Y-62841118D01*
X94565252Y-62737661D01*
X94637038Y-62666000D01*
X95380000Y-62666000D01*
X95573638Y-62627483D01*
X95737796Y-62517796D01*
X96035942Y-62219650D01*
X96044980Y-62215915D01*
X96045133Y-62220432D01*
X96248387Y-62281395D01*
X96459499Y-62259935D01*
X96554867Y-62220432D01*
X96555022Y-62215833D01*
X96563947Y-62219539D01*
X96834000Y-62489592D01*
X96834000Y-62870408D01*
X96162204Y-63542204D01*
X96052517Y-63706362D01*
X96014000Y-63900000D01*
X96014000Y-64270408D01*
X95330408Y-64954000D01*
X94218464Y-64954000D01*
X94218464Y-64610000D01*
X94191897Y-64468810D01*
X94108454Y-64339135D01*
X93981134Y-64252141D01*
X93830000Y-64221536D01*
X92130000Y-64221536D01*
X91988810Y-64248103D01*
X91859135Y-64331546D01*
X91772141Y-64458866D01*
X91741536Y-64610000D01*
X91741536Y-66096654D01*
X91456000Y-65811118D01*
X91456000Y-62127000D01*
X93499028Y-62127000D01*
X93498882Y-62294865D01*
G36*
X106677559Y-57677559D02*
X106578711Y-57825496D01*
X106544000Y-58000000D01*
X106544000Y-63811118D01*
X105331000Y-65024118D01*
X105331000Y-64722250D01*
X105235750Y-64627000D01*
X104577000Y-64627000D01*
X104577000Y-65410750D01*
X104672250Y-65506000D01*
X104849118Y-65506000D01*
X104811118Y-65544000D01*
X101266869Y-65544000D01*
X101331190Y-65531897D01*
X101460865Y-65448454D01*
X101547859Y-65321134D01*
X101574078Y-65191657D01*
X101588103Y-65266190D01*
X101671546Y-65395865D01*
X101798866Y-65482859D01*
X101950000Y-65513464D01*
X102950000Y-65513464D01*
X103091190Y-65486897D01*
X103220865Y-65403454D01*
X103307859Y-65276134D01*
X103338464Y-65125000D01*
X103338464Y-64722250D01*
X103569000Y-64722250D01*
X103569000Y-65200785D01*
X103627004Y-65340819D01*
X103734180Y-65447996D01*
X103874214Y-65506000D01*
X104227750Y-65506000D01*
X104323000Y-65410750D01*
X104323000Y-64627000D01*
X103664250Y-64627000D01*
X103569000Y-64722250D01*
X103338464Y-64722250D01*
X103338464Y-63875000D01*
X103324204Y-63799215D01*
X103569000Y-63799215D01*
X103569000Y-64277750D01*
X103664250Y-64373000D01*
X104323000Y-64373000D01*
X104323000Y-63589250D01*
X104577000Y-63589250D01*
X104577000Y-64373000D01*
X105235750Y-64373000D01*
X105331000Y-64277750D01*
X105331000Y-63799215D01*
X105272996Y-63659181D01*
X105165820Y-63552004D01*
X105025786Y-63494000D01*
X104672250Y-63494000D01*
X104577000Y-63589250D01*
X104323000Y-63589250D01*
X104227750Y-63494000D01*
X103874214Y-63494000D01*
X103734180Y-63552004D01*
X103627004Y-63659181D01*
X103569000Y-63799215D01*
X103324204Y-63799215D01*
X103311897Y-63733810D01*
X103246000Y-63631402D01*
X103246000Y-63196000D01*
X103367002Y-63196000D01*
X103367002Y-63165252D01*
X103397750Y-63196000D01*
X103440786Y-63196000D01*
X103580820Y-63137996D01*
X103687996Y-63030819D01*
X103746000Y-62890785D01*
X103746000Y-62412250D01*
X103650752Y-62317002D01*
X103746000Y-62317002D01*
X103746000Y-62203464D01*
X104865000Y-62203464D01*
X105006190Y-62176897D01*
X105135865Y-62093454D01*
X105222859Y-61966134D01*
X105253464Y-61815000D01*
X105253464Y-61565000D01*
X105228591Y-61432814D01*
X105246000Y-61390785D01*
X105246000Y-61347750D01*
X105215252Y-61317002D01*
X105246000Y-61317002D01*
X105246000Y-61196000D01*
X105370000Y-61196000D01*
X105563638Y-61157483D01*
X105727796Y-61047796D01*
X106017796Y-60757796D01*
X106127483Y-60593638D01*
X106166000Y-60400000D01*
X106166000Y-59020000D01*
X106127483Y-58826362D01*
X106017796Y-58662204D01*
X105458464Y-58102872D01*
X105458464Y-57355000D01*
X105431897Y-57213810D01*
X105376037Y-57127000D01*
X107228119Y-57127000D01*
X106677559Y-57677559D01*
X106677559Y-57677559D01*
G37*
X106677559Y-57677559D02*
X106578711Y-57825496D01*
X106544000Y-58000000D01*
X106544000Y-63811118D01*
X105331000Y-65024118D01*
X105331000Y-64722250D01*
X105235750Y-64627000D01*
X104577000Y-64627000D01*
X104577000Y-65410750D01*
X104672250Y-65506000D01*
X104849118Y-65506000D01*
X104811118Y-65544000D01*
X101266869Y-65544000D01*
X101331190Y-65531897D01*
X101460865Y-65448454D01*
X101547859Y-65321134D01*
X101574078Y-65191657D01*
X101588103Y-65266190D01*
X101671546Y-65395865D01*
X101798866Y-65482859D01*
X101950000Y-65513464D01*
X102950000Y-65513464D01*
X103091190Y-65486897D01*
X103220865Y-65403454D01*
X103307859Y-65276134D01*
X103338464Y-65125000D01*
X103338464Y-64722250D01*
X103569000Y-64722250D01*
X103569000Y-65200785D01*
X103627004Y-65340819D01*
X103734180Y-65447996D01*
X103874214Y-65506000D01*
X104227750Y-65506000D01*
X104323000Y-65410750D01*
X104323000Y-64627000D01*
X103664250Y-64627000D01*
X103569000Y-64722250D01*
X103338464Y-64722250D01*
X103338464Y-63875000D01*
X103324204Y-63799215D01*
X103569000Y-63799215D01*
X103569000Y-64277750D01*
X103664250Y-64373000D01*
X104323000Y-64373000D01*
X104323000Y-63589250D01*
X104577000Y-63589250D01*
X104577000Y-64373000D01*
X105235750Y-64373000D01*
X105331000Y-64277750D01*
X105331000Y-63799215D01*
X105272996Y-63659181D01*
X105165820Y-63552004D01*
X105025786Y-63494000D01*
X104672250Y-63494000D01*
X104577000Y-63589250D01*
X104323000Y-63589250D01*
X104227750Y-63494000D01*
X103874214Y-63494000D01*
X103734180Y-63552004D01*
X103627004Y-63659181D01*
X103569000Y-63799215D01*
X103324204Y-63799215D01*
X103311897Y-63733810D01*
X103246000Y-63631402D01*
X103246000Y-63196000D01*
X103367002Y-63196000D01*
X103367002Y-63165252D01*
X103397750Y-63196000D01*
X103440786Y-63196000D01*
X103580820Y-63137996D01*
X103687996Y-63030819D01*
X103746000Y-62890785D01*
X103746000Y-62412250D01*
X103650752Y-62317002D01*
X103746000Y-62317002D01*
X103746000Y-62203464D01*
X104865000Y-62203464D01*
X105006190Y-62176897D01*
X105135865Y-62093454D01*
X105222859Y-61966134D01*
X105253464Y-61815000D01*
X105253464Y-61565000D01*
X105228591Y-61432814D01*
X105246000Y-61390785D01*
X105246000Y-61347750D01*
X105215252Y-61317002D01*
X105246000Y-61317002D01*
X105246000Y-61196000D01*
X105370000Y-61196000D01*
X105563638Y-61157483D01*
X105727796Y-61047796D01*
X106017796Y-60757796D01*
X106127483Y-60593638D01*
X106166000Y-60400000D01*
X106166000Y-59020000D01*
X106127483Y-58826362D01*
X106017796Y-58662204D01*
X105458464Y-58102872D01*
X105458464Y-57355000D01*
X105431897Y-57213810D01*
X105376037Y-57127000D01*
X107228119Y-57127000D01*
X106677559Y-57677559D01*
G36*
X102226536Y-62815000D02*
X102234000Y-62854667D01*
X102234000Y-63486536D01*
X101950000Y-63486536D01*
X101808810Y-63513103D01*
X101679135Y-63596546D01*
X101653767Y-63633673D01*
X101456030Y-63551565D01*
X101460865Y-63548454D01*
X101547859Y-63421134D01*
X101578464Y-63270000D01*
X101578464Y-62570000D01*
X101551897Y-62428810D01*
X101468454Y-62299135D01*
X101341134Y-62212141D01*
X101298285Y-62203464D01*
X102226536Y-62203464D01*
X102226536Y-62815000D01*
X102226536Y-62815000D01*
G37*
X102226536Y-62815000D02*
X102234000Y-62854667D01*
X102234000Y-63486536D01*
X101950000Y-63486536D01*
X101808810Y-63513103D01*
X101679135Y-63596546D01*
X101653767Y-63633673D01*
X101456030Y-63551565D01*
X101460865Y-63548454D01*
X101547859Y-63421134D01*
X101578464Y-63270000D01*
X101578464Y-62570000D01*
X101551897Y-62428810D01*
X101468454Y-62299135D01*
X101341134Y-62212141D01*
X101298285Y-62203464D01*
X102226536Y-62203464D01*
X102226536Y-62815000D01*
G36*
X103681536Y-57757128D02*
X103681536Y-58605000D01*
X103708103Y-58746190D01*
X103791546Y-58875865D01*
X103918866Y-58962859D01*
X104070000Y-58993464D01*
X104674823Y-58993464D01*
X104579118Y-59223946D01*
X104578882Y-59494865D01*
X104653946Y-59676536D01*
X103753464Y-59676536D01*
X103753464Y-59065000D01*
X103726897Y-58923810D01*
X103643454Y-58794135D01*
X103516134Y-58707141D01*
X103445968Y-58692932D01*
X103451000Y-58680785D01*
X103451000Y-58202250D01*
X103355750Y-58107000D01*
X102697000Y-58107000D01*
X102697000Y-58127000D01*
X102443000Y-58127000D01*
X102443000Y-58107000D01*
X101784250Y-58107000D01*
X101689000Y-58202250D01*
X101689000Y-58680785D01*
X101747004Y-58820819D01*
X101854180Y-58927996D01*
X101994214Y-58986000D01*
X102242534Y-58986000D01*
X102226536Y-59065000D01*
X102226536Y-59676536D01*
X101661500Y-59676536D01*
X101661500Y-57630903D01*
X101689000Y-57630927D01*
X101689000Y-57757750D01*
X101784250Y-57853000D01*
X102443000Y-57853000D01*
X102443000Y-57833000D01*
X102697000Y-57833000D01*
X102697000Y-57853000D01*
X103355750Y-57853000D01*
X103451000Y-57757750D01*
X103451000Y-57526592D01*
X103681536Y-57757128D01*
X103681536Y-57757128D01*
G37*
X103681536Y-57757128D02*
X103681536Y-58605000D01*
X103708103Y-58746190D01*
X103791546Y-58875865D01*
X103918866Y-58962859D01*
X104070000Y-58993464D01*
X104674823Y-58993464D01*
X104579118Y-59223946D01*
X104578882Y-59494865D01*
X104653946Y-59676536D01*
X103753464Y-59676536D01*
X103753464Y-59065000D01*
X103726897Y-58923810D01*
X103643454Y-58794135D01*
X103516134Y-58707141D01*
X103445968Y-58692932D01*
X103451000Y-58680785D01*
X103451000Y-58202250D01*
X103355750Y-58107000D01*
X102697000Y-58107000D01*
X102697000Y-58127000D01*
X102443000Y-58127000D01*
X102443000Y-58107000D01*
X101784250Y-58107000D01*
X101689000Y-58202250D01*
X101689000Y-58680785D01*
X101747004Y-58820819D01*
X101854180Y-58927996D01*
X101994214Y-58986000D01*
X102242534Y-58986000D01*
X102226536Y-59065000D01*
X102226536Y-59676536D01*
X101661500Y-59676536D01*
X101661500Y-57630903D01*
X101689000Y-57630927D01*
X101689000Y-57757750D01*
X101784250Y-57853000D01*
X102443000Y-57853000D01*
X102443000Y-57833000D01*
X102697000Y-57833000D01*
X102697000Y-57853000D01*
X103355750Y-57853000D01*
X103451000Y-57757750D01*
X103451000Y-57526592D01*
X103681536Y-57757128D01*
G36*
X77550188Y-47942961D02*
X77836005Y-48133938D01*
X78173149Y-48201000D01*
X80246851Y-48201000D01*
X80583995Y-48133938D01*
X80869812Y-47942961D01*
X80947963Y-47826000D01*
X82210408Y-47826000D01*
X82714000Y-48329592D01*
X82714000Y-48580701D01*
X82547144Y-48469211D01*
X82210000Y-48402149D01*
X81872856Y-48469211D01*
X81587039Y-48660188D01*
X81396062Y-48946005D01*
X81329000Y-49283149D01*
X81329000Y-51356851D01*
X81396062Y-51693995D01*
X81569792Y-51954000D01*
X81342250Y-51954000D01*
X81247000Y-52049250D01*
X81247000Y-52833000D01*
X81905750Y-52833000D01*
X82001000Y-52737750D01*
X82001000Y-52259215D01*
X81972590Y-52190627D01*
X82210000Y-52237851D01*
X82547144Y-52170789D01*
X82745481Y-52038264D01*
X82752517Y-52073638D01*
X82862204Y-52237796D01*
X83342204Y-52717796D01*
X83506362Y-52827483D01*
X83700000Y-52866000D01*
X94090408Y-52866000D01*
X94492204Y-53267796D01*
X94656362Y-53377483D01*
X94850000Y-53416000D01*
X98950408Y-53416000D01*
X100124000Y-54589592D01*
X100124000Y-56696394D01*
X99910197Y-56910197D01*
X99882334Y-56952211D01*
X99873000Y-57000000D01*
X99873000Y-57314000D01*
X99852250Y-57314000D01*
X99757000Y-57409250D01*
X99757000Y-58193000D01*
X99777000Y-58193000D01*
X99777000Y-58447000D01*
X99757000Y-58447000D01*
X99757000Y-59230750D01*
X99852250Y-59326000D01*
X99873000Y-59326000D01*
X99873000Y-59947394D01*
X98947394Y-60873000D01*
X97524021Y-60873000D01*
X97439241Y-60816351D01*
X97987796Y-60267796D01*
X98097483Y-60103638D01*
X98136000Y-59910000D01*
X98136000Y-59332335D01*
X98271190Y-59306897D01*
X98400865Y-59223454D01*
X98487859Y-59096134D01*
X98518464Y-58945000D01*
X98518464Y-58542250D01*
X98749000Y-58542250D01*
X98749000Y-59020785D01*
X98807004Y-59160819D01*
X98914180Y-59267996D01*
X99054214Y-59326000D01*
X99407750Y-59326000D01*
X99503000Y-59230750D01*
X99503000Y-58447000D01*
X98844250Y-58447000D01*
X98749000Y-58542250D01*
X98518464Y-58542250D01*
X98518464Y-57695000D01*
X98504204Y-57619215D01*
X98749000Y-57619215D01*
X98749000Y-58097750D01*
X98844250Y-58193000D01*
X99503000Y-58193000D01*
X99503000Y-57409250D01*
X99407750Y-57314000D01*
X99054214Y-57314000D01*
X98914180Y-57372004D01*
X98807004Y-57479181D01*
X98749000Y-57619215D01*
X98504204Y-57619215D01*
X98491897Y-57553810D01*
X98408454Y-57424135D01*
X98281134Y-57337141D01*
X98130000Y-57306536D01*
X97130000Y-57306536D01*
X96988810Y-57333103D01*
X96974156Y-57342533D01*
X96871134Y-57272141D01*
X96720000Y-57241536D01*
X96020000Y-57241536D01*
X95878810Y-57268103D01*
X95749135Y-57351546D01*
X95662141Y-57478866D01*
X95631536Y-57630000D01*
X95631536Y-58930000D01*
X95658103Y-59071190D01*
X95741546Y-59200865D01*
X95794000Y-59236705D01*
X95794000Y-60206595D01*
X95694366Y-60206508D01*
X95627830Y-60234000D01*
X93769592Y-60234000D01*
X92037842Y-58502250D01*
X93739000Y-58502250D01*
X93739000Y-59005785D01*
X93797004Y-59145819D01*
X93904180Y-59252996D01*
X94044214Y-59311000D01*
X94247750Y-59311000D01*
X94343000Y-59215750D01*
X94343000Y-58407000D01*
X94597000Y-58407000D01*
X94597000Y-59215750D01*
X94692250Y-59311000D01*
X94895786Y-59311000D01*
X95035820Y-59252996D01*
X95142996Y-59145819D01*
X95201000Y-59005785D01*
X95201000Y-58502250D01*
X95105750Y-58407000D01*
X94597000Y-58407000D01*
X94343000Y-58407000D01*
X93834250Y-58407000D01*
X93739000Y-58502250D01*
X92037842Y-58502250D01*
X91590548Y-58054956D01*
X91683000Y-58029462D01*
X91683000Y-56577000D01*
X91937000Y-56577000D01*
X91937000Y-58029462D01*
X92150557Y-58088350D01*
X92221153Y-58074479D01*
X92696712Y-57816318D01*
X92908991Y-57554215D01*
X93739000Y-57554215D01*
X93739000Y-58057750D01*
X93834250Y-58153000D01*
X94343000Y-58153000D01*
X94343000Y-57344250D01*
X94597000Y-57344250D01*
X94597000Y-58153000D01*
X95105750Y-58153000D01*
X95201000Y-58057750D01*
X95201000Y-57554215D01*
X95142996Y-57414181D01*
X95035820Y-57307004D01*
X94895786Y-57249000D01*
X94692250Y-57249000D01*
X94597000Y-57344250D01*
X94343000Y-57344250D01*
X94247750Y-57249000D01*
X94044214Y-57249000D01*
X93904180Y-57307004D01*
X93797004Y-57414181D01*
X93739000Y-57554215D01*
X92908991Y-57554215D01*
X93037277Y-57395819D01*
X93191000Y-56877000D01*
X93191000Y-56577000D01*
X91937000Y-56577000D01*
X91683000Y-56577000D01*
X91663000Y-56577000D01*
X91663000Y-56323000D01*
X91683000Y-56323000D01*
X91683000Y-54870538D01*
X91937000Y-54870538D01*
X91937000Y-56323000D01*
X93191000Y-56323000D01*
X93191000Y-56023000D01*
X93037277Y-55504181D01*
X92839514Y-55260000D01*
X94856536Y-55260000D01*
X94856536Y-56260000D01*
X94883103Y-56401190D01*
X94966546Y-56530865D01*
X95093866Y-56617859D01*
X95245000Y-56648464D01*
X98345000Y-56648464D01*
X98486190Y-56621897D01*
X98615865Y-56538454D01*
X98702859Y-56411134D01*
X98733464Y-56260000D01*
X98733464Y-55260000D01*
X98706897Y-55118810D01*
X98623454Y-54989135D01*
X98496134Y-54902141D01*
X98345000Y-54871536D01*
X95245000Y-54871536D01*
X95103810Y-54898103D01*
X94974135Y-54981546D01*
X94887141Y-55108866D01*
X94856536Y-55260000D01*
X92839514Y-55260000D01*
X92696712Y-55083682D01*
X92221153Y-54825521D01*
X92150557Y-54811650D01*
X91937000Y-54870538D01*
X91683000Y-54870538D01*
X91469443Y-54811650D01*
X91398847Y-54825521D01*
X90923288Y-55083682D01*
X90582723Y-55504181D01*
X90550633Y-55612486D01*
X90545878Y-55588581D01*
X90246514Y-55140553D01*
X89798486Y-54841189D01*
X89270000Y-54736067D01*
X88741514Y-54841189D01*
X88522873Y-54987281D01*
X87851592Y-54316000D01*
X91451329Y-54316000D01*
X91492339Y-54415252D01*
X91683741Y-54606987D01*
X91933946Y-54710882D01*
X92204865Y-54711118D01*
X92455252Y-54607661D01*
X92646987Y-54416259D01*
X92750882Y-54166054D01*
X92751118Y-53895135D01*
X92647661Y-53644748D01*
X92456259Y-53453013D01*
X92206054Y-53349118D01*
X92053318Y-53348985D01*
X92043638Y-53342517D01*
X91850000Y-53304000D01*
X82310000Y-53304000D01*
X82116362Y-53342517D01*
X82016881Y-53408988D01*
X82001000Y-53408974D01*
X82001000Y-53182250D01*
X81905750Y-53087000D01*
X81247000Y-53087000D01*
X81247000Y-53870750D01*
X81342250Y-53966000D01*
X81349107Y-53966000D01*
X81349007Y-54081600D01*
X81258250Y-54081600D01*
X81163000Y-54176850D01*
X81163000Y-54538800D01*
X81183000Y-54538800D01*
X81183000Y-54691200D01*
X81163000Y-54691200D01*
X81163000Y-54709136D01*
X80909000Y-54709136D01*
X80909000Y-54691200D01*
X80496250Y-54691200D01*
X80401000Y-54786450D01*
X80401000Y-54843185D01*
X80436368Y-54928571D01*
X80424141Y-54946466D01*
X80393536Y-55097600D01*
X80393536Y-55296761D01*
X80377796Y-55273204D01*
X79646464Y-54541872D01*
X79646464Y-54462600D01*
X79632204Y-54386815D01*
X80401000Y-54386815D01*
X80401000Y-54443550D01*
X80496250Y-54538800D01*
X80909000Y-54538800D01*
X80909000Y-54176850D01*
X80813750Y-54081600D01*
X80706214Y-54081600D01*
X80566180Y-54139604D01*
X80459004Y-54246781D01*
X80401000Y-54386815D01*
X79632204Y-54386815D01*
X79619897Y-54321410D01*
X79536454Y-54191735D01*
X79409134Y-54104741D01*
X79258000Y-54074136D01*
X78750000Y-54074136D01*
X78741355Y-54075763D01*
X78639056Y-53973464D01*
X79620000Y-53973464D01*
X79761190Y-53946897D01*
X79890865Y-53863454D01*
X79977859Y-53736134D01*
X80008464Y-53585000D01*
X80008464Y-53182250D01*
X80239000Y-53182250D01*
X80239000Y-53660785D01*
X80297004Y-53800819D01*
X80404180Y-53907996D01*
X80544214Y-53966000D01*
X80897750Y-53966000D01*
X80993000Y-53870750D01*
X80993000Y-53087000D01*
X80334250Y-53087000D01*
X80239000Y-53182250D01*
X80008464Y-53182250D01*
X80008464Y-52335000D01*
X79994204Y-52259215D01*
X80239000Y-52259215D01*
X80239000Y-52737750D01*
X80334250Y-52833000D01*
X80993000Y-52833000D01*
X80993000Y-52049250D01*
X80897750Y-51954000D01*
X80544214Y-51954000D01*
X80404180Y-52012004D01*
X80297004Y-52119181D01*
X80239000Y-52259215D01*
X79994204Y-52259215D01*
X79981897Y-52193810D01*
X79898454Y-52064135D01*
X79771134Y-51977141D01*
X79626000Y-51947751D01*
X79626000Y-50410688D01*
X79677483Y-50333638D01*
X79703866Y-50201000D01*
X80246851Y-50201000D01*
X80583995Y-50133938D01*
X80869812Y-49942961D01*
X81060789Y-49657144D01*
X81127851Y-49320000D01*
X81060789Y-48982856D01*
X80869812Y-48697039D01*
X80583995Y-48506062D01*
X80246851Y-48439000D01*
X78173149Y-48439000D01*
X77836005Y-48506062D01*
X77550188Y-48697039D01*
X77456000Y-48838001D01*
X77456000Y-47801999D01*
X77550188Y-47942961D01*
X77550188Y-47942961D01*
G37*
X77550188Y-47942961D02*
X77836005Y-48133938D01*
X78173149Y-48201000D01*
X80246851Y-48201000D01*
X80583995Y-48133938D01*
X80869812Y-47942961D01*
X80947963Y-47826000D01*
X82210408Y-47826000D01*
X82714000Y-48329592D01*
X82714000Y-48580701D01*
X82547144Y-48469211D01*
X82210000Y-48402149D01*
X81872856Y-48469211D01*
X81587039Y-48660188D01*
X81396062Y-48946005D01*
X81329000Y-49283149D01*
X81329000Y-51356851D01*
X81396062Y-51693995D01*
X81569792Y-51954000D01*
X81342250Y-51954000D01*
X81247000Y-52049250D01*
X81247000Y-52833000D01*
X81905750Y-52833000D01*
X82001000Y-52737750D01*
X82001000Y-52259215D01*
X81972590Y-52190627D01*
X82210000Y-52237851D01*
X82547144Y-52170789D01*
X82745481Y-52038264D01*
X82752517Y-52073638D01*
X82862204Y-52237796D01*
X83342204Y-52717796D01*
X83506362Y-52827483D01*
X83700000Y-52866000D01*
X94090408Y-52866000D01*
X94492204Y-53267796D01*
X94656362Y-53377483D01*
X94850000Y-53416000D01*
X98950408Y-53416000D01*
X100124000Y-54589592D01*
X100124000Y-56696394D01*
X99910197Y-56910197D01*
X99882334Y-56952211D01*
X99873000Y-57000000D01*
X99873000Y-57314000D01*
X99852250Y-57314000D01*
X99757000Y-57409250D01*
X99757000Y-58193000D01*
X99777000Y-58193000D01*
X99777000Y-58447000D01*
X99757000Y-58447000D01*
X99757000Y-59230750D01*
X99852250Y-59326000D01*
X99873000Y-59326000D01*
X99873000Y-59947394D01*
X98947394Y-60873000D01*
X97524021Y-60873000D01*
X97439241Y-60816351D01*
X97987796Y-60267796D01*
X98097483Y-60103638D01*
X98136000Y-59910000D01*
X98136000Y-59332335D01*
X98271190Y-59306897D01*
X98400865Y-59223454D01*
X98487859Y-59096134D01*
X98518464Y-58945000D01*
X98518464Y-58542250D01*
X98749000Y-58542250D01*
X98749000Y-59020785D01*
X98807004Y-59160819D01*
X98914180Y-59267996D01*
X99054214Y-59326000D01*
X99407750Y-59326000D01*
X99503000Y-59230750D01*
X99503000Y-58447000D01*
X98844250Y-58447000D01*
X98749000Y-58542250D01*
X98518464Y-58542250D01*
X98518464Y-57695000D01*
X98504204Y-57619215D01*
X98749000Y-57619215D01*
X98749000Y-58097750D01*
X98844250Y-58193000D01*
X99503000Y-58193000D01*
X99503000Y-57409250D01*
X99407750Y-57314000D01*
X99054214Y-57314000D01*
X98914180Y-57372004D01*
X98807004Y-57479181D01*
X98749000Y-57619215D01*
X98504204Y-57619215D01*
X98491897Y-57553810D01*
X98408454Y-57424135D01*
X98281134Y-57337141D01*
X98130000Y-57306536D01*
X97130000Y-57306536D01*
X96988810Y-57333103D01*
X96974156Y-57342533D01*
X96871134Y-57272141D01*
X96720000Y-57241536D01*
X96020000Y-57241536D01*
X95878810Y-57268103D01*
X95749135Y-57351546D01*
X95662141Y-57478866D01*
X95631536Y-57630000D01*
X95631536Y-58930000D01*
X95658103Y-59071190D01*
X95741546Y-59200865D01*
X95794000Y-59236705D01*
X95794000Y-60206595D01*
X95694366Y-60206508D01*
X95627830Y-60234000D01*
X93769592Y-60234000D01*
X92037842Y-58502250D01*
X93739000Y-58502250D01*
X93739000Y-59005785D01*
X93797004Y-59145819D01*
X93904180Y-59252996D01*
X94044214Y-59311000D01*
X94247750Y-59311000D01*
X94343000Y-59215750D01*
X94343000Y-58407000D01*
X94597000Y-58407000D01*
X94597000Y-59215750D01*
X94692250Y-59311000D01*
X94895786Y-59311000D01*
X95035820Y-59252996D01*
X95142996Y-59145819D01*
X95201000Y-59005785D01*
X95201000Y-58502250D01*
X95105750Y-58407000D01*
X94597000Y-58407000D01*
X94343000Y-58407000D01*
X93834250Y-58407000D01*
X93739000Y-58502250D01*
X92037842Y-58502250D01*
X91590548Y-58054956D01*
X91683000Y-58029462D01*
X91683000Y-56577000D01*
X91937000Y-56577000D01*
X91937000Y-58029462D01*
X92150557Y-58088350D01*
X92221153Y-58074479D01*
X92696712Y-57816318D01*
X92908991Y-57554215D01*
X93739000Y-57554215D01*
X93739000Y-58057750D01*
X93834250Y-58153000D01*
X94343000Y-58153000D01*
X94343000Y-57344250D01*
X94597000Y-57344250D01*
X94597000Y-58153000D01*
X95105750Y-58153000D01*
X95201000Y-58057750D01*
X95201000Y-57554215D01*
X95142996Y-57414181D01*
X95035820Y-57307004D01*
X94895786Y-57249000D01*
X94692250Y-57249000D01*
X94597000Y-57344250D01*
X94343000Y-57344250D01*
X94247750Y-57249000D01*
X94044214Y-57249000D01*
X93904180Y-57307004D01*
X93797004Y-57414181D01*
X93739000Y-57554215D01*
X92908991Y-57554215D01*
X93037277Y-57395819D01*
X93191000Y-56877000D01*
X93191000Y-56577000D01*
X91937000Y-56577000D01*
X91683000Y-56577000D01*
X91663000Y-56577000D01*
X91663000Y-56323000D01*
X91683000Y-56323000D01*
X91683000Y-54870538D01*
X91937000Y-54870538D01*
X91937000Y-56323000D01*
X93191000Y-56323000D01*
X93191000Y-56023000D01*
X93037277Y-55504181D01*
X92839514Y-55260000D01*
X94856536Y-55260000D01*
X94856536Y-56260000D01*
X94883103Y-56401190D01*
X94966546Y-56530865D01*
X95093866Y-56617859D01*
X95245000Y-56648464D01*
X98345000Y-56648464D01*
X98486190Y-56621897D01*
X98615865Y-56538454D01*
X98702859Y-56411134D01*
X98733464Y-56260000D01*
X98733464Y-55260000D01*
X98706897Y-55118810D01*
X98623454Y-54989135D01*
X98496134Y-54902141D01*
X98345000Y-54871536D01*
X95245000Y-54871536D01*
X95103810Y-54898103D01*
X94974135Y-54981546D01*
X94887141Y-55108866D01*
X94856536Y-55260000D01*
X92839514Y-55260000D01*
X92696712Y-55083682D01*
X92221153Y-54825521D01*
X92150557Y-54811650D01*
X91937000Y-54870538D01*
X91683000Y-54870538D01*
X91469443Y-54811650D01*
X91398847Y-54825521D01*
X90923288Y-55083682D01*
X90582723Y-55504181D01*
X90550633Y-55612486D01*
X90545878Y-55588581D01*
X90246514Y-55140553D01*
X89798486Y-54841189D01*
X89270000Y-54736067D01*
X88741514Y-54841189D01*
X88522873Y-54987281D01*
X87851592Y-54316000D01*
X91451329Y-54316000D01*
X91492339Y-54415252D01*
X91683741Y-54606987D01*
X91933946Y-54710882D01*
X92204865Y-54711118D01*
X92455252Y-54607661D01*
X92646987Y-54416259D01*
X92750882Y-54166054D01*
X92751118Y-53895135D01*
X92647661Y-53644748D01*
X92456259Y-53453013D01*
X92206054Y-53349118D01*
X92053318Y-53348985D01*
X92043638Y-53342517D01*
X91850000Y-53304000D01*
X82310000Y-53304000D01*
X82116362Y-53342517D01*
X82016881Y-53408988D01*
X82001000Y-53408974D01*
X82001000Y-53182250D01*
X81905750Y-53087000D01*
X81247000Y-53087000D01*
X81247000Y-53870750D01*
X81342250Y-53966000D01*
X81349107Y-53966000D01*
X81349007Y-54081600D01*
X81258250Y-54081600D01*
X81163000Y-54176850D01*
X81163000Y-54538800D01*
X81183000Y-54538800D01*
X81183000Y-54691200D01*
X81163000Y-54691200D01*
X81163000Y-54709136D01*
X80909000Y-54709136D01*
X80909000Y-54691200D01*
X80496250Y-54691200D01*
X80401000Y-54786450D01*
X80401000Y-54843185D01*
X80436368Y-54928571D01*
X80424141Y-54946466D01*
X80393536Y-55097600D01*
X80393536Y-55296761D01*
X80377796Y-55273204D01*
X79646464Y-54541872D01*
X79646464Y-54462600D01*
X79632204Y-54386815D01*
X80401000Y-54386815D01*
X80401000Y-54443550D01*
X80496250Y-54538800D01*
X80909000Y-54538800D01*
X80909000Y-54176850D01*
X80813750Y-54081600D01*
X80706214Y-54081600D01*
X80566180Y-54139604D01*
X80459004Y-54246781D01*
X80401000Y-54386815D01*
X79632204Y-54386815D01*
X79619897Y-54321410D01*
X79536454Y-54191735D01*
X79409134Y-54104741D01*
X79258000Y-54074136D01*
X78750000Y-54074136D01*
X78741355Y-54075763D01*
X78639056Y-53973464D01*
X79620000Y-53973464D01*
X79761190Y-53946897D01*
X79890865Y-53863454D01*
X79977859Y-53736134D01*
X80008464Y-53585000D01*
X80008464Y-53182250D01*
X80239000Y-53182250D01*
X80239000Y-53660785D01*
X80297004Y-53800819D01*
X80404180Y-53907996D01*
X80544214Y-53966000D01*
X80897750Y-53966000D01*
X80993000Y-53870750D01*
X80993000Y-53087000D01*
X80334250Y-53087000D01*
X80239000Y-53182250D01*
X80008464Y-53182250D01*
X80008464Y-52335000D01*
X79994204Y-52259215D01*
X80239000Y-52259215D01*
X80239000Y-52737750D01*
X80334250Y-52833000D01*
X80993000Y-52833000D01*
X80993000Y-52049250D01*
X80897750Y-51954000D01*
X80544214Y-51954000D01*
X80404180Y-52012004D01*
X80297004Y-52119181D01*
X80239000Y-52259215D01*
X79994204Y-52259215D01*
X79981897Y-52193810D01*
X79898454Y-52064135D01*
X79771134Y-51977141D01*
X79626000Y-51947751D01*
X79626000Y-50410688D01*
X79677483Y-50333638D01*
X79703866Y-50201000D01*
X80246851Y-50201000D01*
X80583995Y-50133938D01*
X80869812Y-49942961D01*
X81060789Y-49657144D01*
X81127851Y-49320000D01*
X81060789Y-48982856D01*
X80869812Y-48697039D01*
X80583995Y-48506062D01*
X80246851Y-48439000D01*
X78173149Y-48439000D01*
X77836005Y-48506062D01*
X77550188Y-48697039D01*
X77456000Y-48838001D01*
X77456000Y-47801999D01*
X77550188Y-47942961D01*
G36*
X93836005Y-34506062D02*
X93550188Y-34697039D01*
X93359211Y-34982856D01*
X93292149Y-35320000D01*
X93359211Y-35657144D01*
X93550188Y-35942961D01*
X93836005Y-36133938D01*
X94173149Y-36201000D01*
X96246851Y-36201000D01*
X96583995Y-36133938D01*
X96869812Y-35942961D01*
X96947963Y-35826000D01*
X97936251Y-35826000D01*
X97822204Y-35902204D01*
X96932921Y-36791487D01*
X96869812Y-36697039D01*
X96583995Y-36506062D01*
X96246851Y-36439000D01*
X94173149Y-36439000D01*
X93836005Y-36506062D01*
X93550188Y-36697039D01*
X93359211Y-36982856D01*
X93292149Y-37320000D01*
X93359211Y-37657144D01*
X93550188Y-37942961D01*
X93836005Y-38133938D01*
X94173149Y-38201000D01*
X96246851Y-38201000D01*
X96583995Y-38133938D01*
X96869812Y-37942961D01*
X96947963Y-37826000D01*
X97120000Y-37826000D01*
X97313638Y-37787483D01*
X97477796Y-37677796D01*
X97858421Y-37297171D01*
X97904250Y-37343000D01*
X98563000Y-37343000D01*
X98563000Y-37323000D01*
X98817000Y-37323000D01*
X98817000Y-37343000D01*
X99475750Y-37343000D01*
X99571000Y-37247750D01*
X99571000Y-36769215D01*
X99569668Y-36766000D01*
X99817534Y-36766000D01*
X99801536Y-36845000D01*
X99801536Y-38095000D01*
X99828103Y-38236190D01*
X99911546Y-38365865D01*
X100038866Y-38452859D01*
X100054000Y-38455924D01*
X100054000Y-38576900D01*
X100010785Y-38559000D01*
X99832250Y-38559000D01*
X99737000Y-38654250D01*
X99737000Y-39343000D01*
X99757000Y-39343000D01*
X99757000Y-39597000D01*
X99737000Y-39597000D01*
X99737000Y-40285750D01*
X99832250Y-40381000D01*
X100010785Y-40381000D01*
X100077369Y-40353420D01*
X100083866Y-40357859D01*
X100235000Y-40388464D01*
X100632872Y-40388464D01*
X101024115Y-40779707D01*
X100885000Y-40751536D01*
X100235000Y-40751536D01*
X100093810Y-40778103D01*
X99964135Y-40861546D01*
X99877141Y-40988866D01*
X99846536Y-41140000D01*
X99846536Y-42200000D01*
X99873103Y-42341190D01*
X99918262Y-42411369D01*
X99879135Y-42436546D01*
X99792141Y-42563866D01*
X99761536Y-42715000D01*
X99761536Y-43965000D01*
X99774519Y-44034000D01*
X99531000Y-44034000D01*
X99531000Y-43562250D01*
X99435750Y-43467000D01*
X98777000Y-43467000D01*
X98777000Y-43487000D01*
X98523000Y-43487000D01*
X98523000Y-43467000D01*
X97864250Y-43467000D01*
X97848421Y-43482829D01*
X97327796Y-42962204D01*
X97163638Y-42852517D01*
X96970000Y-42814000D01*
X96947963Y-42814000D01*
X96898313Y-42739693D01*
X97141490Y-42639215D01*
X97769000Y-42639215D01*
X97769000Y-43117750D01*
X97864250Y-43213000D01*
X98523000Y-43213000D01*
X98523000Y-43193000D01*
X98777000Y-43193000D01*
X98777000Y-43213000D01*
X99435750Y-43213000D01*
X99531000Y-43117750D01*
X99531000Y-42639215D01*
X99472996Y-42499181D01*
X99365820Y-42392004D01*
X99326159Y-42375576D01*
X99342859Y-42351134D01*
X99373464Y-42200000D01*
X99373464Y-41140000D01*
X99346897Y-40998810D01*
X99263454Y-40869135D01*
X99136134Y-40782141D01*
X98985000Y-40751536D01*
X98335000Y-40751536D01*
X98193810Y-40778103D01*
X98064135Y-40861546D01*
X97977141Y-40988866D01*
X97946536Y-41140000D01*
X97946536Y-42200000D01*
X97973103Y-42341190D01*
X97990728Y-42368581D01*
X97934180Y-42392004D01*
X97827004Y-42499181D01*
X97769000Y-42639215D01*
X97141490Y-42639215D01*
X97145252Y-42637661D01*
X97336987Y-42446259D01*
X97440882Y-42196054D01*
X97441118Y-41925135D01*
X97337661Y-41674748D01*
X97146259Y-41483013D01*
X97099304Y-41463515D01*
X97127851Y-41320000D01*
X97060789Y-40982856D01*
X96869812Y-40697039D01*
X96583995Y-40506062D01*
X96246851Y-40439000D01*
X94173149Y-40439000D01*
X93836005Y-40506062D01*
X93550188Y-40697039D01*
X93359211Y-40982856D01*
X93292149Y-41320000D01*
X93359211Y-41657144D01*
X93550188Y-41942961D01*
X93836005Y-42133938D01*
X94173149Y-42201000D01*
X96081417Y-42201000D01*
X96179756Y-42439000D01*
X94173149Y-42439000D01*
X93836005Y-42506062D01*
X93550188Y-42697039D01*
X93359211Y-42982856D01*
X93292149Y-43320000D01*
X93359211Y-43657144D01*
X93550188Y-43942961D01*
X93836005Y-44133938D01*
X94173149Y-44201000D01*
X96246851Y-44201000D01*
X96583995Y-44133938D01*
X96869812Y-43942961D01*
X96872839Y-43938431D01*
X97832204Y-44897796D01*
X97905545Y-44946801D01*
X97825466Y-45064000D01*
X97076930Y-45064000D01*
X97060789Y-44982856D01*
X96869812Y-44697039D01*
X96583995Y-44506062D01*
X96246851Y-44439000D01*
X94173149Y-44439000D01*
X93836005Y-44506062D01*
X93550188Y-44697039D01*
X93359211Y-44982856D01*
X93292149Y-45320000D01*
X93359211Y-45657144D01*
X93550188Y-45942961D01*
X93836005Y-46133938D01*
X94173149Y-46201000D01*
X96246851Y-46201000D01*
X96583995Y-46133938D01*
X96670705Y-46076000D01*
X97827633Y-46076000D01*
X97901546Y-46190865D01*
X98028866Y-46277859D01*
X98162190Y-46304857D01*
X97993013Y-46473741D01*
X97889118Y-46723946D01*
X97888990Y-46871029D01*
X97822141Y-46968866D01*
X97791536Y-47120000D01*
X97791536Y-47820000D01*
X97818103Y-47961190D01*
X97844248Y-48001820D01*
X97770362Y-48016517D01*
X97606204Y-48126204D01*
X97496517Y-48290362D01*
X97458000Y-48484000D01*
X97458000Y-48486000D01*
X97456000Y-48486000D01*
X97262362Y-48524517D01*
X97098204Y-48634204D01*
X96930089Y-48802319D01*
X96922764Y-48786842D01*
X96664477Y-48554663D01*
X96337000Y-48439000D01*
X95337000Y-48439000D01*
X95337000Y-49193000D01*
X95357000Y-49193000D01*
X95357000Y-49447000D01*
X95337000Y-49447000D01*
X95337000Y-50201000D01*
X96337000Y-50201000D01*
X96470978Y-50153680D01*
X96480517Y-50201638D01*
X96590204Y-50365796D01*
X96754362Y-50475483D01*
X96948000Y-50514000D01*
X97456000Y-50514000D01*
X97649638Y-50475483D01*
X97813796Y-50365796D01*
X98321796Y-49857796D01*
X98431483Y-49693638D01*
X98470000Y-49500000D01*
X98470000Y-49498000D01*
X98472000Y-49498000D01*
X98665638Y-49459483D01*
X98829796Y-49349796D01*
X98939483Y-49185638D01*
X98978000Y-48992000D01*
X98939483Y-48798362D01*
X98829796Y-48634204D01*
X98404056Y-48208464D01*
X99480000Y-48208464D01*
X99621190Y-48181897D01*
X99750865Y-48098454D01*
X99834534Y-47976000D01*
X99856937Y-47976000D01*
X99911546Y-48060865D01*
X100038866Y-48147859D01*
X100190000Y-48178464D01*
X101490000Y-48178464D01*
X101631190Y-48151897D01*
X101760865Y-48068454D01*
X101844534Y-47946000D01*
X102180000Y-47946000D01*
X102373638Y-47907483D01*
X102537796Y-47797796D01*
X102647483Y-47633638D01*
X102669005Y-47525438D01*
X102818527Y-47525438D01*
X102830404Y-48485316D01*
X103174882Y-49316959D01*
X103477566Y-49555629D01*
X105057675Y-47975520D01*
X103477566Y-46395411D01*
X103174882Y-46634081D01*
X102818527Y-47525438D01*
X102669005Y-47525438D01*
X102686000Y-47440000D01*
X102686000Y-46215806D01*
X103657171Y-46215806D01*
X105237280Y-47795915D01*
X106817389Y-46215806D01*
X106578719Y-45913122D01*
X105687362Y-45556767D01*
X104727484Y-45568644D01*
X103895841Y-45913122D01*
X103657171Y-46215806D01*
X102686000Y-46215806D01*
X102686000Y-44900000D01*
X102647483Y-44706362D01*
X102537796Y-44542204D01*
X102106149Y-44110557D01*
X103361650Y-44110557D01*
X103375521Y-44181153D01*
X103633682Y-44656712D01*
X104054181Y-44997277D01*
X104573000Y-45151000D01*
X104873000Y-45151000D01*
X104873000Y-43897000D01*
X105127000Y-43897000D01*
X105127000Y-45151000D01*
X105427000Y-45151000D01*
X105945819Y-44997277D01*
X106366318Y-44656712D01*
X106624479Y-44181153D01*
X106638350Y-44110557D01*
X106579462Y-43897000D01*
X105127000Y-43897000D01*
X104873000Y-43897000D01*
X103420538Y-43897000D01*
X103361650Y-44110557D01*
X102106149Y-44110557D01*
X101538464Y-43542872D01*
X101538464Y-42716372D01*
X101600882Y-42566054D01*
X101601118Y-42295135D01*
X101497661Y-42044748D01*
X101306259Y-41853013D01*
X101273464Y-41839395D01*
X101273464Y-41140000D01*
X101246897Y-40998810D01*
X101215581Y-40950143D01*
X101316362Y-41017483D01*
X101510000Y-41056000D01*
X103320678Y-41056000D01*
X103286067Y-41230000D01*
X103391189Y-41758486D01*
X103690553Y-42206514D01*
X104138581Y-42505878D01*
X104162486Y-42510633D01*
X104054181Y-42542723D01*
X103633682Y-42883288D01*
X103375521Y-43358847D01*
X103361650Y-43429443D01*
X103420538Y-43643000D01*
X104873000Y-43643000D01*
X104873000Y-43623000D01*
X105127000Y-43623000D01*
X105127000Y-43643000D01*
X106579462Y-43643000D01*
X106638350Y-43429443D01*
X106624479Y-43358847D01*
X106366318Y-42883288D01*
X105945819Y-42542723D01*
X105837514Y-42510633D01*
X105861419Y-42505878D01*
X106309447Y-42206514D01*
X106608811Y-41758486D01*
X106713933Y-41230000D01*
X106608811Y-40701514D01*
X106309447Y-40253486D01*
X105870216Y-39960000D01*
X106309447Y-39666514D01*
X106608811Y-39218486D01*
X106713933Y-38690000D01*
X106608811Y-38161514D01*
X106309447Y-37713486D01*
X106047509Y-37538464D01*
X106300000Y-37538464D01*
X106441190Y-37511897D01*
X106570865Y-37428454D01*
X106657859Y-37301134D01*
X106688464Y-37150000D01*
X106688464Y-35150000D01*
X106661897Y-35008810D01*
X106578454Y-34879135D01*
X106451134Y-34792141D01*
X106300000Y-34761536D01*
X103700000Y-34761536D01*
X103558810Y-34788103D01*
X103518565Y-34814000D01*
X96947963Y-34814000D01*
X96869812Y-34697039D01*
X96583995Y-34506062D01*
X96332316Y-34456000D01*
X107544000Y-34456000D01*
X107544000Y-47223926D01*
X107299678Y-46634081D01*
X106996994Y-46395411D01*
X105416885Y-47975520D01*
X106996994Y-49555629D01*
X107299678Y-49316959D01*
X107544000Y-48705832D01*
X107544000Y-51005524D01*
X107533454Y-50989135D01*
X107406134Y-50902141D01*
X107255000Y-50871536D01*
X104155000Y-50871536D01*
X104013810Y-50898103D01*
X103884135Y-50981546D01*
X103797141Y-51108866D01*
X103766536Y-51260000D01*
X103766536Y-52260000D01*
X103793103Y-52401190D01*
X103876546Y-52530865D01*
X104003866Y-52617859D01*
X104155000Y-52648464D01*
X107255000Y-52648464D01*
X107396190Y-52621897D01*
X107525865Y-52538454D01*
X107544000Y-52511913D01*
X107544000Y-55005524D01*
X107533454Y-54989135D01*
X107406134Y-54902141D01*
X107255000Y-54871536D01*
X105907128Y-54871536D01*
X104031031Y-52995439D01*
X104031118Y-52895135D01*
X103927661Y-52644748D01*
X103736259Y-52453013D01*
X103486054Y-52349118D01*
X103215135Y-52348882D01*
X102964748Y-52452339D01*
X102773013Y-52643741D01*
X102669118Y-52893946D01*
X102668882Y-53164865D01*
X102772339Y-53415252D01*
X102963741Y-53606987D01*
X103213946Y-53710882D01*
X103315378Y-53710970D01*
X104475944Y-54871536D01*
X104155000Y-54871536D01*
X104013810Y-54898103D01*
X103884135Y-54981546D01*
X103797141Y-55108866D01*
X103766536Y-55260000D01*
X103766536Y-55873000D01*
X101661500Y-55873000D01*
X101661500Y-51575500D01*
X101622983Y-51381862D01*
X101513296Y-51217704D01*
X100451031Y-50155439D01*
X100451118Y-50055135D01*
X100347661Y-49804748D01*
X100278268Y-49735234D01*
X103657171Y-49735234D01*
X103895841Y-50037918D01*
X104787198Y-50394273D01*
X105747076Y-50382396D01*
X106578719Y-50037918D01*
X106817389Y-49735234D01*
X105237280Y-48155125D01*
X103657171Y-49735234D01*
X100278268Y-49735234D01*
X100156259Y-49613013D01*
X99906054Y-49509118D01*
X99635135Y-49508882D01*
X99384748Y-49612339D01*
X99193013Y-49803741D01*
X99089118Y-50053946D01*
X99088882Y-50324865D01*
X99192339Y-50575252D01*
X99383741Y-50766987D01*
X99633946Y-50870882D01*
X99735378Y-50870970D01*
X100649500Y-51785092D01*
X100649500Y-53683908D01*
X99517796Y-52552204D01*
X99353638Y-52442517D01*
X99160000Y-52404000D01*
X98697744Y-52404000D01*
X98726000Y-52335785D01*
X98726000Y-51982250D01*
X98630750Y-51887000D01*
X96922000Y-51887000D01*
X96922000Y-51907000D01*
X96668000Y-51907000D01*
X96668000Y-51887000D01*
X94959250Y-51887000D01*
X94864000Y-51982250D01*
X94864000Y-52208408D01*
X94657796Y-52002204D01*
X94493638Y-51892517D01*
X94300000Y-51854000D01*
X92917026Y-51854000D01*
X93023938Y-51693995D01*
X93091000Y-51356851D01*
X93091000Y-51184215D01*
X94864000Y-51184215D01*
X94864000Y-51537750D01*
X94959250Y-51633000D01*
X96668000Y-51633000D01*
X96668000Y-50974250D01*
X96922000Y-50974250D01*
X96922000Y-51633000D01*
X98630750Y-51633000D01*
X98726000Y-51537750D01*
X98726000Y-51184215D01*
X98667996Y-51044181D01*
X98560820Y-50937004D01*
X98420786Y-50879000D01*
X97017250Y-50879000D01*
X96922000Y-50974250D01*
X96668000Y-50974250D01*
X96572750Y-50879000D01*
X95169214Y-50879000D01*
X95029180Y-50937004D01*
X94922004Y-51044181D01*
X94864000Y-51184215D01*
X93091000Y-51184215D01*
X93091000Y-49581816D01*
X93368802Y-49581816D01*
X93497236Y-49853158D01*
X93755523Y-50085337D01*
X94083000Y-50201000D01*
X95083000Y-50201000D01*
X95083000Y-49447000D01*
X93434581Y-49447000D01*
X93368802Y-49581816D01*
X93091000Y-49581816D01*
X93091000Y-49283149D01*
X93046252Y-49058184D01*
X93368802Y-49058184D01*
X93434581Y-49193000D01*
X95083000Y-49193000D01*
X95083000Y-48439000D01*
X94083000Y-48439000D01*
X93755523Y-48554663D01*
X93497236Y-48786842D01*
X93368802Y-49058184D01*
X93046252Y-49058184D01*
X93023938Y-48946005D01*
X92832961Y-48660188D01*
X92547144Y-48469211D01*
X92210000Y-48402149D01*
X91872856Y-48469211D01*
X91587039Y-48660188D01*
X91396062Y-48946005D01*
X91329000Y-49283149D01*
X91329000Y-51356851D01*
X91396062Y-51693995D01*
X91502974Y-51854000D01*
X90917026Y-51854000D01*
X91023938Y-51693995D01*
X91091000Y-51356851D01*
X91091000Y-49283149D01*
X91023938Y-48946005D01*
X90832961Y-48660188D01*
X90547144Y-48469211D01*
X90210000Y-48402149D01*
X89872856Y-48469211D01*
X89587039Y-48660188D01*
X89396062Y-48946005D01*
X89329000Y-49283149D01*
X89329000Y-51356851D01*
X89396062Y-51693995D01*
X89502974Y-51854000D01*
X88917026Y-51854000D01*
X89023938Y-51693995D01*
X89091000Y-51356851D01*
X89091000Y-49283149D01*
X89023938Y-48946005D01*
X88832961Y-48660188D01*
X88547144Y-48469211D01*
X88210000Y-48402149D01*
X87872856Y-48469211D01*
X87587039Y-48660188D01*
X87396062Y-48946005D01*
X87329000Y-49283149D01*
X87329000Y-51356851D01*
X87396062Y-51693995D01*
X87502974Y-51854000D01*
X86917026Y-51854000D01*
X87023938Y-51693995D01*
X87091000Y-51356851D01*
X87091000Y-49283149D01*
X87023938Y-48946005D01*
X86832961Y-48660188D01*
X86547144Y-48469211D01*
X86210000Y-48402149D01*
X85872856Y-48469211D01*
X85587039Y-48660188D01*
X85396062Y-48946005D01*
X85329000Y-49283149D01*
X85329000Y-51356851D01*
X85396062Y-51693995D01*
X85502974Y-51854000D01*
X84917026Y-51854000D01*
X85023938Y-51693995D01*
X85091000Y-51356851D01*
X85091000Y-49283149D01*
X85023938Y-48946005D01*
X84832961Y-48660188D01*
X84547144Y-48469211D01*
X84210000Y-48402149D01*
X83872856Y-48469211D01*
X83726000Y-48567337D01*
X83726000Y-48120000D01*
X83687483Y-47926362D01*
X83577796Y-47762204D01*
X83397408Y-47581816D01*
X93368802Y-47581816D01*
X93497236Y-47853158D01*
X93755523Y-48085337D01*
X94083000Y-48201000D01*
X95083000Y-48201000D01*
X95083000Y-47447000D01*
X95337000Y-47447000D01*
X95337000Y-48201000D01*
X96337000Y-48201000D01*
X96664477Y-48085337D01*
X96922764Y-47853158D01*
X97051198Y-47581816D01*
X96985419Y-47447000D01*
X95337000Y-47447000D01*
X95083000Y-47447000D01*
X93434581Y-47447000D01*
X93368802Y-47581816D01*
X83397408Y-47581816D01*
X82873776Y-47058184D01*
X93368802Y-47058184D01*
X93434581Y-47193000D01*
X95083000Y-47193000D01*
X95083000Y-46439000D01*
X95337000Y-46439000D01*
X95337000Y-47193000D01*
X96985419Y-47193000D01*
X97051198Y-47058184D01*
X96922764Y-46786842D01*
X96664477Y-46554663D01*
X96337000Y-46439000D01*
X95337000Y-46439000D01*
X95083000Y-46439000D01*
X94083000Y-46439000D01*
X93755523Y-46554663D01*
X93497236Y-46786842D01*
X93368802Y-47058184D01*
X82873776Y-47058184D01*
X82777796Y-46962204D01*
X82613638Y-46852517D01*
X82420000Y-46814000D01*
X80947963Y-46814000D01*
X80869812Y-46697039D01*
X80583995Y-46506062D01*
X80246851Y-46439000D01*
X78354241Y-46439000D01*
X78356987Y-46436259D01*
X78454676Y-46201000D01*
X80246851Y-46201000D01*
X80583995Y-46133938D01*
X80869812Y-45942961D01*
X81060789Y-45657144D01*
X81127851Y-45320000D01*
X81060789Y-44982856D01*
X80869812Y-44697039D01*
X80583995Y-44506062D01*
X80246851Y-44439000D01*
X78173149Y-44439000D01*
X77836005Y-44506062D01*
X77550188Y-44697039D01*
X77456000Y-44838001D01*
X77456000Y-43801999D01*
X77550188Y-43942961D01*
X77836005Y-44133938D01*
X78173149Y-44201000D01*
X80246851Y-44201000D01*
X80583995Y-44133938D01*
X80869812Y-43942961D01*
X81060789Y-43657144D01*
X81127851Y-43320000D01*
X81060789Y-42982856D01*
X80869812Y-42697039D01*
X80583995Y-42506062D01*
X80246851Y-42439000D01*
X78173149Y-42439000D01*
X77836005Y-42506062D01*
X77550188Y-42697039D01*
X77456000Y-42838001D01*
X77456000Y-41801999D01*
X77550188Y-41942961D01*
X77836005Y-42133938D01*
X78173149Y-42201000D01*
X80246851Y-42201000D01*
X80583995Y-42133938D01*
X80869812Y-41942961D01*
X81060789Y-41657144D01*
X81099555Y-41462250D01*
X84759000Y-41462250D01*
X84759000Y-43855785D01*
X84817004Y-43995819D01*
X84924180Y-44102996D01*
X85064214Y-44161000D01*
X87457750Y-44161000D01*
X87553000Y-44065750D01*
X87553000Y-41367000D01*
X87807000Y-41367000D01*
X87807000Y-44065750D01*
X87902250Y-44161000D01*
X90295786Y-44161000D01*
X90435820Y-44102996D01*
X90542996Y-43995819D01*
X90601000Y-43855785D01*
X90601000Y-41462250D01*
X90505750Y-41367000D01*
X87807000Y-41367000D01*
X87553000Y-41367000D01*
X84854250Y-41367000D01*
X84759000Y-41462250D01*
X81099555Y-41462250D01*
X81127851Y-41320000D01*
X81060789Y-40982856D01*
X80869812Y-40697039D01*
X80583995Y-40506062D01*
X80246851Y-40439000D01*
X79068135Y-40439000D01*
X79110882Y-40336054D01*
X79110970Y-40234622D01*
X79144592Y-40201000D01*
X80246851Y-40201000D01*
X80583995Y-40133938D01*
X80869812Y-39942961D01*
X81060789Y-39657144D01*
X81127851Y-39320000D01*
X81060789Y-38982856D01*
X80869812Y-38697039D01*
X80760824Y-38624215D01*
X84759000Y-38624215D01*
X84759000Y-41017750D01*
X84854250Y-41113000D01*
X87553000Y-41113000D01*
X87553000Y-38414250D01*
X87807000Y-38414250D01*
X87807000Y-41113000D01*
X90505750Y-41113000D01*
X90601000Y-41017750D01*
X90601000Y-39320000D01*
X93292149Y-39320000D01*
X93359211Y-39657144D01*
X93550188Y-39942961D01*
X93836005Y-40133938D01*
X94173149Y-40201000D01*
X96246851Y-40201000D01*
X96483526Y-40153923D01*
X96492339Y-40175252D01*
X96683741Y-40366987D01*
X96933946Y-40470882D01*
X97204865Y-40471118D01*
X97455252Y-40367661D01*
X97646987Y-40176259D01*
X97750882Y-39926054D01*
X97751118Y-39655135D01*
X97647661Y-39404748D01*
X97642692Y-39399771D01*
X97813946Y-39470882D01*
X97915378Y-39470970D01*
X97946536Y-39502128D01*
X97946536Y-40000000D01*
X97973103Y-40141190D01*
X98056546Y-40270865D01*
X98183866Y-40357859D01*
X98335000Y-40388464D01*
X98985000Y-40388464D01*
X99126190Y-40361897D01*
X99140643Y-40352597D01*
X99209215Y-40381000D01*
X99387750Y-40381000D01*
X99483000Y-40285750D01*
X99483000Y-39597000D01*
X99463000Y-39597000D01*
X99463000Y-39343000D01*
X99483000Y-39343000D01*
X99483000Y-38654250D01*
X99387750Y-38559000D01*
X99209215Y-38559000D01*
X99142631Y-38586580D01*
X99136134Y-38582141D01*
X98985000Y-38551536D01*
X98588312Y-38551536D01*
X98530977Y-38412773D01*
X98563000Y-38380750D01*
X98563000Y-37597000D01*
X98817000Y-37597000D01*
X98817000Y-38380750D01*
X98912250Y-38476000D01*
X99265786Y-38476000D01*
X99405820Y-38417996D01*
X99512996Y-38310819D01*
X99571000Y-38170785D01*
X99571000Y-37692250D01*
X99475750Y-37597000D01*
X98817000Y-37597000D01*
X98563000Y-37597000D01*
X97904250Y-37597000D01*
X97809000Y-37692250D01*
X97809000Y-38111417D01*
X97564748Y-38212339D01*
X97373013Y-38403741D01*
X97269118Y-38653946D01*
X97268882Y-38924865D01*
X97372339Y-39175252D01*
X97377308Y-39180229D01*
X97206054Y-39109118D01*
X97104622Y-39109030D01*
X97081234Y-39085642D01*
X97060789Y-38982856D01*
X96869812Y-38697039D01*
X96583995Y-38506062D01*
X96246851Y-38439000D01*
X94173149Y-38439000D01*
X93836005Y-38506062D01*
X93550188Y-38697039D01*
X93359211Y-38982856D01*
X93292149Y-39320000D01*
X90601000Y-39320000D01*
X90601000Y-38624215D01*
X90542996Y-38484181D01*
X90435820Y-38377004D01*
X90295786Y-38319000D01*
X87902250Y-38319000D01*
X87807000Y-38414250D01*
X87553000Y-38414250D01*
X87457750Y-38319000D01*
X85064214Y-38319000D01*
X84924180Y-38377004D01*
X84817004Y-38484181D01*
X84759000Y-38624215D01*
X80760824Y-38624215D01*
X80583995Y-38506062D01*
X80246851Y-38439000D01*
X78173149Y-38439000D01*
X77836005Y-38506062D01*
X77550188Y-38697039D01*
X77456000Y-38838001D01*
X77456000Y-37801999D01*
X77550188Y-37942961D01*
X77836005Y-38133938D01*
X78173149Y-38201000D01*
X80246851Y-38201000D01*
X80583995Y-38133938D01*
X80869812Y-37942961D01*
X81060789Y-37657144D01*
X81127851Y-37320000D01*
X81060789Y-36982856D01*
X80869812Y-36697039D01*
X80583995Y-36506062D01*
X80246851Y-36439000D01*
X79152287Y-36439000D01*
X79190882Y-36346054D01*
X79190970Y-36244622D01*
X79234592Y-36201000D01*
X80246851Y-36201000D01*
X80583995Y-36133938D01*
X80869812Y-35942961D01*
X81060789Y-35657144D01*
X81127851Y-35320000D01*
X81060789Y-34982856D01*
X80869812Y-34697039D01*
X80583995Y-34506062D01*
X80332316Y-34456000D01*
X94087684Y-34456000D01*
X93836005Y-34506062D01*
X93836005Y-34506062D01*
G37*
X93836005Y-34506062D02*
X93550188Y-34697039D01*
X93359211Y-34982856D01*
X93292149Y-35320000D01*
X93359211Y-35657144D01*
X93550188Y-35942961D01*
X93836005Y-36133938D01*
X94173149Y-36201000D01*
X96246851Y-36201000D01*
X96583995Y-36133938D01*
X96869812Y-35942961D01*
X96947963Y-35826000D01*
X97936251Y-35826000D01*
X97822204Y-35902204D01*
X96932921Y-36791487D01*
X96869812Y-36697039D01*
X96583995Y-36506062D01*
X96246851Y-36439000D01*
X94173149Y-36439000D01*
X93836005Y-36506062D01*
X93550188Y-36697039D01*
X93359211Y-36982856D01*
X93292149Y-37320000D01*
X93359211Y-37657144D01*
X93550188Y-37942961D01*
X93836005Y-38133938D01*
X94173149Y-38201000D01*
X96246851Y-38201000D01*
X96583995Y-38133938D01*
X96869812Y-37942961D01*
X96947963Y-37826000D01*
X97120000Y-37826000D01*
X97313638Y-37787483D01*
X97477796Y-37677796D01*
X97858421Y-37297171D01*
X97904250Y-37343000D01*
X98563000Y-37343000D01*
X98563000Y-37323000D01*
X98817000Y-37323000D01*
X98817000Y-37343000D01*
X99475750Y-37343000D01*
X99571000Y-37247750D01*
X99571000Y-36769215D01*
X99569668Y-36766000D01*
X99817534Y-36766000D01*
X99801536Y-36845000D01*
X99801536Y-38095000D01*
X99828103Y-38236190D01*
X99911546Y-38365865D01*
X100038866Y-38452859D01*
X100054000Y-38455924D01*
X100054000Y-38576900D01*
X100010785Y-38559000D01*
X99832250Y-38559000D01*
X99737000Y-38654250D01*
X99737000Y-39343000D01*
X99757000Y-39343000D01*
X99757000Y-39597000D01*
X99737000Y-39597000D01*
X99737000Y-40285750D01*
X99832250Y-40381000D01*
X100010785Y-40381000D01*
X100077369Y-40353420D01*
X100083866Y-40357859D01*
X100235000Y-40388464D01*
X100632872Y-40388464D01*
X101024115Y-40779707D01*
X100885000Y-40751536D01*
X100235000Y-40751536D01*
X100093810Y-40778103D01*
X99964135Y-40861546D01*
X99877141Y-40988866D01*
X99846536Y-41140000D01*
X99846536Y-42200000D01*
X99873103Y-42341190D01*
X99918262Y-42411369D01*
X99879135Y-42436546D01*
X99792141Y-42563866D01*
X99761536Y-42715000D01*
X99761536Y-43965000D01*
X99774519Y-44034000D01*
X99531000Y-44034000D01*
X99531000Y-43562250D01*
X99435750Y-43467000D01*
X98777000Y-43467000D01*
X98777000Y-43487000D01*
X98523000Y-43487000D01*
X98523000Y-43467000D01*
X97864250Y-43467000D01*
X97848421Y-43482829D01*
X97327796Y-42962204D01*
X97163638Y-42852517D01*
X96970000Y-42814000D01*
X96947963Y-42814000D01*
X96898313Y-42739693D01*
X97141490Y-42639215D01*
X97769000Y-42639215D01*
X97769000Y-43117750D01*
X97864250Y-43213000D01*
X98523000Y-43213000D01*
X98523000Y-43193000D01*
X98777000Y-43193000D01*
X98777000Y-43213000D01*
X99435750Y-43213000D01*
X99531000Y-43117750D01*
X99531000Y-42639215D01*
X99472996Y-42499181D01*
X99365820Y-42392004D01*
X99326159Y-42375576D01*
X99342859Y-42351134D01*
X99373464Y-42200000D01*
X99373464Y-41140000D01*
X99346897Y-40998810D01*
X99263454Y-40869135D01*
X99136134Y-40782141D01*
X98985000Y-40751536D01*
X98335000Y-40751536D01*
X98193810Y-40778103D01*
X98064135Y-40861546D01*
X97977141Y-40988866D01*
X97946536Y-41140000D01*
X97946536Y-42200000D01*
X97973103Y-42341190D01*
X97990728Y-42368581D01*
X97934180Y-42392004D01*
X97827004Y-42499181D01*
X97769000Y-42639215D01*
X97141490Y-42639215D01*
X97145252Y-42637661D01*
X97336987Y-42446259D01*
X97440882Y-42196054D01*
X97441118Y-41925135D01*
X97337661Y-41674748D01*
X97146259Y-41483013D01*
X97099304Y-41463515D01*
X97127851Y-41320000D01*
X97060789Y-40982856D01*
X96869812Y-40697039D01*
X96583995Y-40506062D01*
X96246851Y-40439000D01*
X94173149Y-40439000D01*
X93836005Y-40506062D01*
X93550188Y-40697039D01*
X93359211Y-40982856D01*
X93292149Y-41320000D01*
X93359211Y-41657144D01*
X93550188Y-41942961D01*
X93836005Y-42133938D01*
X94173149Y-42201000D01*
X96081417Y-42201000D01*
X96179756Y-42439000D01*
X94173149Y-42439000D01*
X93836005Y-42506062D01*
X93550188Y-42697039D01*
X93359211Y-42982856D01*
X93292149Y-43320000D01*
X93359211Y-43657144D01*
X93550188Y-43942961D01*
X93836005Y-44133938D01*
X94173149Y-44201000D01*
X96246851Y-44201000D01*
X96583995Y-44133938D01*
X96869812Y-43942961D01*
X96872839Y-43938431D01*
X97832204Y-44897796D01*
X97905545Y-44946801D01*
X97825466Y-45064000D01*
X97076930Y-45064000D01*
X97060789Y-44982856D01*
X96869812Y-44697039D01*
X96583995Y-44506062D01*
X96246851Y-44439000D01*
X94173149Y-44439000D01*
X93836005Y-44506062D01*
X93550188Y-44697039D01*
X93359211Y-44982856D01*
X93292149Y-45320000D01*
X93359211Y-45657144D01*
X93550188Y-45942961D01*
X93836005Y-46133938D01*
X94173149Y-46201000D01*
X96246851Y-46201000D01*
X96583995Y-46133938D01*
X96670705Y-46076000D01*
X97827633Y-46076000D01*
X97901546Y-46190865D01*
X98028866Y-46277859D01*
X98162190Y-46304857D01*
X97993013Y-46473741D01*
X97889118Y-46723946D01*
X97888990Y-46871029D01*
X97822141Y-46968866D01*
X97791536Y-47120000D01*
X97791536Y-47820000D01*
X97818103Y-47961190D01*
X97844248Y-48001820D01*
X97770362Y-48016517D01*
X97606204Y-48126204D01*
X97496517Y-48290362D01*
X97458000Y-48484000D01*
X97458000Y-48486000D01*
X97456000Y-48486000D01*
X97262362Y-48524517D01*
X97098204Y-48634204D01*
X96930089Y-48802319D01*
X96922764Y-48786842D01*
X96664477Y-48554663D01*
X96337000Y-48439000D01*
X95337000Y-48439000D01*
X95337000Y-49193000D01*
X95357000Y-49193000D01*
X95357000Y-49447000D01*
X95337000Y-49447000D01*
X95337000Y-50201000D01*
X96337000Y-50201000D01*
X96470978Y-50153680D01*
X96480517Y-50201638D01*
X96590204Y-50365796D01*
X96754362Y-50475483D01*
X96948000Y-50514000D01*
X97456000Y-50514000D01*
X97649638Y-50475483D01*
X97813796Y-50365796D01*
X98321796Y-49857796D01*
X98431483Y-49693638D01*
X98470000Y-49500000D01*
X98470000Y-49498000D01*
X98472000Y-49498000D01*
X98665638Y-49459483D01*
X98829796Y-49349796D01*
X98939483Y-49185638D01*
X98978000Y-48992000D01*
X98939483Y-48798362D01*
X98829796Y-48634204D01*
X98404056Y-48208464D01*
X99480000Y-48208464D01*
X99621190Y-48181897D01*
X99750865Y-48098454D01*
X99834534Y-47976000D01*
X99856937Y-47976000D01*
X99911546Y-48060865D01*
X100038866Y-48147859D01*
X100190000Y-48178464D01*
X101490000Y-48178464D01*
X101631190Y-48151897D01*
X101760865Y-48068454D01*
X101844534Y-47946000D01*
X102180000Y-47946000D01*
X102373638Y-47907483D01*
X102537796Y-47797796D01*
X102647483Y-47633638D01*
X102669005Y-47525438D01*
X102818527Y-47525438D01*
X102830404Y-48485316D01*
X103174882Y-49316959D01*
X103477566Y-49555629D01*
X105057675Y-47975520D01*
X103477566Y-46395411D01*
X103174882Y-46634081D01*
X102818527Y-47525438D01*
X102669005Y-47525438D01*
X102686000Y-47440000D01*
X102686000Y-46215806D01*
X103657171Y-46215806D01*
X105237280Y-47795915D01*
X106817389Y-46215806D01*
X106578719Y-45913122D01*
X105687362Y-45556767D01*
X104727484Y-45568644D01*
X103895841Y-45913122D01*
X103657171Y-46215806D01*
X102686000Y-46215806D01*
X102686000Y-44900000D01*
X102647483Y-44706362D01*
X102537796Y-44542204D01*
X102106149Y-44110557D01*
X103361650Y-44110557D01*
X103375521Y-44181153D01*
X103633682Y-44656712D01*
X104054181Y-44997277D01*
X104573000Y-45151000D01*
X104873000Y-45151000D01*
X104873000Y-43897000D01*
X105127000Y-43897000D01*
X105127000Y-45151000D01*
X105427000Y-45151000D01*
X105945819Y-44997277D01*
X106366318Y-44656712D01*
X106624479Y-44181153D01*
X106638350Y-44110557D01*
X106579462Y-43897000D01*
X105127000Y-43897000D01*
X104873000Y-43897000D01*
X103420538Y-43897000D01*
X103361650Y-44110557D01*
X102106149Y-44110557D01*
X101538464Y-43542872D01*
X101538464Y-42716372D01*
X101600882Y-42566054D01*
X101601118Y-42295135D01*
X101497661Y-42044748D01*
X101306259Y-41853013D01*
X101273464Y-41839395D01*
X101273464Y-41140000D01*
X101246897Y-40998810D01*
X101215581Y-40950143D01*
X101316362Y-41017483D01*
X101510000Y-41056000D01*
X103320678Y-41056000D01*
X103286067Y-41230000D01*
X103391189Y-41758486D01*
X103690553Y-42206514D01*
X104138581Y-42505878D01*
X104162486Y-42510633D01*
X104054181Y-42542723D01*
X103633682Y-42883288D01*
X103375521Y-43358847D01*
X103361650Y-43429443D01*
X103420538Y-43643000D01*
X104873000Y-43643000D01*
X104873000Y-43623000D01*
X105127000Y-43623000D01*
X105127000Y-43643000D01*
X106579462Y-43643000D01*
X106638350Y-43429443D01*
X106624479Y-43358847D01*
X106366318Y-42883288D01*
X105945819Y-42542723D01*
X105837514Y-42510633D01*
X105861419Y-42505878D01*
X106309447Y-42206514D01*
X106608811Y-41758486D01*
X106713933Y-41230000D01*
X106608811Y-40701514D01*
X106309447Y-40253486D01*
X105870216Y-39960000D01*
X106309447Y-39666514D01*
X106608811Y-39218486D01*
X106713933Y-38690000D01*
X106608811Y-38161514D01*
X106309447Y-37713486D01*
X106047509Y-37538464D01*
X106300000Y-37538464D01*
X106441190Y-37511897D01*
X106570865Y-37428454D01*
X106657859Y-37301134D01*
X106688464Y-37150000D01*
X106688464Y-35150000D01*
X106661897Y-35008810D01*
X106578454Y-34879135D01*
X106451134Y-34792141D01*
X106300000Y-34761536D01*
X103700000Y-34761536D01*
X103558810Y-34788103D01*
X103518565Y-34814000D01*
X96947963Y-34814000D01*
X96869812Y-34697039D01*
X96583995Y-34506062D01*
X96332316Y-34456000D01*
X107544000Y-34456000D01*
X107544000Y-47223926D01*
X107299678Y-46634081D01*
X106996994Y-46395411D01*
X105416885Y-47975520D01*
X106996994Y-49555629D01*
X107299678Y-49316959D01*
X107544000Y-48705832D01*
X107544000Y-51005524D01*
X107533454Y-50989135D01*
X107406134Y-50902141D01*
X107255000Y-50871536D01*
X104155000Y-50871536D01*
X104013810Y-50898103D01*
X103884135Y-50981546D01*
X103797141Y-51108866D01*
X103766536Y-51260000D01*
X103766536Y-52260000D01*
X103793103Y-52401190D01*
X103876546Y-52530865D01*
X104003866Y-52617859D01*
X104155000Y-52648464D01*
X107255000Y-52648464D01*
X107396190Y-52621897D01*
X107525865Y-52538454D01*
X107544000Y-52511913D01*
X107544000Y-55005524D01*
X107533454Y-54989135D01*
X107406134Y-54902141D01*
X107255000Y-54871536D01*
X105907128Y-54871536D01*
X104031031Y-52995439D01*
X104031118Y-52895135D01*
X103927661Y-52644748D01*
X103736259Y-52453013D01*
X103486054Y-52349118D01*
X103215135Y-52348882D01*
X102964748Y-52452339D01*
X102773013Y-52643741D01*
X102669118Y-52893946D01*
X102668882Y-53164865D01*
X102772339Y-53415252D01*
X102963741Y-53606987D01*
X103213946Y-53710882D01*
X103315378Y-53710970D01*
X104475944Y-54871536D01*
X104155000Y-54871536D01*
X104013810Y-54898103D01*
X103884135Y-54981546D01*
X103797141Y-55108866D01*
X103766536Y-55260000D01*
X103766536Y-55873000D01*
X101661500Y-55873000D01*
X101661500Y-51575500D01*
X101622983Y-51381862D01*
X101513296Y-51217704D01*
X100451031Y-50155439D01*
X100451118Y-50055135D01*
X100347661Y-49804748D01*
X100278268Y-49735234D01*
X103657171Y-49735234D01*
X103895841Y-50037918D01*
X104787198Y-50394273D01*
X105747076Y-50382396D01*
X106578719Y-50037918D01*
X106817389Y-49735234D01*
X105237280Y-48155125D01*
X103657171Y-49735234D01*
X100278268Y-49735234D01*
X100156259Y-49613013D01*
X99906054Y-49509118D01*
X99635135Y-49508882D01*
X99384748Y-49612339D01*
X99193013Y-49803741D01*
X99089118Y-50053946D01*
X99088882Y-50324865D01*
X99192339Y-50575252D01*
X99383741Y-50766987D01*
X99633946Y-50870882D01*
X99735378Y-50870970D01*
X100649500Y-51785092D01*
X100649500Y-53683908D01*
X99517796Y-52552204D01*
X99353638Y-52442517D01*
X99160000Y-52404000D01*
X98697744Y-52404000D01*
X98726000Y-52335785D01*
X98726000Y-51982250D01*
X98630750Y-51887000D01*
X96922000Y-51887000D01*
X96922000Y-51907000D01*
X96668000Y-51907000D01*
X96668000Y-51887000D01*
X94959250Y-51887000D01*
X94864000Y-51982250D01*
X94864000Y-52208408D01*
X94657796Y-52002204D01*
X94493638Y-51892517D01*
X94300000Y-51854000D01*
X92917026Y-51854000D01*
X93023938Y-51693995D01*
X93091000Y-51356851D01*
X93091000Y-51184215D01*
X94864000Y-51184215D01*
X94864000Y-51537750D01*
X94959250Y-51633000D01*
X96668000Y-51633000D01*
X96668000Y-50974250D01*
X96922000Y-50974250D01*
X96922000Y-51633000D01*
X98630750Y-51633000D01*
X98726000Y-51537750D01*
X98726000Y-51184215D01*
X98667996Y-51044181D01*
X98560820Y-50937004D01*
X98420786Y-50879000D01*
X97017250Y-50879000D01*
X96922000Y-50974250D01*
X96668000Y-50974250D01*
X96572750Y-50879000D01*
X95169214Y-50879000D01*
X95029180Y-50937004D01*
X94922004Y-51044181D01*
X94864000Y-51184215D01*
X93091000Y-51184215D01*
X93091000Y-49581816D01*
X93368802Y-49581816D01*
X93497236Y-49853158D01*
X93755523Y-50085337D01*
X94083000Y-50201000D01*
X95083000Y-50201000D01*
X95083000Y-49447000D01*
X93434581Y-49447000D01*
X93368802Y-49581816D01*
X93091000Y-49581816D01*
X93091000Y-49283149D01*
X93046252Y-49058184D01*
X93368802Y-49058184D01*
X93434581Y-49193000D01*
X95083000Y-49193000D01*
X95083000Y-48439000D01*
X94083000Y-48439000D01*
X93755523Y-48554663D01*
X93497236Y-48786842D01*
X93368802Y-49058184D01*
X93046252Y-49058184D01*
X93023938Y-48946005D01*
X92832961Y-48660188D01*
X92547144Y-48469211D01*
X92210000Y-48402149D01*
X91872856Y-48469211D01*
X91587039Y-48660188D01*
X91396062Y-48946005D01*
X91329000Y-49283149D01*
X91329000Y-51356851D01*
X91396062Y-51693995D01*
X91502974Y-51854000D01*
X90917026Y-51854000D01*
X91023938Y-51693995D01*
X91091000Y-51356851D01*
X91091000Y-49283149D01*
X91023938Y-48946005D01*
X90832961Y-48660188D01*
X90547144Y-48469211D01*
X90210000Y-48402149D01*
X89872856Y-48469211D01*
X89587039Y-48660188D01*
X89396062Y-48946005D01*
X89329000Y-49283149D01*
X89329000Y-51356851D01*
X89396062Y-51693995D01*
X89502974Y-51854000D01*
X88917026Y-51854000D01*
X89023938Y-51693995D01*
X89091000Y-51356851D01*
X89091000Y-49283149D01*
X89023938Y-48946005D01*
X88832961Y-48660188D01*
X88547144Y-48469211D01*
X88210000Y-48402149D01*
X87872856Y-48469211D01*
X87587039Y-48660188D01*
X87396062Y-48946005D01*
X87329000Y-49283149D01*
X87329000Y-51356851D01*
X87396062Y-51693995D01*
X87502974Y-51854000D01*
X86917026Y-51854000D01*
X87023938Y-51693995D01*
X87091000Y-51356851D01*
X87091000Y-49283149D01*
X87023938Y-48946005D01*
X86832961Y-48660188D01*
X86547144Y-48469211D01*
X86210000Y-48402149D01*
X85872856Y-48469211D01*
X85587039Y-48660188D01*
X85396062Y-48946005D01*
X85329000Y-49283149D01*
X85329000Y-51356851D01*
X85396062Y-51693995D01*
X85502974Y-51854000D01*
X84917026Y-51854000D01*
X85023938Y-51693995D01*
X85091000Y-51356851D01*
X85091000Y-49283149D01*
X85023938Y-48946005D01*
X84832961Y-48660188D01*
X84547144Y-48469211D01*
X84210000Y-48402149D01*
X83872856Y-48469211D01*
X83726000Y-48567337D01*
X83726000Y-48120000D01*
X83687483Y-47926362D01*
X83577796Y-47762204D01*
X83397408Y-47581816D01*
X93368802Y-47581816D01*
X93497236Y-47853158D01*
X93755523Y-48085337D01*
X94083000Y-48201000D01*
X95083000Y-48201000D01*
X95083000Y-47447000D01*
X95337000Y-47447000D01*
X95337000Y-48201000D01*
X96337000Y-48201000D01*
X96664477Y-48085337D01*
X96922764Y-47853158D01*
X97051198Y-47581816D01*
X96985419Y-47447000D01*
X95337000Y-47447000D01*
X95083000Y-47447000D01*
X93434581Y-47447000D01*
X93368802Y-47581816D01*
X83397408Y-47581816D01*
X82873776Y-47058184D01*
X93368802Y-47058184D01*
X93434581Y-47193000D01*
X95083000Y-47193000D01*
X95083000Y-46439000D01*
X95337000Y-46439000D01*
X95337000Y-47193000D01*
X96985419Y-47193000D01*
X97051198Y-47058184D01*
X96922764Y-46786842D01*
X96664477Y-46554663D01*
X96337000Y-46439000D01*
X95337000Y-46439000D01*
X95083000Y-46439000D01*
X94083000Y-46439000D01*
X93755523Y-46554663D01*
X93497236Y-46786842D01*
X93368802Y-47058184D01*
X82873776Y-47058184D01*
X82777796Y-46962204D01*
X82613638Y-46852517D01*
X82420000Y-46814000D01*
X80947963Y-46814000D01*
X80869812Y-46697039D01*
X80583995Y-46506062D01*
X80246851Y-46439000D01*
X78354241Y-46439000D01*
X78356987Y-46436259D01*
X78454676Y-46201000D01*
X80246851Y-46201000D01*
X80583995Y-46133938D01*
X80869812Y-45942961D01*
X81060789Y-45657144D01*
X81127851Y-45320000D01*
X81060789Y-44982856D01*
X80869812Y-44697039D01*
X80583995Y-44506062D01*
X80246851Y-44439000D01*
X78173149Y-44439000D01*
X77836005Y-44506062D01*
X77550188Y-44697039D01*
X77456000Y-44838001D01*
X77456000Y-43801999D01*
X77550188Y-43942961D01*
X77836005Y-44133938D01*
X78173149Y-44201000D01*
X80246851Y-44201000D01*
X80583995Y-44133938D01*
X80869812Y-43942961D01*
X81060789Y-43657144D01*
X81127851Y-43320000D01*
X81060789Y-42982856D01*
X80869812Y-42697039D01*
X80583995Y-42506062D01*
X80246851Y-42439000D01*
X78173149Y-42439000D01*
X77836005Y-42506062D01*
X77550188Y-42697039D01*
X77456000Y-42838001D01*
X77456000Y-41801999D01*
X77550188Y-41942961D01*
X77836005Y-42133938D01*
X78173149Y-42201000D01*
X80246851Y-42201000D01*
X80583995Y-42133938D01*
X80869812Y-41942961D01*
X81060789Y-41657144D01*
X81099555Y-41462250D01*
X84759000Y-41462250D01*
X84759000Y-43855785D01*
X84817004Y-43995819D01*
X84924180Y-44102996D01*
X85064214Y-44161000D01*
X87457750Y-44161000D01*
X87553000Y-44065750D01*
X87553000Y-41367000D01*
X87807000Y-41367000D01*
X87807000Y-44065750D01*
X87902250Y-44161000D01*
X90295786Y-44161000D01*
X90435820Y-44102996D01*
X90542996Y-43995819D01*
X90601000Y-43855785D01*
X90601000Y-41462250D01*
X90505750Y-41367000D01*
X87807000Y-41367000D01*
X87553000Y-41367000D01*
X84854250Y-41367000D01*
X84759000Y-41462250D01*
X81099555Y-41462250D01*
X81127851Y-41320000D01*
X81060789Y-40982856D01*
X80869812Y-40697039D01*
X80583995Y-40506062D01*
X80246851Y-40439000D01*
X79068135Y-40439000D01*
X79110882Y-40336054D01*
X79110970Y-40234622D01*
X79144592Y-40201000D01*
X80246851Y-40201000D01*
X80583995Y-40133938D01*
X80869812Y-39942961D01*
X81060789Y-39657144D01*
X81127851Y-39320000D01*
X81060789Y-38982856D01*
X80869812Y-38697039D01*
X80760824Y-38624215D01*
X84759000Y-38624215D01*
X84759000Y-41017750D01*
X84854250Y-41113000D01*
X87553000Y-41113000D01*
X87553000Y-38414250D01*
X87807000Y-38414250D01*
X87807000Y-41113000D01*
X90505750Y-41113000D01*
X90601000Y-41017750D01*
X90601000Y-39320000D01*
X93292149Y-39320000D01*
X93359211Y-39657144D01*
X93550188Y-39942961D01*
X93836005Y-40133938D01*
X94173149Y-40201000D01*
X96246851Y-40201000D01*
X96483526Y-40153923D01*
X96492339Y-40175252D01*
X96683741Y-40366987D01*
X96933946Y-40470882D01*
X97204865Y-40471118D01*
X97455252Y-40367661D01*
X97646987Y-40176259D01*
X97750882Y-39926054D01*
X97751118Y-39655135D01*
X97647661Y-39404748D01*
X97642692Y-39399771D01*
X97813946Y-39470882D01*
X97915378Y-39470970D01*
X97946536Y-39502128D01*
X97946536Y-40000000D01*
X97973103Y-40141190D01*
X98056546Y-40270865D01*
X98183866Y-40357859D01*
X98335000Y-40388464D01*
X98985000Y-40388464D01*
X99126190Y-40361897D01*
X99140643Y-40352597D01*
X99209215Y-40381000D01*
X99387750Y-40381000D01*
X99483000Y-40285750D01*
X99483000Y-39597000D01*
X99463000Y-39597000D01*
X99463000Y-39343000D01*
X99483000Y-39343000D01*
X99483000Y-38654250D01*
X99387750Y-38559000D01*
X99209215Y-38559000D01*
X99142631Y-38586580D01*
X99136134Y-38582141D01*
X98985000Y-38551536D01*
X98588312Y-38551536D01*
X98530977Y-38412773D01*
X98563000Y-38380750D01*
X98563000Y-37597000D01*
X98817000Y-37597000D01*
X98817000Y-38380750D01*
X98912250Y-38476000D01*
X99265786Y-38476000D01*
X99405820Y-38417996D01*
X99512996Y-38310819D01*
X99571000Y-38170785D01*
X99571000Y-37692250D01*
X99475750Y-37597000D01*
X98817000Y-37597000D01*
X98563000Y-37597000D01*
X97904250Y-37597000D01*
X97809000Y-37692250D01*
X97809000Y-38111417D01*
X97564748Y-38212339D01*
X97373013Y-38403741D01*
X97269118Y-38653946D01*
X97268882Y-38924865D01*
X97372339Y-39175252D01*
X97377308Y-39180229D01*
X97206054Y-39109118D01*
X97104622Y-39109030D01*
X97081234Y-39085642D01*
X97060789Y-38982856D01*
X96869812Y-38697039D01*
X96583995Y-38506062D01*
X96246851Y-38439000D01*
X94173149Y-38439000D01*
X93836005Y-38506062D01*
X93550188Y-38697039D01*
X93359211Y-38982856D01*
X93292149Y-39320000D01*
X90601000Y-39320000D01*
X90601000Y-38624215D01*
X90542996Y-38484181D01*
X90435820Y-38377004D01*
X90295786Y-38319000D01*
X87902250Y-38319000D01*
X87807000Y-38414250D01*
X87553000Y-38414250D01*
X87457750Y-38319000D01*
X85064214Y-38319000D01*
X84924180Y-38377004D01*
X84817004Y-38484181D01*
X84759000Y-38624215D01*
X80760824Y-38624215D01*
X80583995Y-38506062D01*
X80246851Y-38439000D01*
X78173149Y-38439000D01*
X77836005Y-38506062D01*
X77550188Y-38697039D01*
X77456000Y-38838001D01*
X77456000Y-37801999D01*
X77550188Y-37942961D01*
X77836005Y-38133938D01*
X78173149Y-38201000D01*
X80246851Y-38201000D01*
X80583995Y-38133938D01*
X80869812Y-37942961D01*
X81060789Y-37657144D01*
X81127851Y-37320000D01*
X81060789Y-36982856D01*
X80869812Y-36697039D01*
X80583995Y-36506062D01*
X80246851Y-36439000D01*
X79152287Y-36439000D01*
X79190882Y-36346054D01*
X79190970Y-36244622D01*
X79234592Y-36201000D01*
X80246851Y-36201000D01*
X80583995Y-36133938D01*
X80869812Y-35942961D01*
X81060789Y-35657144D01*
X81127851Y-35320000D01*
X81060789Y-34982856D01*
X80869812Y-34697039D01*
X80583995Y-34506062D01*
X80332316Y-34456000D01*
X94087684Y-34456000D01*
X93836005Y-34506062D01*
M02*
