M48
;DRILL file {KiCad 4.0.7-e2-6376~58~ubuntu16.04.1} date Wed Apr 11 03:41:43 2018
;FORMAT={-:-/ absolute / inch / decimal}
FMAT,2
INCH,TZ
T1C0.016
T2C0.047
T3C0.112
%
G90
G05
M72
T1
X3.0622Y-1.813
X3.0665Y-2.0382
X3.0697Y-2.1697
X3.0768Y-2.0909
X3.0878Y-1.5827
X3.0909Y-1.4256
X3.0945Y-1.998
X3.2295Y-2.1295
X3.2394Y-2.1965
X3.6248Y-2.1272
X3.6827Y-2.0917
X3.7079Y-2.4472
X3.7484Y-2.0134
X3.7598Y-2.3465
X3.7795Y-2.5984
X3.7913Y-2.4634
X3.8094Y-1.6559
X3.8217Y-1.5665
X3.822Y-1.8402
X3.8512Y-1.6783
X3.8563Y-1.5272
X3.8807Y-1.8449
X3.898Y-2.337
X3.928Y-1.976
X3.9283Y-1.824
X3.9689Y-1.5173
X3.9709Y-1.7681
X3.9732Y-1.6705
X3.9878Y-2.5283
X4.0068Y-2.2421
X4.0068Y-2.2961
X4.0157Y-2.4803
X4.0689Y-2.0878
X4.1039Y-2.461
X4.1441Y-2.337
T2
X3.3146Y-2.2224
X3.4146Y-2.2224
X3.5146Y-2.2224
X3.6146Y-2.2224
X4.1339Y-1.4232
X4.1339Y-1.5232
X4.1339Y-1.6232
X4.1339Y-1.7232
T3
X4.1432Y-1.8888
T0
M30
