G04 #@! TF.FileFunction,Soldermask,Top*
%FSLAX46Y46*%
G04 Gerber Fmt 4.6, Leading zero omitted, Abs format (unit mm)*
G04 Created by KiCad (PCBNEW 4.0.7-e2-6376~58~ubuntu16.04.1) date Wed Apr 11 03:41:41 2018*
%MOMM*%
%LPD*%
G01*
G04 APERTURE LIST*
%ADD10C,0.100000*%
%ADD11C,0.150000*%
%ADD12R,2.854000X2.254000*%
%ADD13O,2.854000X2.254000*%
%ADD14R,1.254000X1.504000*%
%ADD15R,1.554000X1.554000*%
%ADD16R,1.954000X1.954000*%
%ADD17O,3.254000X1.254000*%
%ADD18O,1.254000X3.254000*%
%ADD19R,2.254000X2.854000*%
%ADD20O,2.254000X2.854000*%
%ADD21R,1.554000X0.954000*%
%ADD22R,0.954000X1.554000*%
%ADD23R,3.354000X1.254000*%
%ADD24C,0.558800*%
%ADD25R,0.762000X0.558800*%
%ADD26R,0.904000X1.314000*%
%ADD27R,1.504000X0.504000*%
%ADD28R,0.504000X1.504000*%
%ADD29C,4.318000*%
%ADD30R,5.334000X5.334000*%
G04 APERTURE END LIST*
D10*
D11*
X77000000Y-55000000D02*
X77000000Y-34000000D01*
X81000000Y-59000000D02*
X77000000Y-55000000D01*
X88000000Y-59000000D02*
X81000000Y-59000000D01*
X91000000Y-62000000D02*
X88000000Y-59000000D01*
X91000000Y-66000000D02*
X91000000Y-62000000D01*
X93000000Y-68000000D02*
X91000000Y-66000000D01*
X98000000Y-68000000D02*
X93000000Y-68000000D01*
X100000000Y-66000000D02*
X98000000Y-68000000D01*
X105000000Y-66000000D02*
X100000000Y-66000000D01*
X107000000Y-64000000D02*
X105000000Y-66000000D01*
X107000000Y-58000000D02*
X107000000Y-64000000D01*
X108000000Y-57000000D02*
X107000000Y-58000000D01*
X108000000Y-52000000D02*
X108000000Y-57000000D01*
X108000000Y-34000000D02*
X108000000Y-52000000D01*
X77000000Y-34000000D02*
X108000000Y-34000000D01*
D12*
X105000000Y-36150000D03*
D13*
X105000000Y-38690000D03*
X105000000Y-41230000D03*
X105000000Y-43770000D03*
D14*
X79120000Y-52960000D03*
X81120000Y-52960000D03*
X100650000Y-43340000D03*
X98650000Y-43340000D03*
X100690000Y-37470000D03*
X98690000Y-37470000D03*
X99630000Y-58320000D03*
X97630000Y-58320000D03*
D15*
X98060000Y-65460000D03*
D16*
X92980000Y-65460000D03*
D17*
X79210000Y-35320000D03*
X79210000Y-37320000D03*
X79210000Y-39320000D03*
X79210000Y-41320000D03*
X79210000Y-43320000D03*
X79210000Y-45320000D03*
X79210000Y-47320000D03*
X79210000Y-49320000D03*
D18*
X82210000Y-50320000D03*
X84210000Y-50320000D03*
X86210000Y-50320000D03*
X88210000Y-50320000D03*
X90210000Y-50320000D03*
X92210000Y-50320000D03*
D17*
X95210000Y-49320000D03*
X95210000Y-47320000D03*
X95210000Y-45320000D03*
X95210000Y-43320000D03*
X95210000Y-41320000D03*
X95210000Y-39320000D03*
X95210000Y-37320000D03*
X95210000Y-35320000D03*
D19*
X84190000Y-56450000D03*
D20*
X86730000Y-56450000D03*
X89270000Y-56450000D03*
X91810000Y-56450000D03*
D21*
X98830000Y-47470000D03*
X98830000Y-45570000D03*
X100840000Y-47440000D03*
X100840000Y-45540000D03*
D22*
X96370000Y-58280000D03*
X94470000Y-58280000D03*
D23*
X105705000Y-55760000D03*
X105705000Y-51760000D03*
X96795000Y-51760000D03*
X96795000Y-55760000D03*
D24*
X96800000Y-60740000D03*
X96800000Y-61240000D03*
X96800000Y-61740000D03*
X96300000Y-60740000D03*
X96300000Y-61240000D03*
X96300000Y-61740000D03*
X95800000Y-60740000D03*
X95800000Y-61240000D03*
X95800000Y-61740000D03*
D25*
X81036000Y-55885000D03*
X81036000Y-54615000D03*
X79004000Y-55885000D03*
X81036000Y-55250000D03*
X79004000Y-54615000D03*
D26*
X100560000Y-39470000D03*
X99610000Y-39470000D03*
X98660000Y-39470000D03*
X98660000Y-41670000D03*
X100560000Y-41670000D03*
D14*
X102450000Y-64500000D03*
X104450000Y-64500000D03*
D21*
X100540000Y-62920000D03*
X100540000Y-64820000D03*
D27*
X101740000Y-60190000D03*
X101740000Y-60690000D03*
X101740000Y-61190000D03*
X101740000Y-61690000D03*
D28*
X102740000Y-62190000D03*
X103240000Y-62190000D03*
D27*
X104240000Y-61690000D03*
X104240000Y-61190000D03*
X104240000Y-60690000D03*
X104240000Y-60190000D03*
D28*
X103240000Y-59690000D03*
X102740000Y-59690000D03*
D14*
X104570000Y-57980000D03*
X102570000Y-57980000D03*
D29*
X105237280Y-47975520D03*
D30*
X87680000Y-41240000D03*
M02*
